{"glyphs":{"0":{"ha":671,"x_min":0,"x_max":0,"o":"m 606 335 b 533 80 606 227 581 142 b 336 -14 484 18 419 -14 b 139 80 254 -14 188 18 b 66 335 90 142 66 227 l 66 614 b 139 869 66 722 90 806 b 335 963 187 932 253 963 b 532 869 417 963 483 932 b 606 614 581 806 606 722 l 606 335 m 470 630 b 435 799 470 702 458 758 b 335 861 412 840 378 861 b 236 799 292 861 259 840 b 201 630 212 758 201 701 l 201 319 b 236 150 201 248 212 191 b 336 87 260 108 293 87 b 435 149 379 87 412 108 b 470 319 458 190 470 247 l 470 630 "},"1":{"ha":671,"x_min":0,"x_max":0,"o":"m 294 0 l 294 836 l 136 826 l 136 929 l 430 963 l 430 0 "},"2":{"ha":671,"x_min":0,"x_max":0,"o":"m 75 0 l 75 101 l 343 443 b 427 588 385 504 413 552 b 448 700 441 623 448 661 b 419 817 448 748 438 787 b 332 861 400 846 371 861 b 234 808 290 861 257 843 b 199 677 210 773 199 729 l 70 677 l 68 681 b 138 881 66 760 89 826 b 332 963 186 936 251 963 b 516 894 410 963 472 940 b 583 699 560 848 583 783 b 538 530 583 639 568 583 b 406 342 509 477 465 415 l 241 101 l 600 101 l 600 0 "},"3":{"ha":671,"x_min":0,"x_max":0,"o":"m 335 534 b 428 576 377 534 408 548 b 458 696 448 605 458 645 b 425 814 458 744 447 784 b 327 861 402 845 370 861 b 240 816 292 861 263 846 b 206 702 218 786 206 748 l 77 702 l 75 706 b 145 892 73 782 96 844 b 327 963 194 939 255 963 b 522 893 409 963 474 940 b 594 694 570 847 594 780 b 562 572 594 650 583 609 b 472 487 540 536 510 507 b 572 402 515 469 549 441 b 607 262 595 364 607 317 b 529 59 607 175 581 108 b 327 -14 477 11 410 -14 b 139 56 254 -14 191 10 b 63 259 87 102 61 170 l 65 263 l 195 263 b 231 138 195 213 207 171 b 327 87 256 104 288 87 b 432 135 371 87 406 103 b 471 260 458 167 471 208 b 437 391 471 320 460 363 b 335 433 414 419 380 433 l 230 433 l 230 534 l 335 534 "},"4":{"ha":671,"x_min":0,"x_max":0,"o":"m 628 305 l 628 203 l 522 203 l 522 0 l 387 0 l 387 203 l 56 203 l 52 278 l 382 949 l 522 949 l 522 305 m 387 305 l 387 762 l 382 762 l 367 726 l 188 305 "},"5":{"ha":671,"x_min":0,"x_max":0,"o":"m 147 949 l 572 949 l 572 840 l 261 840 l 235 556 b 294 597 253 573 272 587 b 370 614 316 608 342 614 b 545 533 445 615 503 588 b 607 303 586 477 607 401 b 541 74 607 208 585 132 b 341 -14 496 15 430 -14 b 158 53 268 -14 207 9 b 87 246 109 98 85 162 l 89 250 l 215 252 b 250 130 215 199 227 159 b 341 87 273 102 304 87 b 438 143 385 87 417 106 b 471 302 460 180 471 233 b 437 452 471 365 459 415 b 340 508 415 489 382 508 b 256 484 302 508 274 500 b 216 412 237 467 224 443 l 99 422 "},"6":{"ha":671,"x_min":0,"x_max":0,"o":"m 375 963 b 468 952 408 963 439 959 b 548 922 497 945 524 935 l 522 825 b 455 851 500 836 478 845 b 375 860 432 857 405 860 b 257 793 327 860 287 838 b 211 619 226 749 211 691 l 211 515 b 287 577 232 541 257 562 b 382 600 316 593 348 600 b 562 522 460 600 520 574 b 625 299 604 470 625 395 b 551 72 625 205 601 129 b 354 -14 502 15 436 -14 b 154 78 274 -14 207 17 b 75 326 102 138 75 221 l 75 618 b 161 867 75 720 104 802 b 375 963 218 931 290 963 m 349 495 b 264 473 316 495 288 488 b 211 413 241 459 223 439 l 211 326 b 251 151 211 252 224 194 b 354 87 278 109 312 87 b 454 146 397 87 430 107 b 490 299 478 186 490 237 b 455 446 490 365 478 414 b 349 495 431 479 396 495 "},"7":{"ha":671,"x_min":0,"x_max":0,"o":"m 630 847 b 432 502 534 697 468 582 b 378 151 396 421 378 304 l 378 0 l 243 0 l 243 151 b 307 511 243 301 265 421 b 498 847 350 601 413 713 l 35 847 l 35 949 l 630 949 l 630 847 "},"8":{"ha":671,"x_min":0,"x_max":0,"o":"m 584 704 b 548 574 584 654 572 611 b 452 492 525 537 492 510 b 565 403 499 473 536 443 b 607 263 593 363 607 316 b 532 59 607 176 582 108 b 341 -14 482 11 418 -14 b 140 59 259 -14 192 11 b 62 263 88 108 62 176 b 106 404 62 317 77 364 b 224 492 135 444 174 473 b 123 574 181 510 147 537 b 86 704 98 611 86 655 b 157 896 86 787 110 851 b 340 963 204 941 265 963 b 515 896 411 963 470 941 b 584 704 561 851 584 787 m 471 263 b 434 391 471 316 459 358 b 340 441 409 424 377 441 b 238 391 299 441 265 424 b 198 263 211 358 198 316 b 238 135 198 210 211 167 b 341 87 265 103 299 87 b 434 135 379 87 410 103 b 471 263 459 167 471 210 m 448 704 b 417 817 448 751 437 788 b 340 861 397 846 371 861 b 254 819 304 861 276 847 b 221 704 232 791 221 752 b 255 587 221 655 232 616 b 341 543 277 557 306 543 b 417 587 372 543 397 557 b 448 704 438 617 448 656 "},"9":{"ha":671,"x_min":0,"x_max":0,"o":"m 309 87 b 421 146 355 87 392 107 b 465 311 451 186 465 241 l 465 421 b 394 352 446 391 422 368 b 303 329 366 337 336 329 b 121 409 224 329 164 356 b 56 637 78 463 56 539 b 132 871 56 732 81 810 b 324 963 182 932 246 963 b 524 874 406 963 472 933 b 601 624 575 814 601 731 l 601 313 b 519 74 601 211 574 132 b 309 -14 464 15 394 -14 b 219 -3 279 -14 249 -10 b 133 27 188 3 160 14 l 155 123 b 227 96 179 110 203 101 b 309 87 251 90 278 87 m 317 428 b 407 456 352 428 382 437 b 465 529 433 475 452 500 l 465 631 b 427 801 465 704 452 761 b 326 861 401 841 368 861 b 229 797 285 861 253 839 b 192 637 204 755 192 702 b 223 483 192 571 202 520 b 317 428 244 446 275 428 "}," ":{"ha":299,"x_min":0,"x_max":0,"o":""},"!":{"ha":314,"x_min":0,"x_max":0,"o":"m 90 317 l 90 949 l 225 949 l 225 317 m 89 0 l 89 138 l 226 138 l 226 0 "},"\"":{"ha":494,"x_min":0,"x_max":0,"o":"m 162 621 l 98 621 l 101 780 l 101 949 l 220 949 l 220 786 m 348 621 l 284 621 l 287 784 l 287 949 l 406 949 l 406 786 "},"#":{"ha":718,"x_min":0,"x_max":0,"o":"m 262 267 l 219 0 l 127 0 l 170 267 l 36 267 l 36 353 l 183 353 l 222 591 l 79 591 l 79 678 l 235 678 l 279 949 l 372 949 l 328 678 l 460 678 l 504 949 l 596 949 l 552 678 l 674 678 l 674 591 l 538 591 l 500 353 l 631 353 l 631 267 l 486 267 l 443 0 l 350 0 l 393 267 m 407 353 l 446 591 l 315 591 l 276 353 "},"$":{"ha":693,"x_min":0,"x_max":0,"o":"m 486 241 b 454 344 486 283 476 317 b 345 420 433 371 397 396 b 161 528 263 449 202 485 b 100 706 121 571 100 630 b 159 880 100 777 120 835 b 319 960 198 925 251 952 l 319 1099 l 406 1099 l 406 960 b 563 870 473 950 525 920 b 619 671 600 820 619 754 l 484 671 b 450 807 484 727 472 773 b 358 858 428 841 397 858 b 266 816 317 858 286 844 b 235 707 245 788 235 752 b 266 605 235 665 246 631 b 380 528 287 579 325 553 b 562 419 462 498 522 462 b 622 243 602 377 622 318 b 561 66 622 170 602 111 b 395 -11 521 22 465 -4 l 395 -137 l 309 -137 l 309 -11 b 137 70 239 -4 182 23 b 72 275 92 116 71 184 l 74 279 l 204 279 b 246 134 204 211 218 163 b 350 90 274 105 308 90 b 451 132 393 90 427 104 b 486 241 474 159 486 196 "},"%":{"ha":907,"x_min":0,"x_max":0,"o":"m 63 767 b 112 907 63 823 79 869 b 245 963 145 944 189 963 b 379 907 302 963 347 944 b 429 767 412 869 429 823 l 429 717 b 379 577 429 661 412 615 b 247 522 347 540 302 522 b 113 577 190 522 146 540 b 63 717 80 615 63 661 l 63 767 m 159 717 b 181 634 159 684 166 657 b 247 600 197 611 218 600 b 310 634 274 600 295 611 b 332 717 325 656 332 684 l 332 767 b 310 850 332 800 325 827 b 245 884 294 873 273 884 b 181 850 217 884 196 873 b 159 767 166 827 159 799 l 159 717 m 485 233 b 534 372 485 288 501 335 b 667 429 567 410 611 429 b 801 372 724 429 768 410 b 850 233 834 335 850 288 l 850 182 b 802 42 850 126 834 80 b 669 -14 769 5 725 -14 b 534 42 612 -14 567 5 b 485 182 501 80 485 126 l 485 233 m 581 182 b 604 99 581 150 588 122 b 669 65 620 77 641 65 b 733 99 697 65 719 76 b 755 182 748 121 755 149 l 755 233 b 732 316 755 266 747 293 b 667 350 717 339 695 350 b 603 316 639 350 618 339 b 581 233 588 293 581 266 l 581 182 m 220 115 l 627 857 l 696 816 l 290 74 "},"&":{"ha":787,"x_min":0,"x_max":0,"o":"m 43 250 b 84 390 43 303 57 350 b 209 514 112 430 154 472 b 142 628 179 556 156 594 b 120 733 127 662 120 697 b 180 903 120 807 140 864 b 345 963 220 943 275 963 b 495 905 406 963 457 944 b 553 762 533 866 553 818 b 525 652 553 720 544 683 b 444 562 507 622 480 592 l 371 504 l 567 250 l 571 252 b 604 338 585 277 596 306 b 616 440 612 370 616 404 l 732 440 b 709 282 732 383 724 330 b 642 153 694 234 672 191 l 762 0 l 603 0 l 550 68 b 444 7 517 41 481 21 b 325 -14 407 -7 367 -14 b 119 59 238 -14 170 11 b 43 250 68 107 43 171 m 329 87 b 412 103 357 87 385 93 b 489 148 439 113 465 128 l 274 427 l 260 416 b 196 329 229 385 207 356 b 180 253 185 302 180 276 b 219 135 180 205 193 166 b 329 87 246 103 282 87 m 248 735 b 263 666 248 713 253 690 b 307 589 273 643 288 617 l 376 640 b 422 695 398 658 414 676 b 435 758 431 714 435 735 b 410 830 435 786 426 810 b 342 861 393 851 370 861 b 273 824 312 861 289 849 b 248 735 256 800 248 770 "},"'":{"ha":317,"x_min":0,"x_max":0,"o":"m 169 620 l 96 620 l 99 793 l 99 949 l 227 949 l 227 802 "},"(":{"ha":401,"x_min":0,"x_max":0,"o":"m 61 422 b 145 867 61 606 89 754 b 361 1087 201 979 273 1053 l 365 1086 l 389 1017 b 236 811 323 974 272 905 b 183 424 201 718 183 588 l 183 361 b 236 -28 183 196 201 66 b 389 -234 272 -122 323 -191 l 365 -302 l 361 -302 b 145 -82 273 -267 201 -194 b 61 363 89 31 61 179 l 61 422 "},")":{"ha":404,"x_min":0,"x_max":0,"o":"m 338 363 b 254 -80 338 181 310 33 b 39 -302 197 -194 125 -267 l 35 -302 l 9 -234 b 159 -28 74 -191 124 -122 b 212 361 195 66 212 196 l 212 424 b 159 813 212 589 195 719 b 9 1021 124 908 74 977 l 35 1087 l 39 1087 b 254 866 125 1053 197 979 b 338 422 310 752 338 605 l 338 363 "},"*":{"ha":521,"x_min":0,"x_max":0,"o":"m 52 746 l 79 834 l 219 780 l 219 949 l 309 949 l 311 776 l 446 831 l 474 743 l 336 692 l 418 557 l 345 503 l 259 644 l 175 505 l 101 559 l 187 698 "},"+":{"ha":686,"x_min":0,"x_max":0,"o":"m 640 505 l 640 391 l 407 391 l 407 95 l 275 95 l 275 391 l 43 391 l 43 505 l 275 505 l 275 787 l 407 787 l 407 505 "},",":{"ha":331,"x_min":0,"x_max":0,"o":"m 172 -177 l 91 -177 l 94 0 l 94 141 l 229 141 l 229 -5 "},"-":{"ha":519,"x_min":0,"x_max":0,"o":"m 90 418 l 90 519 l 427 519 l 427 418 "},".":{"ha":329,"x_min":0,"x_max":0,"o":"m 90 0 l 90 132 l 227 132 l 227 0 "},"/":{"ha":481,"x_min":0,"x_max":0,"o":"m 4 -81 l 330 949 l 456 949 l 130 -81 "},":":{"ha":315,"x_min":0,"x_max":0,"o":"m 90 0 l 90 132 l 227 132 l 227 0 m 90 514 l 90 646 l 227 646 l 227 514 "},";":{"ha":311,"x_min":0,"x_max":0,"o":"m 90 514 l 90 646 l 227 646 l 227 514 m 172 -177 l 90 -177 l 94 0 l 94 141 l 229 141 l 229 -5 "},"<":{"ha":601,"x_min":0,"x_max":0,"o":"m 141 361 l 141 357 l 183 348 l 519 192 l 519 66 l 39 310 l 39 410 l 519 654 l 519 528 l 183 370 "},"=":{"ha":673,"x_min":0,"x_max":0,"o":"m 84 527 l 84 632 l 580 632 l 580 527 m 84 254 l 84 359 l 580 359 l 580 254 "},">":{"ha":613,"x_min":0,"x_max":0,"o":"m 75 646 l 568 401 l 568 302 l 75 58 l 75 182 l 423 342 l 465 351 l 465 355 l 423 364 l 75 522 "},"?":{"ha":589,"x_min":0,"x_max":0,"o":"m 205 266 b 224 391 206 324 212 366 b 306 490 237 416 264 449 b 385 596 341 529 367 565 b 412 706 403 627 412 664 b 380 818 412 754 401 791 b 286 857 358 844 327 857 b 198 821 251 857 222 845 b 161 719 174 797 162 763 l 32 719 l 31 723 b 100 899 29 798 52 857 b 286 963 148 942 210 963 b 479 895 368 963 433 940 b 548 708 525 849 548 787 b 505 553 548 651 534 599 b 392 418 477 507 439 462 b 350 354 370 396 356 374 b 341 266 344 334 341 304 l 205 266 m 205 0 l 205 130 l 344 130 l 344 0 "},"@":{"ha":1100,"x_min":0,"x_max":0,"o":"m 1040 332 b 966 89 1036 238 1011 157 b 763 -14 920 21 852 -14 b 683 16 732 -14 705 -4 b 637 99 661 36 645 63 b 566 15 617 61 594 33 b 470 -13 539 -4 507 -13 b 347 65 417 -13 376 13 b 315 271 318 117 307 186 b 400 538 325 382 353 472 b 570 639 447 605 503 639 b 674 622 613 639 647 633 b 760 569 700 610 729 592 l 758 567 l 761 567 l 730 191 b 742 89 727 142 731 107 b 785 62 753 71 768 62 b 903 138 834 62 873 87 b 952 332 932 188 949 253 b 867 714 958 496 930 623 b 574 850 804 805 706 850 b 277 703 451 850 352 801 b 155 312 202 604 161 474 b 245 -73 148 151 177 23 b 534 -217 312 -169 408 -217 b 640 -203 569 -217 604 -212 b 731 -168 676 -194 706 -182 l 753 -237 b 652 -280 727 -255 693 -270 b 531 -296 611 -290 570 -296 b 173 -133 376 -296 257 -241 b 58 312 89 -24 50 124 b 208 758 64 496 115 645 b 576 927 302 871 425 927 b 928 768 730 927 847 874 b 1040 332 1009 661 1046 516 m 428 271 b 440 127 423 209 427 161 b 503 75 453 92 474 75 b 573 96 529 75 552 82 b 629 170 594 110 613 134 l 629 181 b 630 191 629 184 630 188 l 659 540 b 626 551 648 545 637 549 b 590 555 615 554 603 555 b 478 485 542 555 505 532 b 428 271 452 437 435 366 "},"A":{"ha":746,"x_min":0,"x_max":0,"o":"m 229 240 l 159 0 l 19 0 l 310 949 l 441 949 l 730 0 l 589 0 l 519 240 m 488 345 l 377 731 l 373 731 l 260 345 "},"B":{"ha":746,"x_min":0,"x_max":0,"o":"m 87 949 l 357 949 b 573 885 449 949 521 928 b 652 694 626 843 652 779 b 618 576 652 649 640 610 b 523 500 595 542 564 517 b 653 421 579 491 623 465 b 698 269 683 378 698 327 b 622 69 698 181 673 115 b 411 0 571 23 501 0 l 87 0 m 222 101 l 411 101 b 524 144 460 101 497 115 b 564 268 550 173 564 214 b 523 395 564 321 550 364 b 408 442 495 426 457 442 l 222 442 m 370 539 b 477 578 416 539 452 552 b 516 691 503 604 516 642 b 475 808 516 743 503 783 b 357 847 448 834 409 847 l 222 847 l 222 539 "},"C":{"ha":750,"x_min":0,"x_max":0,"o":"m 698 291 b 617 68 700 197 673 123 b 391 -14 562 14 486 -14 b 154 86 292 -14 213 20 b 65 361 95 153 65 245 l 65 587 b 153 862 65 703 94 795 b 387 963 211 929 289 963 b 617 884 485 963 562 937 b 698 659 673 831 700 756 l 696 655 l 568 655 b 522 809 568 723 552 775 b 387 861 491 843 446 861 b 250 789 328 861 282 837 b 201 589 217 741 201 674 l 201 361 b 251 159 201 274 217 207 b 391 87 284 111 330 87 b 523 139 449 87 493 105 b 567 295 552 173 567 225 l 696 295 "},"D":{"ha":788,"x_min":0,"x_max":0,"o":"m 90 949 l 366 949 b 621 835 470 949 555 911 b 720 541 687 759 720 661 l 720 407 b 621 114 720 287 687 189 b 366 0 555 38 470 0 l 90 0 m 225 101 l 366 101 b 525 187 432 101 485 130 b 585 407 565 244 585 317 l 585 543 b 525 761 585 631 565 704 b 366 847 485 818 432 847 l 225 847 "},"E":{"ha":652,"x_min":0,"x_max":0,"o":"m 222 441 l 222 101 l 610 101 l 610 0 l 87 0 l 87 949 l 607 949 l 607 847 l 222 847 l 222 543 l 551 543 l 551 441 "},"F":{"ha":652,"x_min":0,"x_max":0,"o":"m 223 422 l 223 0 l 88 0 l 88 949 l 621 949 l 621 847 l 223 847 l 223 523 l 562 523 l 562 422 "},"G":{"ha":793,"x_min":0,"x_max":0,"o":"m 708 128 b 598 30 685 92 649 59 b 404 -14 548 1 483 -14 b 160 84 303 -14 222 19 b 67 353 98 149 67 238 l 67 598 b 157 866 67 712 97 801 b 395 963 217 931 297 963 b 622 885 493 963 568 937 b 699 676 675 832 701 763 l 698 672 l 570 672 b 526 809 570 729 555 775 b 397 861 496 844 453 861 b 255 792 338 861 290 838 b 202 600 220 746 202 682 l 202 353 b 257 157 202 269 220 204 b 404 87 294 111 343 87 b 513 110 449 87 486 95 b 573 163 540 124 560 142 l 573 380 l 395 380 l 395 476 l 708 476 l 708 128 "},"H":{"ha":829,"x_min":0,"x_max":0,"o":"m 604 0 l 604 418 l 225 418 l 225 0 l 90 0 l 90 949 l 225 949 l 225 519 l 604 519 l 604 949 l 739 949 l 739 0 "},"I":{"ha":340,"x_min":0,"x_max":0,"o":"m 102 0 l 102 949 l 238 949 l 238 0 "},"J":{"ha":652,"x_min":0,"x_max":0,"o":"m 563 949 l 563 281 b 490 66 563 191 538 119 b 301 -14 441 13 378 -14 b 105 57 219 -14 153 10 b 35 263 57 105 33 173 l 37 267 l 168 267 b 203 132 168 206 179 161 b 301 87 226 102 259 87 b 391 140 338 87 368 105 b 427 281 415 175 427 222 l 427 949 "},"K":{"ha":746,"x_min":0,"x_max":0,"o":"m 223 427 l 223 0 l 88 0 l 88 949 l 223 949 l 223 533 l 292 533 l 548 949 l 712 949 l 405 504 l 736 0 l 565 0 l 300 427 "},"L":{"ha":652,"x_min":0,"x_max":0,"o":"m 616 101 l 616 0 l 90 0 l 90 949 l 224 949 l 224 101 "},"M":{"ha":985,"x_min":0,"x_max":0,"o":"m 496 176 l 728 949 l 901 949 l 901 0 l 766 0 l 766 684 l 762 684 l 540 0 l 448 0 l 222 699 l 218 698 l 218 0 l 84 0 l 84 949 l 260 949 l 492 176 "},"N":{"ha":829,"x_min":0,"x_max":0,"o":"m 604 0 l 229 699 l 225 699 l 225 0 l 90 0 l 90 949 l 225 949 l 600 250 l 604 251 l 604 949 l 739 949 l 739 0 "},"O":{"ha":806,"x_min":0,"x_max":0,"o":"m 743 363 b 649 87 743 247 711 155 b 400 -14 587 20 504 -14 b 155 87 298 -14 216 20 b 63 363 94 155 63 247 l 63 585 b 154 861 63 701 93 793 b 399 963 215 929 297 963 b 649 861 503 963 586 929 b 743 585 711 793 743 701 l 743 363 m 608 586 b 553 787 608 673 589 740 b 399 859 516 835 465 859 b 251 787 335 859 285 835 b 199 586 216 740 199 673 l 199 363 b 251 161 199 276 216 208 b 400 90 286 113 336 90 b 553 161 466 90 517 113 b 608 363 590 208 608 276 l 608 586 "},"P":{"ha":746,"x_min":0,"x_max":0,"o":"m 222 0 l 87 0 l 87 949 l 403 949 b 618 867 494 949 566 922 b 697 655 671 812 697 741 b 619 443 697 568 671 497 b 403 361 567 389 495 361 l 222 361 m 403 463 b 522 518 455 463 495 482 b 562 654 548 555 562 600 b 522 791 562 708 548 754 b 403 847 495 828 455 847 l 222 847 l 222 463 "},"Q":{"ha":823,"x_min":0,"x_max":0,"o":"m 743 363 b 725 226 743 314 737 268 b 673 117 713 184 695 148 l 793 -14 l 703 -91 l 585 35 b 499 -1 559 19 530 7 b 400 -14 468 -9 435 -14 b 155 87 298 -14 216 20 b 63 363 94 155 63 247 l 63 585 b 154 861 63 701 93 793 b 399 963 215 929 297 963 b 649 861 503 963 586 929 b 743 585 711 793 743 701 l 743 363 m 608 586 b 553 787 608 673 589 740 b 399 859 516 835 465 859 b 251 787 335 859 285 835 b 199 586 216 740 199 673 l 199 363 b 251 161 199 276 216 208 b 400 90 286 113 336 90 b 553 161 466 90 517 113 b 608 363 590 208 608 276 l 608 586 "},"R":{"ha":750,"x_min":0,"x_max":0,"o":"m 224 0 l 88 0 l 88 949 l 380 949 b 596 879 474 949 545 925 b 672 678 647 832 672 765 b 636 549 672 629 660 586 b 534 462 613 512 579 483 b 642 380 584 446 620 418 b 675 239 664 342 675 295 l 675 155 b 684 73 675 125 678 98 b 715 15 689 48 700 29 l 715 0 l 575 0 b 545 65 560 14 550 36 b 538 156 541 95 538 125 l 538 237 b 501 362 538 290 526 332 b 397 409 476 393 441 409 l 224 409 m 374 510 b 497 553 430 510 471 524 b 537 677 524 582 537 623 b 498 802 537 731 524 772 b 380 847 473 832 433 847 l 224 847 l 224 510 "},"S":{"ha":739,"x_min":0,"x_max":0,"o":"m 541 246 b 504 349 541 289 529 323 b 370 422 479 374 434 399 b 166 529 281 449 213 485 b 96 706 119 573 96 632 b 172 891 96 781 121 843 b 375 963 223 939 291 963 b 587 882 464 963 534 936 b 663 680 640 828 665 760 l 662 675 l 532 675 b 489 810 532 731 518 776 b 374 861 461 844 422 861 b 267 818 326 861 291 847 b 231 707 243 789 231 752 b 270 604 231 665 244 631 b 406 528 296 578 341 552 b 607 421 495 501 562 465 b 675 248 653 378 675 320 b 595 58 675 169 649 106 b 385 -14 542 10 471 -14 b 164 61 300 -14 226 11 b 74 274 102 110 72 181 l 75 278 l 205 278 b 256 134 205 213 222 165 b 385 87 290 103 333 87 b 500 131 434 87 472 102 b 541 246 527 161 541 199 "},"T":{"ha":692,"x_min":0,"x_max":0,"o":"m 413 847 l 413 0 l 277 0 l 277 847 l 22 847 l 22 949 l 669 949 l 669 847 "},"U":{"ha":798,"x_min":0,"x_max":0,"o":"m 721 321 b 631 75 721 216 691 134 b 397 -14 571 16 493 -14 b 167 75 303 -14 226 16 b 79 321 108 134 79 216 l 79 949 l 214 949 l 214 321 b 264 149 214 248 230 190 b 397 87 297 108 342 87 b 534 149 454 87 500 108 b 586 321 569 190 586 248 l 586 949 l 721 949 "},"V":{"ha":746,"x_min":0,"x_max":0,"o":"m 370 161 l 374 161 l 388 218 l 590 949 l 734 949 l 438 0 l 307 0 l 11 949 l 155 949 l 356 219 "},"W":{"ha":1028,"x_min":0,"x_max":0,"o":"m 741 276 l 867 949 l 1008 949 l 809 0 l 683 0 l 516 662 l 512 662 l 345 0 l 218 0 l 20 949 l 162 949 l 288 277 l 292 277 l 454 949 l 573 949 l 736 276 "},"X":{"ha":746,"x_min":0,"x_max":0,"o":"m 374 579 l 551 949 l 712 949 l 454 479 l 718 0 l 559 0 l 376 378 l 372 378 l 190 0 l 30 0 l 292 479 l 36 949 l 195 949 l 370 579 "},"Y":{"ha":746,"x_min":0,"x_max":0,"o":"m 374 486 l 576 949 l 727 949 l 438 343 l 438 0 l 302 0 l 302 351 l 16 949 l 167 949 l 370 486 "},"Z":{"ha":664,"x_min":0,"x_max":0,"o":"m 616 101 l 616 0 l 51 0 l 51 82 l 456 847 l 54 847 l 54 949 l 604 949 l 604 870 l 195 101 "},"[":{"ha":333,"x_min":0,"x_max":0,"o":"m 220 990 l 220 -108 l 321 -108 l 321 -208 l 83 -208 l 83 1090 l 321 1090 l 321 990 "},"\\":{"ha":492,"x_min":0,"x_max":0,"o":"m 146 949 l 494 -81 l 362 -81 l 15 949 "},"]":{"ha":333,"x_min":0,"x_max":0,"o":"m 247 1090 l 247 -208 l 8 -208 l 8 -108 l 111 -108 l 111 990 l 8 990 l 8 1090 "},"^":{"ha":506,"x_min":0,"x_max":0,"o":"m 33 475 l 205 949 l 301 949 l 472 475 l 358 475 l 261 764 l 254 798 l 250 798 l 242 764 l 148 475 "},"_":{"ha":666,"x_min":0,"x_max":0,"o":"m 73 -100 l 73 0 l 597 0 l 597 -100 "},"`":{"ha":393,"x_min":0,"x_max":0,"o":"m 199 817 l 45 987 l 46 990 l 203 990 l 317 817 "},"a":{"ha":632,"x_min":0,"x_max":0,"o":"m 437 0 b 425 53 432 18 428 36 b 419 104 422 70 420 87 b 347 20 401 70 377 42 b 243 -14 317 -2 283 -14 b 96 42 180 -14 131 5 b 45 195 62 80 45 131 b 115 353 45 262 68 315 b 313 410 162 391 228 410 l 418 410 l 418 483 b 391 583 418 526 409 559 b 309 619 372 607 345 619 b 232 588 276 619 251 609 b 205 507 214 567 205 540 l 75 507 l 74 511 b 138 656 71 565 93 614 b 317 719 183 698 243 719 b 489 657 389 719 446 698 b 554 481 532 617 554 558 l 554 154 b 559 76 554 127 556 101 b 576 0 563 50 569 25 l 437 0 m 272 89 b 365 121 307 89 338 100 b 418 199 392 143 409 169 l 418 327 l 311 327 b 214 289 269 327 237 314 b 180 195 191 264 180 232 b 204 118 180 163 188 137 b 272 89 220 99 243 89 "},"b":{"ha":667,"x_min":0,"x_max":0,"o":"m 616 331 b 554 80 616 226 596 142 b 376 -14 512 18 453 -14 b 274 12 337 -14 303 -5 b 201 88 245 29 221 55 l 187 0 l 76 0 l 76 1017 l 211 1017 l 211 628 b 280 695 230 657 253 680 b 375 719 307 711 339 719 b 554 617 452 719 512 685 b 616 345 596 549 616 458 l 616 331 m 481 345 b 447 541 481 426 470 491 b 341 614 425 590 389 614 b 261 587 309 614 283 605 b 211 514 240 569 223 545 l 211 184 b 261 114 223 154 240 131 b 342 90 283 98 310 90 b 448 154 391 90 426 111 b 481 331 470 197 481 256 l 481 345 "},"c":{"ha":623,"x_min":0,"x_max":0,"o":"m 328 87 b 412 125 361 87 389 100 b 446 227 435 150 446 184 l 568 227 l 570 222 b 500 55 571 157 548 101 b 328 -14 452 9 394 -14 b 122 86 240 -14 171 20 b 49 340 73 153 49 238 l 49 365 b 122 618 49 467 73 551 b 327 719 171 685 240 719 b 504 647 399 719 458 695 b 570 463 550 599 572 538 l 568 458 l 446 458 b 413 572 446 505 435 543 b 327 616 391 602 362 616 b 219 544 278 616 242 592 b 184 365 196 496 184 436 l 184 340 b 219 159 184 267 196 207 b 328 87 242 111 278 87 "},"d":{"ha":667,"x_min":0,"x_max":0,"o":"m 50 345 b 114 616 50 458 71 548 b 292 719 156 685 215 719 b 383 696 326 719 356 711 b 452 632 409 682 432 660 l 452 1017 l 588 1017 l 588 0 l 476 0 l 462 84 b 389 12 442 52 418 28 b 290 -14 361 -5 328 -14 b 114 80 215 -14 156 18 b 50 331 71 143 50 227 l 50 345 m 186 331 b 219 155 186 257 197 198 b 324 90 242 111 277 90 b 401 113 354 90 380 97 b 452 178 422 128 439 150 l 452 521 b 401 589 439 549 422 572 b 326 614 380 606 354 614 b 220 539 278 614 242 589 b 186 345 197 490 186 425 l 186 331 "},"e":{"ha":618,"x_min":0,"x_max":0,"o":"m 342 -14 b 126 83 250 -14 178 19 b 48 334 74 147 48 231 l 48 364 b 125 619 48 468 74 553 b 326 719 176 686 243 719 b 509 637 405 719 466 692 b 573 412 552 583 573 507 l 573 334 l 183 334 b 224 156 183 261 197 201 b 351 87 251 110 293 87 b 443 103 386 87 417 93 b 518 145 468 113 493 127 l 552 59 b 468 8 532 40 504 23 b 342 -14 431 -6 389 -14 m 326 616 b 231 564 286 616 255 599 b 186 426 207 529 192 483 l 439 426 l 439 442 b 412 569 439 496 430 538 b 326 616 393 601 365 616 "},"f":{"ha":401,"x_min":0,"x_max":0,"o":"m 115 610 l 20 610 l 20 705 l 115 705 l 115 797 b 171 970 115 871 134 929 b 326 1031 208 1010 260 1031 b 368 1027 340 1031 354 1030 b 413 1017 382 1025 397 1021 l 399 920 b 373 924 391 921 383 923 b 342 926 364 926 354 926 b 274 893 312 926 289 915 b 250 797 258 870 250 838 l 250 705 l 379 705 l 379 610 l 250 610 l 250 0 l 115 0 "},"g":{"ha":667,"x_min":0,"x_max":0,"o":"m 54 345 b 117 616 54 458 75 548 b 295 719 159 685 219 719 b 394 692 333 719 365 710 b 466 617 422 675 446 650 l 478 705 l 591 705 l 591 -1 b 517 -211 591 -92 567 -162 b 309 -285 468 -260 399 -285 b 212 -271 279 -285 246 -280 b 117 -234 177 -262 145 -249 l 140 -134 b 219 -166 164 -148 190 -158 b 308 -178 247 -174 277 -178 b 420 -134 359 -178 396 -163 b 456 -1 444 -104 456 -60 l 456 70 b 386 7 437 42 413 21 b 294 -14 359 -7 328 -14 b 117 80 218 -14 159 18 b 54 331 75 143 54 227 l 54 345 m 189 331 b 222 155 189 257 200 198 b 328 90 244 111 280 90 b 406 113 358 90 384 97 b 456 178 427 128 444 150 l 456 520 b 405 589 443 549 426 572 b 329 614 384 606 359 614 b 223 539 281 614 246 589 b 189 345 200 490 189 425 l 189 331 "},"h":{"ha":667,"x_min":0,"x_max":0,"o":"m 209 610 b 284 690 229 645 254 671 b 385 719 314 709 347 719 b 538 649 450 719 501 695 b 593 432 574 602 593 530 l 593 0 l 457 0 l 457 433 b 429 572 457 498 448 544 b 343 614 410 600 381 614 b 263 592 312 614 285 607 b 209 530 240 577 222 557 l 209 0 l 74 0 l 74 1017 l 209 1017 l 209 610 "},"i":{"ha":307,"x_min":0,"x_max":0,"o":"m 86 0 l 86 705 l 221 705 l 221 0 m 86 890 l 86 1017 l 221 1017 l 221 890 "},"j":{"ha":309,"x_min":0,"x_max":0,"o":"m 226 -48 b 172 -223 226 -124 208 -182 b 24 -285 137 -264 87 -285 b -11 -282 12 -285 0 -284 b -47 -273 -22 -280 -34 -277 l -39 -172 b -14 -178 -32 -175 -24 -176 b 12 -180 -5 -180 4 -180 b 70 -148 36 -180 55 -170 b 91 -48 84 -126 91 -93 l 91 705 l 226 705 m 87 893 l 87 1017 l 222 1017 l 222 893 "},"k":{"ha":616,"x_min":0,"x_max":0,"o":"m 212 323 l 212 0 l 77 0 l 77 1017 l 212 1017 l 212 425 l 269 425 l 431 705 l 590 705 l 379 385 l 614 0 l 456 0 l 271 323 "},"l":{"ha":307,"x_min":0,"x_max":0,"o":"m 86 0 l 86 1017 l 221 1017 l 221 0 "},"m":{"ha":1048,"x_min":0,"x_max":0,"o":"m 207 607 b 285 690 227 643 253 670 b 395 719 316 709 353 719 b 504 686 437 719 474 708 b 572 586 534 663 557 630 b 650 684 591 628 617 660 b 766 719 683 707 721 719 b 917 644 830 719 880 694 b 972 416 954 594 972 518 l 972 0 l 837 0 l 837 418 b 807 571 837 491 827 542 b 720 615 787 600 758 615 b 637 581 687 615 659 604 b 590 490 616 558 600 528 l 591 466 b 592 442 592 458 592 450 l 592 0 l 456 0 l 456 417 b 426 569 456 488 446 539 b 338 614 406 599 377 614 b 261 591 308 614 282 607 b 211 525 240 575 223 553 l 211 0 l 76 0 l 76 705 l 199 705 "},"n":{"ha":667,"x_min":0,"x_max":0,"o":"m 208 600 b 284 688 228 638 254 667 b 390 719 315 708 351 719 b 540 650 454 719 504 696 b 593 435 576 604 593 532 l 593 0 l 458 0 l 458 433 b 430 574 458 500 448 547 b 344 614 411 601 382 614 b 264 591 313 614 287 607 b 211 526 242 575 224 554 l 211 0 l 75 0 l 75 705 l 199 705 "},"o":{"ha":667,"x_min":0,"x_max":0,"o":"m 48 361 b 124 618 48 466 73 552 b 332 719 175 685 244 719 b 541 618 420 719 490 685 b 616 361 591 552 616 466 l 616 343 b 541 86 616 238 591 153 b 333 -14 490 20 421 -14 b 124 86 244 -14 175 20 b 48 343 73 153 48 238 l 48 361 m 184 343 b 221 159 184 268 196 207 b 333 87 245 111 283 87 b 444 159 382 87 419 111 b 481 343 469 207 481 269 l 481 361 b 444 544 481 434 469 496 b 332 616 419 592 381 616 b 221 544 282 616 245 592 b 184 361 196 495 184 434 l 184 343 "},"p":{"ha":667,"x_min":0,"x_max":0,"o":"m 616 331 b 552 80 616 227 595 143 b 376 -14 510 18 451 -14 b 281 7 340 -14 308 -7 b 211 69 254 21 230 42 l 211 -271 l 76 -271 l 76 705 l 191 705 l 203 621 b 275 693 222 652 246 676 b 374 719 303 710 336 719 b 552 616 450 719 510 685 b 616 345 595 548 616 458 l 616 331 m 480 345 b 445 539 480 424 468 489 b 338 614 421 589 385 614 b 261 590 307 614 282 606 b 211 523 240 574 223 551 l 211 172 b 261 110 223 145 240 124 b 339 87 282 95 308 87 b 445 154 387 87 422 110 b 480 331 469 198 480 257 l 480 345 "},"q":{"ha":667,"x_min":0,"x_max":0,"o":"m 50 345 b 114 616 50 458 71 548 b 292 719 156 685 215 719 b 388 694 328 719 360 711 b 459 624 415 678 439 655 l 473 705 l 585 705 l 585 -271 l 449 -271 l 449 64 b 380 6 430 39 407 19 b 290 -14 354 -7 324 -14 b 114 80 215 -14 156 18 b 50 331 71 143 50 227 l 50 345 m 186 331 b 219 154 186 257 197 198 b 324 87 242 110 277 87 b 398 109 353 87 378 95 b 449 169 419 123 436 143 l 449 531 b 398 594 436 558 419 579 b 326 616 378 609 354 616 b 220 541 278 616 243 591 b 186 345 197 490 186 425 l 186 331 "},"r":{"ha":415,"x_min":0,"x_max":0,"o":"m 325 597 b 254 572 297 597 273 589 b 211 501 235 555 221 531 l 211 0 l 76 0 l 76 705 l 200 705 l 208 596 b 269 686 223 635 243 665 b 356 719 294 708 323 719 b 379 716 365 719 372 718 b 399 711 386 715 393 713 l 384 594 "},"s":{"ha":600,"x_min":0,"x_max":0,"o":"m 421 178 b 393 247 421 205 412 228 b 287 309 375 265 339 286 b 120 398 213 336 157 366 b 64 522 83 430 64 472 b 131 661 64 576 87 623 b 306 719 176 700 234 719 b 484 656 380 719 439 698 b 549 503 529 614 551 563 l 548 499 l 418 499 b 388 585 418 532 408 561 b 306 622 367 610 340 622 b 225 593 271 622 245 612 b 196 527 206 574 196 552 b 221 464 196 500 204 479 b 328 404 237 448 273 429 b 498 314 403 378 460 348 b 555 184 536 280 555 236 b 486 42 555 126 532 79 b 304 -14 439 5 379 -14 b 115 53 224 -14 161 9 b 49 208 68 97 47 149 l 51 212 l 176 212 b 215 113 177 166 191 134 b 307 83 240 93 270 83 b 391 110 343 83 371 92 b 421 178 411 127 421 150 "},"t":{"ha":412,"x_min":0,"x_max":0,"o":"m 243 705 l 378 705 l 378 610 l 243 610 l 243 200 b 260 115 243 160 249 131 b 306 90 271 98 286 90 b 337 92 317 90 327 90 b 368 100 348 94 358 97 l 388 9 b 336 -7 373 3 356 -3 b 277 -14 316 -11 297 -14 b 153 42 224 -14 183 5 b 109 215 124 79 109 137 l 109 610 l 18 610 l 18 705 l 109 705 l 109 881 l 243 881 "},"u":{"ha":667,"x_min":0,"x_max":0,"o":"m 460 101 b 387 16 441 64 416 36 b 283 -14 357 -4 322 -14 b 129 61 217 -14 166 11 b 73 294 91 111 73 189 l 73 705 l 208 705 l 208 293 b 235 135 208 217 217 165 b 316 90 253 105 280 90 b 401 114 350 90 378 98 b 456 182 425 130 443 153 l 456 705 l 591 705 l 591 0 l 467 0 l 460 101 "},"v":{"ha":597,"x_min":0,"x_max":0,"o":"m 299 156 l 303 156 l 315 212 l 440 705 l 580 705 l 361 0 l 241 0 l 20 705 l 161 705 l 288 212 "},"w":{"ha":879,"x_min":0,"x_max":0,"o":"m 621 237 l 713 705 l 850 705 l 683 0 l 571 0 l 439 444 l 435 444 l 304 0 l 193 0 l 25 705 l 162 705 l 257 242 l 261 242 l 391 705 l 484 705 l 616 236 "},"x":{"ha":597,"x_min":0,"x_max":0,"o":"m 299 449 l 415 705 l 570 705 l 375 357 l 576 0 l 422 0 l 300 265 l 296 265 l 176 0 l 21 0 l 222 357 l 27 705 l 181 705 l 295 449 "},"y":{"ha":597,"x_min":0,"x_max":0,"o":"m 291 195 l 295 195 l 437 705 l 585 705 l 328 -109 b 259 -233 312 -158 288 -199 b 133 -285 230 -268 188 -285 b 96 -281 121 -285 109 -284 b 59 -273 84 -279 71 -276 l 74 -175 b 96 -178 81 -176 88 -177 b 115 -179 104 -179 110 -179 b 178 -146 141 -179 162 -168 b 214 -68 193 -124 205 -98 l 239 4 l 12 705 l 159 705 l 281 243 "},"z":{"ha":597,"x_min":0,"x_max":0,"o":"m 553 101 l 553 0 l 51 0 l 51 84 l 383 603 l 58 603 l 58 705 l 538 705 l 538 623 l 203 101 "},"{":{"ha":396,"x_min":0,"x_max":0,"o":"m 350 -246 b 193 -133 276 -222 224 -184 b 146 56 161 -81 146 -18 l 146 194 b 118 308 146 243 137 281 b 35 349 100 335 72 349 l 35 444 b 118 485 72 444 100 458 b 146 598 137 511 146 549 l 146 738 b 193 927 146 812 161 875 b 350 1042 224 980 276 1018 l 377 966 b 297 884 340 951 313 924 b 273 738 281 844 273 796 l 273 598 b 246 477 273 552 264 512 b 165 397 228 442 201 415 b 245 315 201 378 227 351 b 273 194 264 280 273 240 l 273 56 b 296 -90 273 -2 281 -51 b 377 -172 312 -128 339 -156 l 350 -246 "},"|":{"ha":295,"x_min":0,"x_max":0,"o":"m 86 -176 l 86 949 l 203 949 l 203 -176 "},"}":{"ha":396,"x_min":0,"x_max":0,"o":"m 18 -172 b 98 -89 55 -156 82 -128 b 123 56 115 -50 123 -2 l 123 194 b 150 316 123 241 132 281 b 235 396 169 351 197 378 b 150 475 197 414 169 440 b 123 598 132 510 123 551 l 123 738 b 98 884 123 796 115 844 b 18 966 82 924 55 951 l 45 1042 b 202 927 118 1018 170 980 b 249 738 233 875 249 812 l 249 598 b 276 485 249 549 258 511 b 361 444 294 458 322 444 l 361 349 b 276 308 322 349 294 335 b 249 194 258 281 249 243 l 249 56 b 202 -133 249 -18 233 -81 b 45 -246 170 -184 118 -222 l 18 -172 "},"~":{"ha":783,"x_min":0,"x_max":0,"o":"m 712 486 b 662 328 712 425 695 372 b 537 262 629 284 587 262 b 446 284 504 262 474 270 b 357 355 418 299 389 323 b 300 403 336 376 317 392 b 248 418 284 413 266 418 b 190 382 225 418 206 406 b 166 290 174 357 166 327 l 71 304 b 119 460 71 365 87 417 b 244 524 151 502 193 524 b 335 500 276 524 307 516 b 425 431 364 485 394 462 b 480 383 445 409 463 393 b 532 368 496 373 514 368 b 591 406 555 368 575 381 b 616 499 608 432 616 463 l 712 486 "}," ":{"ha":299,"x_min":0,"x_max":0,"o":""},"¡":{"ha":314,"x_min":0,"x_max":0,"o":"m 72 389 l 72 -244 l 208 -244 l 208 389 m 71 705 l 71 567 l 208 567 l 208 705 "},"¢":{"ha":663,"x_min":0,"x_max":0,"o":"m 328 87 b 412 125 361 87 389 100 b 446 227 435 150 446 184 l 574 227 b 523 79 574 171 557 122 b 393 -5 488 37 445 9 l 393 -160 l 286 -160 l 286 -10 b 111 103 210 1 152 38 b 49 340 70 167 49 246 l 49 365 b 111 601 49 458 70 536 b 286 715 153 666 211 704 l 286 859 l 393 859 l 393 711 b 524 622 448 697 491 667 b 574 458 557 577 574 523 l 446 458 b 413 572 446 505 435 543 b 327 616 391 602 362 616 b 219 544 278 616 242 592 b 184 365 196 496 184 436 l 184 340 b 219 159 184 267 196 207 b 328 87 242 111 278 87 "},"£":{"ha":693,"x_min":0,"x_max":0,"o":"m 284 311 b 268 196 284 271 279 233 b 222 101 257 159 242 128 l 648 101 l 647 0 l 85 0 l 85 101 l 92 101 b 134 175 110 107 124 131 b 148 309 143 218 148 262 l 144 402 l 49 402 l 49 504 l 142 504 l 136 675 b 202 886 136 765 158 835 b 380 963 247 937 306 963 b 561 893 458 963 518 940 b 623 709 604 847 625 786 l 621 705 l 491 705 b 460 823 491 759 481 798 b 380 861 439 848 412 861 b 300 812 346 861 319 844 b 271 675 281 780 271 734 l 277 504 l 500 504 l 500 402 l 281 402 "},"¤":{"ha":867,"x_min":0,"x_max":0,"o":"m 655 73 b 553 9 624 46 590 24 b 435 -13 515 -5 476 -13 b 318 9 395 -13 356 -6 b 216 73 281 24 247 45 l 136 -17 l 58 60 l 145 157 b 96 269 124 191 108 228 b 79 397 85 309 79 352 b 98 528 79 442 85 486 b 150 644 110 570 127 609 l 58 746 l 136 824 l 223 726 b 322 784 253 751 287 771 b 435 805 358 798 396 805 b 548 784 475 805 512 798 b 648 726 584 771 617 751 l 736 825 l 815 746 l 721 642 b 772 527 743 607 760 569 b 791 397 785 486 791 442 b 774 271 791 353 785 311 b 726 159 762 230 747 193 l 815 60 l 736 -18 l 655 73 m 181 397 b 255 178 181 311 206 238 b 435 87 305 118 365 87 b 614 178 505 87 565 118 b 688 397 664 238 688 311 b 614 614 688 482 664 554 b 435 703 565 673 505 703 b 255 613 365 703 305 673 b 181 397 206 553 181 481 "},"¥":{"ha":718,"x_min":0,"x_max":0,"o":"m 359 536 l 545 949 l 696 949 l 458 473 l 627 473 l 627 393 l 422 393 l 422 284 l 627 284 l 627 205 l 422 205 l 422 0 l 288 0 l 288 205 l 81 205 l 81 284 l 288 284 l 288 393 l 81 393 l 81 473 l 256 473 l 18 949 l 170 949 l 355 536 "},"¦":{"ha":292,"x_min":0,"x_max":0,"o":"m 81 335 l 208 335 l 208 -176 l 81 -176 m 81 455 l 81 949 l 208 949 l 208 455 "},"§":{"ha":732,"x_min":0,"x_max":0,"o":"m 667 290 b 637 184 667 249 657 214 b 555 113 618 154 590 130 b 623 35 585 91 608 65 b 646 -77 639 4 646 -33 b 569 -252 646 -151 620 -210 b 359 -315 517 -294 447 -315 b 143 -249 273 -315 201 -293 b 59 -41 85 -205 57 -136 l 60 -37 l 190 -35 b 239 -171 190 -98 206 -143 b 359 -214 272 -199 312 -214 b 471 -176 407 -214 444 -201 b 511 -78 498 -150 511 -118 b 473 13 511 -39 499 -9 b 328 84 447 35 399 58 b 123 184 235 111 167 145 b 57 356 79 224 57 281 b 85 461 57 396 66 431 b 167 532 104 491 131 515 b 100 611 137 554 115 580 b 77 724 85 642 77 679 b 156 897 77 795 103 853 b 366 963 208 941 278 963 b 577 890 456 963 526 939 b 650 687 628 842 652 774 l 649 683 l 519 683 b 478 810 519 734 505 776 b 366 861 451 844 413 861 b 251 823 314 861 276 848 b 212 725 225 797 212 765 b 248 629 212 682 224 650 b 395 559 272 607 321 584 b 602 458 489 531 558 497 b 667 290 645 420 667 364 m 345 454 b 301 468 329 459 314 463 b 263 482 287 472 275 477 b 210 436 239 473 221 457 b 193 362 198 415 193 391 b 228 263 193 318 204 285 b 377 191 252 241 302 217 l 417 178 l 456 163 b 512 210 480 173 499 189 b 532 283 526 231 532 255 b 493 379 532 323 519 355 b 345 454 466 402 417 428 "},"¨":{"ha":646,"x_min":0,"x_max":0,"o":"m 397 829 l 397 949 l 542 949 l 542 829 m 96 829 l 96 949 l 241 949 l 241 829 "},"©":{"ha":968,"x_min":0,"x_max":0,"o":"m 668 385 b 618 235 669 319 653 269 b 473 184 584 201 535 184 b 323 253 410 184 360 207 b 267 436 286 299 267 360 l 267 514 b 323 696 267 589 286 650 b 473 766 360 743 411 766 b 618 714 535 766 584 749 b 669 566 653 680 670 630 l 667 562 l 585 562 b 557 659 585 605 576 638 b 473 690 538 679 510 690 b 384 641 434 690 405 674 b 353 515 363 609 353 567 l 353 436 b 384 308 353 383 363 340 b 473 259 405 275 434 259 b 557 290 510 259 538 269 b 585 389 575 310 585 343 l 666 389 m 125 475 b 229 178 125 358 160 259 b 481 57 298 97 382 57 b 733 178 579 57 663 97 b 837 475 802 259 837 358 b 733 771 837 592 802 690 b 481 891 663 851 579 891 b 229 771 382 891 298 851 b 125 475 160 690 125 592 m 57 475 b 180 822 57 612 98 728 b 481 962 263 915 363 962 b 781 822 598 962 699 915 b 905 475 864 728 905 612 b 781 128 905 338 864 222 b 481 -14 699 34 598 -14 b 180 128 363 -14 263 34 b 57 475 98 222 57 338 "},"ª":{"ha":526,"x_min":0,"x_max":0,"o":"m 353 460 b 345 491 349 470 347 480 b 340 526 343 502 341 514 b 289 472 328 503 311 485 b 212 451 268 458 242 451 b 107 491 167 451 132 464 b 70 600 82 518 70 554 b 118 709 70 647 86 683 b 257 747 150 734 196 747 l 339 747 l 339 784 b 321 855 339 815 333 838 b 269 880 310 871 292 880 b 208 860 243 880 223 873 b 186 803 194 846 186 827 l 98 810 l 96 814 b 141 921 94 857 109 892 b 269 963 174 949 216 963 b 390 917 320 963 360 948 b 434 783 419 886 434 842 l 434 578 b 437 516 434 556 435 536 b 449 460 440 497 444 479 l 353 460 m 235 532 b 298 553 256 532 276 539 b 339 602 319 568 333 584 l 339 680 l 258 680 b 189 657 228 680 205 673 b 165 602 173 642 165 623 b 182 550 165 580 171 562 b 235 532 194 538 212 532 "},"«":{"ha":573,"x_min":0,"x_max":0,"o":"m 97 306 l 132 282 l 268 152 l 268 33 l 264 32 l 47 258 l 47 356 l 264 583 l 268 582 l 268 463 l 132 329 m 320 306 l 355 282 l 491 152 l 491 33 l 487 32 l 270 258 l 270 356 l 487 583 l 491 582 l 491 463 l 355 329 "},"¬":{"ha":652,"x_min":0,"x_max":0,"o":"m 442 247 l 442 423 l 75 423 l 75 517 l 551 517 l 551 247 "},"­":{"ha":519,"x_min":0,"x_max":0,"o":"m 90 418 l 90 519 l 427 519 l 427 418 "},"®":{"ha":969,"x_min":0,"x_max":0,"o":"m 56 475 b 180 822 56 612 97 728 b 481 962 262 915 362 962 b 781 822 598 962 698 915 b 905 475 863 728 905 612 b 781 128 905 338 863 222 b 481 -14 698 34 598 -14 b 180 128 363 -14 263 34 b 56 475 98 222 56 338 m 125 475 b 229 178 125 358 159 259 b 481 57 298 97 382 57 b 732 178 579 57 663 97 b 836 475 801 259 836 358 b 732 771 836 592 801 690 b 481 891 663 851 579 891 b 229 771 382 891 298 851 b 125 475 159 690 125 592 m 393 206 l 309 206 l 309 760 l 474 760 b 614 718 534 760 581 746 b 665 593 648 689 665 648 b 646 522 665 566 659 543 b 588 471 633 502 613 485 b 645 419 614 460 633 443 b 663 336 657 396 663 368 l 663 299 b 665 251 663 281 663 264 b 673 216 666 237 669 225 l 673 206 l 587 206 b 580 246 583 216 581 229 b 578 300 579 263 578 281 l 578 335 b 558 408 578 368 572 392 b 490 431 545 423 522 431 l 393 431 m 481 506 b 553 529 510 506 534 514 b 582 591 572 544 582 565 b 558 663 582 625 574 649 b 474 684 542 677 514 684 l 393 684 l 393 506 "},"¯":{"ha":587,"x_min":0,"x_max":0,"o":"m 74 863 l 74 956 l 514 956 l 514 863 "},"°":{"ha":472,"x_min":0,"x_max":0,"o":"m 81 793 b 126 912 81 839 96 879 b 237 963 157 946 194 963 b 346 912 279 963 316 946 b 392 793 377 879 392 839 b 347 674 392 746 377 706 b 237 625 316 641 280 625 b 126 674 194 625 157 641 b 81 793 96 706 81 746 m 159 793 b 181 729 159 767 166 746 b 237 703 197 712 215 703 b 291 729 259 703 277 712 b 313 793 306 746 313 767 b 291 858 313 819 306 840 b 237 884 277 876 259 884 b 181 858 215 884 197 876 b 159 793 166 840 159 819 "},"±":{"ha":661,"x_min":0,"x_max":0,"o":"m 605 568 l 605 465 l 397 465 l 397 196 l 275 196 l 275 465 l 58 465 l 58 568 l 275 568 l 275 833 l 397 833 l 397 568 m 71 3 l 71 105 l 548 105 l 548 3 "},"²":{"ha":497,"x_min":0,"x_max":0,"o":"m 70 435 l 70 514 l 245 688 b 294 753 270 715 286 736 b 306 807 302 769 306 788 b 290 862 306 830 301 848 b 243 884 280 877 264 884 b 188 861 219 884 201 876 b 169 802 175 845 169 826 l 69 802 l 68 806 b 114 918 66 849 81 886 b 244 964 146 949 190 964 b 367 923 297 964 338 951 b 411 806 396 895 411 857 b 381 714 411 772 401 741 b 287 611 362 687 330 653 l 205 517 l 206 514 l 415 514 l 415 435 "},"³":{"ha":498,"x_min":0,"x_max":0,"o":"m 240 736 b 296 756 265 736 284 743 b 315 811 309 769 315 787 b 296 863 315 832 308 849 b 240 883 283 876 264 883 b 189 865 219 883 202 877 b 170 818 177 853 170 837 l 71 818 l 70 822 b 115 924 67 864 82 898 b 239 964 148 951 189 964 b 371 925 294 964 339 951 b 420 815 404 899 420 863 b 399 748 420 791 413 768 b 342 701 385 728 366 713 b 406 655 370 691 391 676 b 428 578 421 634 428 609 b 377 467 428 531 411 493 b 241 427 343 440 298 427 b 111 465 189 427 146 439 b 62 576 76 491 60 528 l 64 581 l 163 581 b 184 527 163 558 170 540 b 241 506 198 513 217 506 b 300 526 266 506 286 513 b 323 581 315 540 323 558 b 302 643 323 609 316 629 b 240 663 288 656 267 663 l 170 663 l 170 736 l 240 736 "},"´":{"ha":408,"x_min":0,"x_max":0,"o":"m 348 990 l 350 986 l 189 817 l 75 817 l 192 990 "},"µ":{"ha":699,"x_min":0,"x_max":0,"o":"m 222 297 b 251 132 222 217 232 162 b 337 88 271 103 300 88 b 420 112 371 88 399 96 b 470 181 442 128 458 151 l 470 705 l 606 705 l 606 0 l 482 0 l 477 59 b 417 5 460 35 440 17 b 337 -14 393 -7 367 -14 b 273 -3 314 -14 292 -10 b 222 28 254 3 237 14 l 222 -271 l 86 -271 l 86 705 l 222 705 "},"¶":{"ha":599,"x_min":0,"x_max":0,"o":"m 370 339 l 320 339 b 113 424 231 339 163 367 b 39 644 64 480 39 553 b 113 864 39 734 64 808 b 320 949 163 921 231 949 l 505 949 l 505 0 l 370 0 "},"·":{"ha":335,"x_min":0,"x_max":0,"o":"m 94 395 l 94 535 l 232 535 l 232 395 "},"¸":{"ha":307,"x_min":0,"x_max":0,"o":"m 176 -36 b 239 -69 201 -40 222 -52 b 264 -149 255 -87 264 -113 b 215 -251 264 -191 248 -225 b 76 -288 182 -276 136 -288 l 72 -215 b 130 -198 96 -215 115 -209 b 153 -148 145 -187 153 -170 b 133 -103 153 -127 146 -112 b 64 -86 119 -94 97 -89 l 83 1 l 182 1 "},"¹":{"ha":326,"x_min":0,"x_max":0,"o":"m 125 433 l 125 867 l 52 865 l 52 948 l 231 963 l 231 433 "},"º":{"ha":539,"x_min":0,"x_max":0,"o":"m 72 745 b 125 902 72 809 90 861 b 267 963 160 943 208 963 b 411 902 327 963 375 943 b 464 745 446 862 464 809 l 464 669 b 411 511 464 604 446 551 b 269 450 376 470 328 450 b 125 511 208 450 161 471 b 72 669 90 551 72 604 l 72 745 m 167 669 b 193 569 167 627 175 594 b 269 532 210 544 235 532 b 343 569 301 532 326 544 b 370 669 361 594 370 628 l 370 745 b 343 842 370 784 361 817 b 267 880 326 867 300 880 b 192 842 234 880 209 867 b 167 745 175 817 167 784 l 167 669 "},"»":{"ha":573,"x_min":0,"x_max":0,"o":"m 98 602 l 102 603 l 319 376 l 319 278 l 102 52 l 98 53 l 98 172 l 234 304 l 270 328 l 234 352 l 98 482 m 328 602 l 332 603 l 549 376 l 549 278 l 332 52 l 328 53 l 328 172 l 464 304 l 500 328 l 464 352 l 328 482 "},"¼":{"ha":836,"x_min":0,"x_max":0,"o":"m 184 433 l 184 867 l 111 865 l 111 947 l 290 962 l 290 433 m 214 120 l 621 862 l 690 821 l 283 79 m 931 180 l 931 100 l 865 100 l 865 0 l 759 0 l 759 100 l 522 100 l 516 163 l 759 522 l 865 522 l 865 180 m 759 180 l 759 389 l 755 390 l 747 378 l 626 180 "},"½":{"ha":928,"x_min":0,"x_max":0,"o":"m 222 120 l 629 862 l 699 821 l 292 79 m 184 433 l 184 867 l 111 865 l 111 947 l 290 962 l 290 433 m 609 0 l 609 79 l 785 254 b 833 318 809 280 825 301 b 845 372 841 335 845 353 b 829 428 845 395 840 413 b 782 449 819 442 803 449 b 727 426 758 449 740 441 b 708 367 714 411 708 391 l 608 367 l 607 371 b 653 483 605 414 620 452 b 783 530 686 514 729 530 b 906 488 836 530 877 516 b 950 372 935 461 950 422 b 921 279 950 337 940 307 b 826 176 901 252 869 218 l 744 83 l 745 79 l 954 79 l 954 0 "},"¾":{"ha":1001,"x_min":0,"x_max":0,"o":"m 336 120 l 743 862 l 812 821 l 405 79 m 1050 180 l 1050 100 l 984 100 l 984 0 l 878 0 l 878 100 l 642 100 l 635 163 l 878 522 l 984 522 l 984 180 m 878 180 l 878 389 l 874 390 l 867 378 l 745 180 m 251 737 b 307 756 276 737 295 744 b 326 812 319 769 326 788 b 307 863 326 833 319 850 b 251 884 294 877 275 884 b 200 866 230 884 213 878 b 181 819 187 854 181 838 l 82 819 l 81 823 b 126 925 78 865 93 899 b 250 964 159 951 200 964 b 382 926 305 964 349 951 b 431 816 415 900 431 863 b 410 749 431 791 424 769 b 353 702 396 729 377 713 b 417 656 381 692 402 677 b 439 579 431 635 439 609 b 388 467 439 531 422 494 b 252 427 354 441 309 427 b 122 466 200 427 157 440 b 73 577 87 492 71 529 l 75 581 l 174 581 b 195 527 174 559 181 541 b 252 507 209 513 228 507 b 311 527 276 507 296 513 b 334 582 326 541 334 559 b 313 643 334 609 327 630 b 251 663 299 657 278 663 l 181 663 l 181 737 l 251 737 "},"¿":{"ha":589,"x_min":0,"x_max":0,"o":"m 461 440 b 442 315 461 382 454 340 b 361 216 430 290 403 257 b 281 110 326 177 300 141 b 254 0 263 79 254 42 b 287 -112 254 -48 265 -85 b 380 -151 309 -138 340 -151 b 469 -115 415 -151 445 -139 b 505 -13 493 -91 505 -57 l 635 -13 l 636 -17 b 566 -193 637 -92 614 -151 b 380 -257 518 -236 456 -257 b 188 -189 298 -257 234 -234 b 119 -2 142 -143 119 -81 b 161 153 119 55 133 107 b 275 288 190 199 228 244 b 317 352 297 310 311 332 b 326 440 323 372 326 402 l 461 440 m 462 706 l 462 576 l 323 576 l 323 706 "},"À":{"ha":746,"x_min":0,"x_max":0,"o":"m 229 240 l 159 0 l 19 0 l 310 949 l 441 949 l 730 0 l 589 0 l 519 240 m 488 345 l 377 731 l 373 731 l 260 345 m 320 1044 l 165 1214 l 167 1217 l 323 1217 l 437 1044 "},"Á":{"ha":746,"x_min":0,"x_max":0,"o":"m 229 240 l 159 0 l 19 0 l 310 949 l 441 949 l 730 0 l 589 0 l 519 240 m 488 345 l 377 731 l 373 731 l 260 345 m 580 1216 l 582 1212 l 420 1042 l 307 1042 l 424 1216 "},"Â":{"ha":746,"x_min":0,"x_max":0,"o":"m 229 240 l 159 0 l 19 0 l 310 949 l 441 949 l 730 0 l 589 0 l 519 240 m 488 345 l 377 731 l 373 731 l 260 345 m 592 1043 l 474 1043 l 373 1151 l 271 1043 l 153 1043 l 152 1047 l 320 1208 l 426 1208 l 593 1047 "},"Ã":{"ha":746,"x_min":0,"x_max":0,"o":"m 229 240 l 159 0 l 19 0 l 310 949 l 441 949 l 730 0 l 589 0 l 519 240 m 488 345 l 377 731 l 373 731 l 260 345 m 578 1198 b 545 1097 578 1158 567 1124 b 460 1056 522 1070 494 1056 b 372 1088 433 1056 403 1067 b 295 1120 340 1109 314 1120 b 257 1098 280 1120 267 1112 b 241 1044 247 1083 241 1066 l 168 1063 b 201 1164 168 1102 179 1136 b 286 1206 223 1192 252 1206 b 369 1175 307 1206 335 1196 b 451 1143 403 1153 431 1143 b 489 1164 465 1143 478 1150 b 505 1219 500 1179 505 1197 l 578 1198 "},"Ä":{"ha":746,"x_min":0,"x_max":0,"o":"m 229 240 l 159 0 l 19 0 l 310 949 l 441 949 l 730 0 l 589 0 l 519 240 m 488 345 l 377 731 l 373 731 l 260 345 m 452 1044 l 452 1164 l 596 1164 l 596 1044 m 150 1044 l 150 1164 l 295 1164 l 295 1044 "},"Å":{"ha":746,"x_min":0,"x_max":0,"o":"m 229 240 l 159 0 l 19 0 l 310 949 l 441 949 l 730 0 l 589 0 l 519 240 m 488 345 l 377 731 l 373 731 l 260 345 m 262 1133 b 294 1211 262 1164 273 1190 b 373 1243 315 1232 342 1243 b 451 1211 404 1243 430 1232 b 484 1133 473 1190 484 1164 b 451 1056 484 1102 473 1076 b 373 1026 430 1036 404 1026 b 294 1056 342 1026 315 1036 b 262 1133 273 1076 262 1102 m 323 1133 b 338 1097 323 1118 328 1106 b 373 1082 347 1087 359 1082 b 408 1097 387 1082 398 1087 b 422 1133 417 1106 422 1118 b 408 1171 422 1148 417 1161 b 373 1186 398 1181 387 1186 b 338 1171 359 1186 347 1181 b 323 1133 328 1161 323 1148 "},"Æ":{"ha":1126,"x_min":0,"x_max":0,"o":"m 575 0 l 566 235 l 283 235 l 172 0 l 12 0 l 487 949 l 1048 949 l 1048 847 l 680 847 l 691 543 l 1001 543 l 1001 441 l 694 441 l 707 102 l 1082 102 l 1082 0 m 562 347 l 545 781 l 542 783 l 336 347 "},"Ç":{"ha":750,"x_min":0,"x_max":0,"o":"m 698 291 b 617 68 700 197 673 123 b 391 -14 562 14 486 -14 b 154 86 292 -14 213 20 b 65 361 95 153 65 245 l 65 587 b 153 862 65 703 94 795 b 387 963 211 929 289 963 b 617 884 485 963 562 937 b 698 659 673 831 700 756 l 696 655 l 568 655 b 522 809 568 723 552 775 b 387 861 491 843 446 861 b 250 789 328 861 282 837 b 201 589 217 741 201 674 l 201 361 b 251 159 201 274 217 207 b 391 87 284 111 330 87 b 523 139 449 87 493 105 b 567 295 552 173 567 225 l 696 295 m 433 -40 b 496 -73 458 -45 479 -56 b 521 -153 512 -91 521 -117 b 472 -255 521 -196 505 -230 b 333 -292 439 -280 393 -292 l 329 -219 b 387 -202 353 -219 372 -214 b 410 -152 402 -191 410 -175 b 390 -107 410 -131 403 -116 b 321 -90 376 -99 354 -93 l 340 -3 l 439 -3 "},"È":{"ha":652,"x_min":0,"x_max":0,"o":"m 222 441 l 222 101 l 610 101 l 610 0 l 87 0 l 87 949 l 607 949 l 607 847 l 222 847 l 222 543 l 551 543 l 551 441 m 294 1044 l 140 1214 l 141 1217 l 298 1217 l 412 1044 "},"É":{"ha":652,"x_min":0,"x_max":0,"o":"m 222 441 l 222 101 l 610 101 l 610 0 l 87 0 l 87 949 l 607 949 l 607 847 l 222 847 l 222 543 l 551 543 l 551 441 m 554 1216 l 556 1212 l 395 1042 l 281 1042 l 398 1216 "},"Ê":{"ha":652,"x_min":0,"x_max":0,"o":"m 222 441 l 222 101 l 610 101 l 610 0 l 87 0 l 87 949 l 607 949 l 607 847 l 222 847 l 222 543 l 551 543 l 551 441 m 566 1043 l 448 1043 l 347 1151 l 245 1043 l 127 1043 l 126 1047 l 294 1208 l 400 1208 l 568 1047 "},"Ë":{"ha":652,"x_min":0,"x_max":0,"o":"m 222 441 l 222 101 l 610 101 l 610 0 l 87 0 l 87 949 l 607 949 l 607 847 l 222 847 l 222 543 l 551 543 l 551 441 m 426 1044 l 426 1164 l 570 1164 l 570 1044 m 124 1044 l 124 1164 l 269 1164 l 269 1044 "},"Ì":{"ha":340,"x_min":0,"x_max":0,"o":"m 102 0 l 102 949 l 238 949 l 238 0 m 117 1044 l -37 1214 l -36 1217 l 121 1217 l 235 1044 "},"Í":{"ha":340,"x_min":0,"x_max":0,"o":"m 102 0 l 102 949 l 238 949 l 238 0 m 376 1216 l 378 1212 l 217 1042 l 104 1042 l 220 1216 "},"Î":{"ha":340,"x_min":0,"x_max":0,"o":"m 102 0 l 102 949 l 238 949 l 238 0 m 389 1043 l 271 1043 l 170 1151 l 68 1043 l -50 1043 l -51 1047 l 117 1208 l 223 1208 l 391 1047 "},"Ï":{"ha":340,"x_min":0,"x_max":0,"o":"m 102 0 l 102 949 l 238 949 l 238 0 m 249 1044 l 249 1164 l 393 1164 l 393 1044 m -53 1044 l -53 1164 l 92 1164 l 92 1044 "},"Ð":{"ha":788,"x_min":0,"x_max":0,"o":"m 90 438 l 14 438 l 14 531 l 90 531 l 90 949 l 366 949 b 621 835 470 949 555 911 b 720 541 687 759 720 661 l 720 407 b 621 114 720 287 687 189 b 366 0 555 38 470 0 l 90 0 m 225 438 l 225 101 l 366 101 b 525 187 432 101 485 130 b 585 407 565 244 585 317 l 585 543 b 525 761 585 631 565 704 b 366 847 485 818 432 847 l 225 847 l 225 531 l 410 531 l 410 438 "},"Ñ":{"ha":829,"x_min":0,"x_max":0,"o":"m 604 0 l 229 699 l 225 699 l 225 0 l 90 0 l 90 949 l 225 949 l 600 250 l 604 251 l 604 949 l 739 949 l 739 0 m 619 1198 b 585 1097 619 1158 608 1124 b 500 1056 563 1070 534 1056 b 412 1088 473 1056 444 1067 b 336 1120 381 1109 355 1120 b 297 1098 320 1120 308 1112 b 282 1044 287 1083 282 1066 l 208 1063 b 242 1164 208 1102 219 1136 b 327 1206 264 1192 293 1206 b 410 1175 348 1206 376 1196 b 492 1143 444 1153 471 1143 b 530 1164 506 1143 519 1150 b 546 1219 541 1179 546 1197 l 619 1198 "},"Ò":{"ha":806,"x_min":0,"x_max":0,"o":"m 743 363 b 649 87 743 247 711 155 b 400 -14 587 20 504 -14 b 155 87 298 -14 216 20 b 63 363 94 155 63 247 l 63 585 b 154 861 63 701 93 793 b 399 963 215 929 297 963 b 649 861 503 963 586 929 b 743 585 711 793 743 701 l 743 363 m 608 586 b 553 787 608 673 589 740 b 399 859 516 835 465 859 b 251 787 335 859 285 835 b 199 586 216 740 199 673 l 199 363 b 251 161 199 276 216 208 b 400 90 286 113 336 90 b 553 161 466 90 517 113 b 608 363 590 208 608 276 l 608 586 m 350 1057 l 195 1227 l 197 1231 l 353 1231 l 467 1057 "},"Ó":{"ha":806,"x_min":0,"x_max":0,"o":"m 743 363 b 649 87 743 247 711 155 b 400 -14 587 20 504 -14 b 155 87 298 -14 216 20 b 63 363 94 155 63 247 l 63 585 b 154 861 63 701 93 793 b 399 963 215 929 297 963 b 649 861 503 963 586 929 b 743 585 711 793 743 701 l 743 363 m 608 586 b 553 787 608 673 589 740 b 399 859 516 835 465 859 b 251 787 335 859 285 835 b 199 586 216 740 199 673 l 199 363 b 251 161 199 276 216 208 b 400 90 286 113 336 90 b 553 161 466 90 517 113 b 608 363 590 208 608 276 l 608 586 m 610 1230 l 612 1225 l 450 1056 l 337 1056 l 454 1230 "},"Ô":{"ha":806,"x_min":0,"x_max":0,"o":"m 743 363 b 649 87 743 247 711 155 b 400 -14 587 20 504 -14 b 155 87 298 -14 216 20 b 63 363 94 155 63 247 l 63 585 b 154 861 63 701 93 793 b 399 963 215 929 297 963 b 649 861 503 963 586 929 b 743 585 711 793 743 701 l 743 363 m 608 586 b 553 787 608 673 589 740 b 399 859 516 835 465 859 b 251 787 335 859 285 835 b 199 586 216 740 199 673 l 199 363 b 251 161 199 276 216 208 b 400 90 286 113 336 90 b 553 161 466 90 517 113 b 608 363 590 208 608 276 l 608 586 m 622 1057 l 504 1057 l 403 1164 l 300 1057 l 183 1057 l 182 1061 l 350 1221 l 456 1221 l 623 1061 "},"Õ":{"ha":806,"x_min":0,"x_max":0,"o":"m 743 363 b 649 87 743 247 711 155 b 400 -14 587 20 504 -14 b 155 87 298 -14 216 20 b 63 363 94 155 63 247 l 63 585 b 154 861 63 701 93 793 b 399 963 215 929 297 963 b 649 861 503 963 586 929 b 743 585 711 793 743 701 l 743 363 m 608 586 b 553 787 608 673 589 740 b 399 859 516 835 465 859 b 251 787 335 859 285 835 b 199 586 216 740 199 673 l 199 363 b 251 161 199 276 216 208 b 400 90 286 113 336 90 b 553 161 466 90 517 113 b 608 363 590 208 608 276 l 608 586 m 608 1212 b 574 1111 608 1172 597 1138 b 490 1069 552 1083 524 1069 b 401 1101 463 1069 433 1080 b 325 1133 370 1123 344 1133 b 287 1112 309 1133 297 1126 b 271 1058 276 1097 271 1079 l 197 1076 b 231 1178 197 1116 209 1149 b 316 1220 253 1206 282 1220 b 399 1188 337 1220 365 1209 b 481 1156 433 1167 460 1156 b 519 1178 495 1156 508 1164 b 535 1232 530 1192 535 1211 l 608 1212 "},"Ö":{"ha":806,"x_min":0,"x_max":0,"o":"m 743 363 b 649 87 743 247 711 155 b 400 -14 587 20 504 -14 b 155 87 298 -14 216 20 b 63 363 94 155 63 247 l 63 585 b 154 861 63 701 93 793 b 399 963 215 929 297 963 b 649 861 503 963 586 929 b 743 585 711 793 743 701 l 743 363 m 608 586 b 553 787 608 673 589 740 b 399 859 516 835 465 859 b 251 787 335 859 285 835 b 199 586 216 740 199 673 l 199 363 b 251 161 199 276 216 208 b 400 90 286 113 336 90 b 553 161 466 90 517 113 b 608 363 590 208 608 276 l 608 586 m 481 1058 l 481 1178 l 626 1178 l 626 1058 m 180 1058 l 180 1178 l 325 1178 l 325 1058 "},"×":{"ha":655,"x_min":0,"x_max":0,"o":"m 248 444 l 50 664 l 134 742 l 324 530 l 515 742 l 598 664 l 401 445 l 600 224 l 516 146 l 323 359 l 132 146 l 49 224 "},"Ø":{"ha":802,"x_min":0,"x_max":0,"o":"m 739 363 b 646 87 739 247 708 155 b 397 -14 583 20 500 -14 b 303 -3 363 -14 332 -10 b 222 30 274 5 247 15 l 176 -59 l 96 -59 l 165 74 b 87 197 131 107 105 148 b 60 363 69 246 60 302 l 60 585 b 151 861 60 701 90 793 b 395 963 212 929 293 963 b 504 948 434 963 470 958 b 596 904 538 938 569 923 l 640 987 l 720 987 l 651 854 b 716 736 680 821 701 782 b 739 585 732 691 739 640 l 739 363 m 195 363 b 203 271 195 329 198 298 b 226 201 208 243 216 220 l 230 200 l 541 798 b 477 843 523 817 502 833 b 395 859 453 853 426 859 b 247 787 331 859 282 835 b 195 586 213 740 195 673 l 195 363 m 604 586 b 599 659 604 612 602 636 b 584 717 595 681 590 701 l 581 718 l 275 131 b 330 100 291 117 309 106 b 397 90 350 93 372 90 b 550 161 463 90 514 113 b 604 363 586 208 604 276 l 604 586 "},"Ù":{"ha":798,"x_min":0,"x_max":0,"o":"m 721 321 b 631 75 721 216 691 134 b 397 -14 571 16 493 -14 b 167 75 303 -14 226 16 b 79 321 108 134 79 216 l 79 949 l 214 949 l 214 321 b 264 149 214 248 230 190 b 397 87 297 108 342 87 b 534 149 454 87 500 108 b 586 321 569 190 586 248 l 586 949 l 721 949 m 347 1044 l 193 1214 l 194 1217 l 351 1217 l 465 1044 "},"Ú":{"ha":798,"x_min":0,"x_max":0,"o":"m 721 321 b 631 75 721 216 691 134 b 397 -14 571 16 493 -14 b 167 75 303 -14 226 16 b 79 321 108 134 79 216 l 79 949 l 214 949 l 214 321 b 264 149 214 248 230 190 b 397 87 297 108 342 87 b 534 149 454 87 500 108 b 586 321 569 190 586 248 l 586 949 l 721 949 m 607 1216 l 609 1212 l 448 1042 l 334 1042 l 451 1216 "},"Û":{"ha":798,"x_min":0,"x_max":0,"o":"m 721 321 b 631 75 721 216 691 134 b 397 -14 571 16 493 -14 b 167 75 303 -14 226 16 b 79 321 108 134 79 216 l 79 949 l 214 949 l 214 321 b 264 149 214 248 230 190 b 397 87 297 108 342 87 b 534 149 454 87 500 108 b 586 321 569 190 586 248 l 586 949 l 721 949 m 619 1043 l 501 1043 l 400 1151 l 298 1043 l 180 1043 l 179 1047 l 347 1208 l 453 1208 l 621 1047 "},"Ü":{"ha":798,"x_min":0,"x_max":0,"o":"m 721 321 b 631 75 721 216 691 134 b 397 -14 571 16 493 -14 b 167 75 303 -14 226 16 b 79 321 108 134 79 216 l 79 949 l 214 949 l 214 321 b 264 149 214 248 230 190 b 397 87 297 108 342 87 b 534 149 454 87 500 108 b 586 321 569 190 586 248 l 586 949 l 721 949 m 479 1044 l 479 1164 l 623 1164 l 623 1044 m 177 1044 l 177 1164 l 322 1164 l 322 1044 "},"Ý":{"ha":746,"x_min":0,"x_max":0,"o":"m 374 486 l 576 949 l 727 949 l 438 343 l 438 0 l 302 0 l 302 351 l 16 949 l 167 949 l 370 486 m 581 1216 l 583 1212 l 421 1042 l 308 1042 l 425 1216 "},"Þ":{"ha":707,"x_min":0,"x_max":0,"o":"m 222 760 l 367 760 b 583 682 459 760 531 734 b 660 481 634 631 660 564 b 583 279 660 398 634 330 b 367 202 531 228 459 202 l 222 202 l 222 0 l 87 0 l 87 949 l 222 949 m 222 303 l 367 303 b 485 354 419 303 459 320 b 524 480 511 388 524 430 b 485 607 524 530 511 572 b 367 659 459 641 419 659 l 222 659 "},"ß":{"ha":709,"x_min":0,"x_max":0,"o":"m 81 0 l 81 719 b 148 932 81 811 103 882 b 333 1006 192 982 253 1006 b 518 941 407 1006 469 984 b 593 758 568 897 593 836 b 550 652 573 720 559 685 b 536 555 541 619 536 587 b 601 395 536 522 558 468 b 666 209 644 321 666 260 b 606 43 666 136 646 80 b 442 -14 565 5 511 -14 b 342 2 409 -14 376 -8 b 269 41 308 12 283 25 l 307 133 b 360 101 320 121 338 111 b 427 87 382 92 404 87 b 504 123 461 87 487 99 b 530 217 522 146 530 178 b 466 376 530 250 509 303 b 401 557 423 450 401 510 b 416 668 401 596 406 633 b 460 774 426 704 441 739 b 422 865 460 808 447 839 b 339 905 397 891 369 905 b 250 856 302 905 272 888 b 216 718 228 823 216 777 l 216 0 "},"à":{"ha":632,"x_min":0,"x_max":0,"o":"m 437 0 b 425 53 432 18 428 36 b 419 104 422 70 420 87 b 347 20 401 70 377 42 b 243 -14 317 -2 283 -14 b 96 42 180 -14 131 5 b 45 195 62 80 45 131 b 115 353 45 262 68 315 b 313 410 162 391 228 410 l 418 410 l 418 483 b 391 583 418 526 409 559 b 309 619 372 607 345 619 b 232 588 276 619 251 609 b 205 507 214 567 205 540 l 75 507 l 74 511 b 138 656 71 565 93 614 b 317 719 183 698 243 719 b 489 657 389 719 446 698 b 554 481 532 617 554 558 l 554 154 b 559 76 554 127 556 101 b 576 0 563 50 569 25 l 437 0 m 272 89 b 365 121 307 89 338 100 b 418 199 392 143 409 169 l 418 327 l 311 327 b 214 289 269 327 237 314 b 180 195 191 264 180 232 b 204 118 180 163 188 137 b 272 89 220 99 243 89 m 256 833 l 102 1004 l 103 1007 l 260 1007 l 374 833 "},"á":{"ha":632,"x_min":0,"x_max":0,"o":"m 437 0 b 425 53 432 18 428 36 b 419 104 422 70 420 87 b 347 20 401 70 377 42 b 243 -14 317 -2 283 -14 b 96 42 180 -14 131 5 b 45 195 62 80 45 131 b 115 353 45 262 68 315 b 313 410 162 391 228 410 l 418 410 l 418 483 b 391 583 418 526 409 559 b 309 619 372 607 345 619 b 232 588 276 619 251 609 b 205 507 214 567 205 540 l 75 507 l 74 511 b 138 656 71 565 93 614 b 317 719 183 698 243 719 b 489 657 389 719 446 698 b 554 481 532 617 554 558 l 554 154 b 559 76 554 127 556 101 b 576 0 563 50 569 25 l 437 0 m 272 89 b 365 121 307 89 338 100 b 418 199 392 143 409 169 l 418 327 l 311 327 b 214 289 269 327 237 314 b 180 195 191 264 180 232 b 204 118 180 163 188 137 b 272 89 220 99 243 89 m 516 1006 l 518 1002 l 357 832 l 243 832 l 360 1006 "},"â":{"ha":632,"x_min":0,"x_max":0,"o":"m 437 0 b 425 53 432 18 428 36 b 419 104 422 70 420 87 b 347 20 401 70 377 42 b 243 -14 317 -2 283 -14 b 96 42 180 -14 131 5 b 45 195 62 80 45 131 b 115 353 45 262 68 315 b 313 410 162 391 228 410 l 418 410 l 418 483 b 391 583 418 526 409 559 b 309 619 372 607 345 619 b 232 588 276 619 251 609 b 205 507 214 567 205 540 l 75 507 l 74 511 b 138 656 71 565 93 614 b 317 719 183 698 243 719 b 489 657 389 719 446 698 b 554 481 532 617 554 558 l 554 154 b 559 76 554 127 556 101 b 576 0 563 50 569 25 l 437 0 m 272 89 b 365 121 307 89 338 100 b 418 199 392 143 409 169 l 418 327 l 311 327 b 214 289 269 327 237 314 b 180 195 191 264 180 232 b 204 118 180 163 188 137 b 272 89 220 99 243 89 m 528 833 l 410 833 l 309 941 l 207 833 l 90 833 l 88 837 l 256 998 l 362 998 l 530 837 "},"ã":{"ha":632,"x_min":0,"x_max":0,"o":"m 437 0 b 425 53 432 18 428 36 b 419 104 422 70 420 87 b 347 20 401 70 377 42 b 243 -14 317 -2 283 -14 b 96 42 180 -14 131 5 b 45 195 62 80 45 131 b 115 353 45 262 68 315 b 313 410 162 391 228 410 l 418 410 l 418 483 b 391 583 418 526 409 559 b 309 619 372 607 345 619 b 232 588 276 619 251 609 b 205 507 214 567 205 540 l 75 507 l 74 511 b 138 656 71 565 93 614 b 317 719 183 698 243 719 b 489 657 389 719 446 698 b 554 481 532 617 554 558 l 554 154 b 559 76 554 127 556 101 b 576 0 563 50 569 25 l 437 0 m 272 89 b 365 121 307 89 338 100 b 418 199 392 143 409 169 l 418 327 l 311 327 b 214 289 269 327 237 314 b 180 195 191 264 180 232 b 204 118 180 163 188 137 b 272 89 220 99 243 89 m 515 988 b 481 887 515 948 503 914 b 396 846 458 859 430 846 b 308 878 369 846 340 856 b 231 909 276 899 251 909 b 193 888 216 909 203 902 b 178 834 183 873 178 855 l 104 852 b 137 954 104 892 115 926 b 222 996 160 982 188 996 b 306 964 244 996 271 986 b 387 932 340 943 367 932 b 425 954 402 932 414 940 b 441 1008 436 969 441 987 l 515 988 "},"ä":{"ha":632,"x_min":0,"x_max":0,"o":"m 437 0 b 425 53 432 18 428 36 b 419 104 422 70 420 87 b 347 20 401 70 377 42 b 243 -14 317 -2 283 -14 b 96 42 180 -14 131 5 b 45 195 62 80 45 131 b 115 353 45 262 68 315 b 313 410 162 391 228 410 l 418 410 l 418 483 b 391 583 418 526 409 559 b 309 619 372 607 345 619 b 232 588 276 619 251 609 b 205 507 214 567 205 540 l 75 507 l 74 511 b 138 656 71 565 93 614 b 317 719 183 698 243 719 b 489 657 389 719 446 698 b 554 481 532 617 554 558 l 554 154 b 559 76 554 127 556 101 b 576 0 563 50 569 25 l 437 0 m 272 89 b 365 121 307 89 338 100 b 418 199 392 143 409 169 l 418 327 l 311 327 b 214 289 269 327 237 314 b 180 195 191 264 180 232 b 204 118 180 163 188 137 b 272 89 220 99 243 89 m 389 834 l 389 954 l 533 954 l 533 834 m 87 834 l 87 954 l 232 954 l 232 834 "},"å":{"ha":632,"x_min":0,"x_max":0,"o":"m 437 0 b 425 53 432 18 428 36 b 419 104 422 70 420 87 b 347 20 401 70 377 42 b 243 -14 317 -2 283 -14 b 96 42 180 -14 131 5 b 45 195 62 80 45 131 b 115 353 45 262 68 315 b 313 410 162 391 228 410 l 418 410 l 418 483 b 391 583 418 526 409 559 b 309 619 372 607 345 619 b 232 588 276 619 251 609 b 205 507 214 567 205 540 l 75 507 l 74 511 b 138 656 71 565 93 614 b 317 719 183 698 243 719 b 489 657 389 719 446 698 b 554 481 532 617 554 558 l 554 154 b 559 76 554 127 556 101 b 576 0 563 50 569 25 l 437 0 m 272 89 b 365 121 307 89 338 100 b 418 199 392 143 409 169 l 418 327 l 311 327 b 214 289 269 327 237 314 b 180 195 191 264 180 232 b 204 118 180 163 188 137 b 272 89 220 99 243 89 m 198 923 b 230 1001 198 954 209 980 b 309 1033 252 1022 278 1033 b 388 1001 340 1033 366 1022 b 420 923 409 980 420 954 b 388 846 420 892 409 866 b 309 816 366 826 340 816 b 230 846 278 816 252 826 b 198 923 209 866 198 892 m 260 923 b 274 886 260 908 264 896 b 309 872 283 877 295 872 b 344 886 323 872 334 877 b 358 923 353 896 358 908 b 344 961 358 938 353 950 b 309 976 334 971 323 976 b 274 961 295 976 283 971 b 260 923 264 950 260 938 "},"æ":{"ha":1023,"x_min":0,"x_max":0,"o":"m 738 -14 b 604 16 687 -14 643 -4 b 508 100 565 36 533 64 b 414 19 485 68 454 41 b 268 -14 373 -3 325 -14 b 108 43 199 -14 145 5 b 52 198 71 81 52 132 b 121 354 52 265 75 317 b 322 410 167 391 234 410 l 441 410 l 441 467 b 414 577 441 514 432 550 b 337 616 396 603 371 616 b 251 581 301 616 272 605 b 219 494 230 558 219 529 l 90 504 l 89 508 b 154 659 87 569 108 619 b 338 719 200 699 261 719 b 449 697 379 719 416 712 b 530 633 481 682 508 661 b 613 696 553 660 581 682 b 720 719 645 711 681 719 b 907 635 800 719 863 691 b 975 406 952 579 975 502 l 975 326 l 579 326 b 621 153 580 254 594 197 b 747 87 648 109 690 87 b 842 105 785 87 817 93 b 922 155 868 116 895 133 l 962 68 b 870 12 939 47 909 28 b 738 -14 832 -5 788 -14 m 294 83 b 376 109 321 83 348 92 b 441 168 404 126 425 146 l 441 320 l 323 320 b 223 284 280 320 247 308 b 187 195 199 260 187 230 b 214 114 187 161 196 134 b 294 83 232 93 259 83 m 720 616 b 623 562 678 616 646 598 b 581 416 600 525 586 477 l 841 416 l 841 436 b 811 567 841 490 831 533 b 720 616 791 600 760 616 "},"ç":{"ha":623,"x_min":0,"x_max":0,"o":"m 328 87 b 412 125 361 87 389 100 b 446 227 435 150 446 184 l 568 227 l 570 222 b 500 55 571 157 548 101 b 328 -14 452 9 394 -14 b 122 86 240 -14 171 20 b 49 340 73 153 49 238 l 49 365 b 122 618 49 467 73 551 b 327 719 171 685 240 719 b 504 647 399 719 458 695 b 570 463 550 599 572 538 l 568 458 l 446 458 b 413 572 446 505 435 543 b 327 616 391 602 362 616 b 219 544 278 616 242 592 b 184 365 196 496 184 436 l 184 340 b 219 159 184 267 196 207 b 328 87 242 111 278 87 m 363 -40 b 427 -73 389 -45 410 -56 b 452 -153 443 -91 452 -117 b 403 -255 452 -196 435 -230 b 264 -292 370 -280 324 -292 l 260 -219 b 318 -202 284 -219 303 -214 b 340 -152 333 -191 340 -175 b 320 -107 340 -131 334 -116 b 252 -90 307 -99 284 -93 l 271 -3 l 370 -3 "},"è":{"ha":618,"x_min":0,"x_max":0,"o":"m 342 -14 b 126 83 250 -14 178 19 b 48 334 74 147 48 231 l 48 364 b 125 619 48 468 74 553 b 326 719 176 686 243 719 b 509 637 405 719 466 692 b 573 412 552 583 573 507 l 573 334 l 183 334 b 224 156 183 261 197 201 b 351 87 251 110 293 87 b 443 103 386 87 417 93 b 518 145 468 113 493 127 l 552 59 b 468 8 532 40 504 23 b 342 -14 431 -6 389 -14 m 326 616 b 231 564 286 616 255 599 b 186 426 207 529 192 483 l 439 426 l 439 442 b 412 569 439 496 430 538 b 326 616 393 601 365 616 m 262 833 l 107 1004 l 109 1007 l 265 1007 l 379 833 "},"é":{"ha":618,"x_min":0,"x_max":0,"o":"m 342 -14 b 126 83 250 -14 178 19 b 48 334 74 147 48 231 l 48 364 b 125 619 48 468 74 553 b 326 719 176 686 243 719 b 509 637 405 719 466 692 b 573 412 552 583 573 507 l 573 334 l 183 334 b 224 156 183 261 197 201 b 351 87 251 110 293 87 b 443 103 386 87 417 93 b 518 145 468 113 493 127 l 552 59 b 468 8 532 40 504 23 b 342 -14 431 -6 389 -14 m 326 616 b 231 564 286 616 255 599 b 186 426 207 529 192 483 l 439 426 l 439 442 b 412 569 439 496 430 538 b 326 616 393 601 365 616 m 522 1006 l 524 1002 l 362 832 l 249 832 l 366 1006 "},"ê":{"ha":618,"x_min":0,"x_max":0,"o":"m 342 -14 b 126 83 250 -14 178 19 b 48 334 74 147 48 231 l 48 364 b 125 619 48 468 74 553 b 326 719 176 686 243 719 b 509 637 405 719 466 692 b 573 412 552 583 573 507 l 573 334 l 183 334 b 224 156 183 261 197 201 b 351 87 251 110 293 87 b 443 103 386 87 417 93 b 518 145 468 113 493 127 l 552 59 b 468 8 532 40 504 23 b 342 -14 431 -6 389 -14 m 326 616 b 231 564 286 616 255 599 b 186 426 207 529 192 483 l 439 426 l 439 442 b 412 569 439 496 430 538 b 326 616 393 601 365 616 m 534 833 l 416 833 l 315 941 l 212 833 l 95 833 l 94 837 l 262 998 l 368 998 l 535 837 "},"ë":{"ha":618,"x_min":0,"x_max":0,"o":"m 342 -14 b 126 83 250 -14 178 19 b 48 334 74 147 48 231 l 48 364 b 125 619 48 468 74 553 b 326 719 176 686 243 719 b 509 637 405 719 466 692 b 573 412 552 583 573 507 l 573 334 l 183 334 b 224 156 183 261 197 201 b 351 87 251 110 293 87 b 443 103 386 87 417 93 b 518 145 468 113 493 127 l 552 59 b 468 8 532 40 504 23 b 342 -14 431 -6 389 -14 m 326 616 b 231 564 286 616 255 599 b 186 426 207 529 192 483 l 439 426 l 439 442 b 412 569 439 496 430 538 b 326 616 393 601 365 616 m 394 834 l 394 954 l 538 954 l 538 834 m 92 834 l 92 954 l 237 954 l 237 834 "},"ì":{"ha":310,"x_min":0,"x_max":0,"o":"m 85 0 l 85 705 l 220 705 l 220 0 m 100 820 l -54 990 l -53 994 l 104 994 l 218 820 "},"í":{"ha":310,"x_min":0,"x_max":0,"o":"m 85 0 l 85 705 l 220 705 l 220 0 m 359 992 l 361 988 l 200 819 l 87 819 l 203 992 "},"î":{"ha":310,"x_min":0,"x_max":0,"o":"m 85 0 l 85 705 l 220 705 l 220 0 m 372 819 l 254 819 l 153 927 l 51 819 l -66 819 l -68 823 l 100 984 l 206 984 l 374 823 "},"ï":{"ha":310,"x_min":0,"x_max":0,"o":"m 85 0 l 85 705 l 220 705 l 220 0 m 232 821 l 232 941 l 376 941 l 376 821 m -70 821 l -70 941 l 75 941 l 75 821 "},"ð":{"ha":697,"x_min":0,"x_max":0,"o":"m 508 849 b 601 690 548 804 579 751 b 633 490 623 630 633 563 l 633 351 b 548 88 633 243 605 156 b 333 -14 490 20 419 -14 b 121 77 247 -14 176 17 b 39 301 66 137 39 212 b 116 541 39 401 64 481 b 319 631 167 601 235 631 b 415 611 353 631 385 624 b 490 555 445 597 470 578 l 492 557 b 463 682 488 603 478 645 b 402 781 447 719 427 752 l 243 678 l 201 740 l 345 832 b 294 862 328 843 311 853 b 240 886 277 871 259 879 l 282 989 b 372 952 313 980 343 967 b 452 901 401 938 427 921 l 576 981 l 618 920 l 508 849 m 336 88 b 453 162 384 88 423 113 b 498 351 483 211 498 274 l 498 443 b 435 507 484 468 463 489 b 333 532 407 524 373 532 b 216 467 284 532 245 510 b 174 301 188 423 174 368 b 218 152 174 244 188 194 b 336 88 247 109 286 88 "},"ñ":{"ha":667,"x_min":0,"x_max":0,"o":"m 208 600 b 284 688 228 638 254 667 b 390 719 315 708 351 719 b 540 650 454 719 504 696 b 593 435 576 604 593 532 l 593 0 l 458 0 l 458 433 b 430 574 458 500 448 547 b 344 614 411 601 382 614 b 264 591 313 614 287 607 b 211 526 242 575 224 554 l 211 0 l 75 0 l 75 705 l 199 705 m 538 988 b 504 887 538 948 526 914 b 419 846 481 859 453 846 b 331 878 392 846 363 856 b 254 909 299 899 274 909 b 216 888 239 909 226 902 b 201 834 206 873 201 855 l 127 852 b 160 954 127 892 138 926 b 245 996 183 982 211 996 b 329 964 267 996 294 986 b 410 932 363 943 390 932 b 448 954 425 932 437 940 b 465 1008 459 969 465 987 l 538 988 "},"ò":{"ha":667,"x_min":0,"x_max":0,"o":"m 48 361 b 124 618 48 466 73 552 b 332 719 175 685 244 719 b 541 618 420 719 490 685 b 616 361 591 552 616 466 l 616 343 b 541 86 616 238 591 153 b 333 -14 490 20 421 -14 b 124 86 244 -14 175 20 b 48 343 73 153 48 238 l 48 361 m 184 343 b 221 159 184 268 196 207 b 333 87 245 111 283 87 b 444 159 382 87 419 111 b 481 343 469 207 481 269 l 481 361 b 444 544 481 434 469 496 b 332 616 419 592 381 616 b 221 544 282 616 245 592 b 184 361 196 495 184 434 l 184 343 m 279 833 l 125 1004 l 126 1007 l 283 1007 l 397 833 "},"ó":{"ha":667,"x_min":0,"x_max":0,"o":"m 48 361 b 124 618 48 466 73 552 b 332 719 175 685 244 719 b 541 618 420 719 490 685 b 616 361 591 552 616 466 l 616 343 b 541 86 616 238 591 153 b 333 -14 490 20 421 -14 b 124 86 244 -14 175 20 b 48 343 73 153 48 238 l 48 361 m 184 343 b 221 159 184 268 196 207 b 333 87 245 111 283 87 b 444 159 382 87 419 111 b 481 343 469 207 481 269 l 481 361 b 444 544 481 434 469 496 b 332 616 419 592 381 616 b 221 544 282 616 245 592 b 184 361 196 495 184 434 l 184 343 m 539 1006 l 541 1002 l 380 832 l 267 832 l 383 1006 "},"ô":{"ha":667,"x_min":0,"x_max":0,"o":"m 48 361 b 124 618 48 466 73 552 b 332 719 175 685 244 719 b 541 618 420 719 490 685 b 616 361 591 552 616 466 l 616 343 b 541 86 616 238 591 153 b 333 -14 490 20 421 -14 b 124 86 244 -14 175 20 b 48 343 73 153 48 238 l 48 361 m 184 343 b 221 159 184 268 196 207 b 333 87 245 111 283 87 b 444 159 382 87 419 111 b 481 343 469 207 481 269 l 481 361 b 444 544 481 434 469 496 b 332 616 419 592 381 616 b 221 544 282 616 245 592 b 184 361 196 495 184 434 l 184 343 m 551 833 l 433 833 l 332 941 l 230 833 l 113 833 l 111 837 l 279 998 l 385 998 l 553 837 "},"õ":{"ha":667,"x_min":0,"x_max":0,"o":"m 48 361 b 124 618 48 466 73 552 b 332 719 175 685 244 719 b 541 618 420 719 490 685 b 616 361 591 552 616 466 l 616 343 b 541 86 616 238 591 153 b 333 -14 490 20 421 -14 b 124 86 244 -14 175 20 b 48 343 73 153 48 238 l 48 361 m 184 343 b 221 159 184 268 196 207 b 333 87 245 111 283 87 b 444 159 382 87 419 111 b 481 343 469 207 481 269 l 481 361 b 444 544 481 434 469 496 b 332 616 419 592 381 616 b 221 544 282 616 245 592 b 184 361 196 495 184 434 l 184 343 m 538 988 b 504 887 538 948 526 914 b 419 846 481 859 453 846 b 331 878 392 846 363 856 b 254 909 299 899 274 909 b 216 888 239 909 226 902 b 201 834 206 873 201 855 l 127 852 b 160 954 127 892 138 926 b 245 996 183 982 211 996 b 329 964 267 996 294 986 b 410 932 363 943 390 932 b 448 954 425 932 437 940 b 465 1008 459 969 465 987 l 538 988 "},"ö":{"ha":667,"x_min":0,"x_max":0,"o":"m 48 361 b 124 618 48 466 73 552 b 332 719 175 685 244 719 b 541 618 420 719 490 685 b 616 361 591 552 616 466 l 616 343 b 541 86 616 238 591 153 b 333 -14 490 20 421 -14 b 124 86 244 -14 175 20 b 48 343 73 153 48 238 l 48 361 m 184 343 b 221 159 184 268 196 207 b 333 87 245 111 283 87 b 444 159 382 87 419 111 b 481 343 469 207 481 269 l 481 361 b 444 544 481 434 469 496 b 332 616 419 592 381 616 b 221 544 282 616 245 592 b 184 361 196 495 184 434 l 184 343 m 411 834 l 411 954 l 555 954 l 555 834 m 109 834 l 109 954 l 254 954 l 254 834 "},"÷":{"ha":673,"x_min":0,"x_max":0,"o":"m 41 396 l 41 509 l 621 509 l 621 396 m 262 649 l 262 776 l 400 776 l 400 649 m 262 122 l 262 250 l 400 250 l 400 122 "},"ø":{"ha":694,"x_min":0,"x_max":0,"o":"m 48 361 b 124 618 48 466 73 552 b 332 719 175 685 244 719 b 397 711 355 719 377 716 b 457 689 418 706 438 699 l 500 791 l 581 791 l 518 644 b 591 522 550 612 574 571 b 616 361 608 473 616 420 l 616 343 b 541 86 616 238 591 153 b 333 -14 490 20 421 -14 b 286 -9 317 -14 301 -12 b 241 1 270 -7 255 -3 l 202 -90 l 121 -90 l 176 36 b 81 161 135 66 103 108 b 48 343 59 215 48 275 l 48 361 m 184 343 b 194 236 184 304 187 269 b 224 158 200 203 210 177 l 228 157 l 412 585 b 375 608 401 595 389 603 b 332 616 362 614 347 616 b 221 544 282 616 245 592 b 184 361 196 495 184 434 l 184 343 m 481 361 b 476 438 481 387 480 413 b 460 500 472 462 467 483 l 456 501 l 283 98 b 306 90 290 94 298 91 b 333 87 315 88 323 87 b 444 159 382 87 419 111 b 481 343 469 207 481 269 l 481 361 "},"ù":{"ha":667,"x_min":0,"x_max":0,"o":"m 460 101 b 387 16 441 64 416 36 b 283 -14 357 -4 322 -14 b 129 61 217 -14 166 11 b 73 294 91 111 73 189 l 73 705 l 208 705 l 208 293 b 235 135 208 217 217 165 b 316 90 253 105 280 90 b 401 114 350 90 378 98 b 456 182 425 130 443 153 l 456 705 l 591 705 l 591 0 l 467 0 l 460 101 m 279 820 l 124 990 l 125 994 l 282 994 l 396 820 "},"ú":{"ha":667,"x_min":0,"x_max":0,"o":"m 460 101 b 387 16 441 64 416 36 b 283 -14 357 -4 322 -14 b 129 61 217 -14 166 11 b 73 294 91 111 73 189 l 73 705 l 208 705 l 208 293 b 235 135 208 217 217 165 b 316 90 253 105 280 90 b 401 114 350 90 378 98 b 456 182 425 130 443 153 l 456 705 l 591 705 l 591 0 l 467 0 l 460 101 m 538 992 l 541 988 l 379 819 l 266 819 l 382 992 "},"û":{"ha":667,"x_min":0,"x_max":0,"o":"m 460 101 b 387 16 441 64 416 36 b 283 -14 357 -4 322 -14 b 129 61 217 -14 166 11 b 73 294 91 111 73 189 l 73 705 l 208 705 l 208 293 b 235 135 208 217 217 165 b 316 90 253 105 280 90 b 401 114 350 90 378 98 b 456 182 425 130 443 153 l 456 705 l 591 705 l 591 0 l 467 0 l 460 101 m 551 819 l 433 819 l 332 927 l 229 819 l 112 819 l 111 823 l 279 984 l 385 984 l 552 823 "},"ü":{"ha":667,"x_min":0,"x_max":0,"o":"m 460 101 b 387 16 441 64 416 36 b 283 -14 357 -4 322 -14 b 129 61 217 -14 166 11 b 73 294 91 111 73 189 l 73 705 l 208 705 l 208 293 b 235 135 208 217 217 165 b 316 90 253 105 280 90 b 401 114 350 90 378 98 b 456 182 425 130 443 153 l 456 705 l 591 705 l 591 0 l 467 0 l 460 101 m 410 821 l 410 941 l 555 941 l 555 821 m 109 821 l 109 941 l 254 941 l 254 821 "},"ý":{"ha":597,"x_min":0,"x_max":0,"o":"m 291 195 l 295 195 l 437 705 l 585 705 l 328 -109 b 259 -233 312 -158 288 -199 b 133 -285 230 -268 188 -285 b 96 -281 121 -285 109 -284 b 59 -273 84 -279 71 -276 l 74 -175 b 96 -178 81 -176 88 -177 b 115 -179 104 -179 110 -179 b 178 -146 141 -179 162 -168 b 214 -68 193 -124 205 -98 l 239 4 l 12 705 l 159 705 l 281 243 m 505 992 l 507 988 l 345 819 l 232 819 l 349 992 "},"þ":{"ha":674,"x_min":0,"x_max":0,"o":"m 623 331 b 559 80 623 227 601 143 b 382 -14 517 18 458 -14 b 288 7 347 -14 315 -7 b 218 69 261 21 237 42 l 218 -271 l 83 -271 l 83 0 l 82 0 l 82 1017 l 217 1017 l 217 631 b 287 696 236 659 260 681 b 381 719 314 711 345 719 b 559 616 457 719 516 685 b 623 345 601 548 623 458 l 623 331 m 487 345 b 451 539 487 424 475 489 b 345 614 428 589 392 614 b 268 590 314 614 289 606 b 218 524 247 574 230 552 l 218 172 b 268 110 230 145 247 124 b 346 87 289 95 315 87 b 452 154 393 87 429 110 b 487 331 475 198 487 257 l 487 345 "},"ÿ":{"ha":597,"x_min":0,"x_max":0,"o":"m 291 195 l 295 195 l 437 705 l 585 705 l 328 -109 b 259 -233 312 -158 288 -199 b 133 -285 230 -268 188 -285 b 96 -281 121 -285 109 -284 b 59 -273 84 -279 71 -276 l 74 -175 b 96 -178 81 -176 88 -177 b 115 -179 104 -179 110 -179 b 178 -146 141 -179 162 -168 b 214 -68 193 -124 205 -98 l 239 4 l 12 705 l 159 705 l 281 243 m 377 821 l 377 941 l 522 941 l 522 821 m 75 821 l 75 941 l 220 941 l 220 821 "},"Ā":{"ha":746,"x_min":0,"x_max":0,"o":"m 229 240 l 159 0 l 19 0 l 310 949 l 441 949 l 730 0 l 589 0 l 519 240 m 488 345 l 377 731 l 373 731 l 260 345 m 153 1061 l 153 1155 l 593 1155 l 593 1061 "},"ā":{"ha":632,"x_min":0,"x_max":0,"o":"m 437 0 b 425 53 432 18 428 36 b 419 104 422 70 420 87 b 347 20 401 70 377 42 b 243 -14 317 -2 283 -14 b 96 42 180 -14 131 5 b 45 195 62 80 45 131 b 115 353 45 262 68 315 b 313 410 162 391 228 410 l 418 410 l 418 483 b 391 583 418 526 409 559 b 309 619 372 607 345 619 b 232 588 276 619 251 609 b 205 507 214 567 205 540 l 75 507 l 74 511 b 138 656 71 565 93 614 b 317 719 183 698 243 719 b 489 657 389 719 446 698 b 554 481 532 617 554 558 l 554 154 b 559 76 554 127 556 101 b 576 0 563 50 569 25 l 437 0 m 272 89 b 365 121 307 89 338 100 b 418 199 392 143 409 169 l 418 327 l 311 327 b 214 289 269 327 237 314 b 180 195 191 264 180 232 b 204 118 180 163 188 137 b 272 89 220 99 243 89 m 90 852 l 90 945 l 530 945 l 530 852 "},"Ă":{"ha":746,"x_min":0,"x_max":0,"o":"m 229 240 l 159 0 l 19 0 l 310 949 l 441 949 l 730 0 l 589 0 l 519 240 m 488 345 l 377 731 l 373 731 l 260 345 m 562 1218 b 513 1093 564 1167 548 1125 b 374 1044 479 1061 433 1044 b 234 1093 316 1044 269 1061 b 186 1218 200 1125 184 1167 l 187 1222 l 289 1222 b 310 1152 289 1193 296 1170 b 374 1125 323 1134 345 1125 b 438 1152 403 1125 424 1134 b 459 1222 452 1170 459 1194 l 561 1222 "},"ă":{"ha":632,"x_min":0,"x_max":0,"o":"m 437 0 b 425 53 432 18 428 36 b 419 104 422 70 420 87 b 347 20 401 70 377 42 b 243 -14 317 -2 283 -14 b 96 42 180 -14 131 5 b 45 195 62 80 45 131 b 115 353 45 262 68 315 b 313 410 162 391 228 410 l 418 410 l 418 483 b 391 583 418 526 409 559 b 309 619 372 607 345 619 b 232 588 276 619 251 609 b 205 507 214 567 205 540 l 75 507 l 74 511 b 138 656 71 565 93 614 b 317 719 183 698 243 719 b 489 657 389 719 446 698 b 554 481 532 617 554 558 l 554 154 b 559 76 554 127 556 101 b 576 0 563 50 569 25 l 437 0 m 272 89 b 365 121 307 89 338 100 b 418 199 392 143 409 169 l 418 327 l 311 327 b 214 289 269 327 237 314 b 180 195 191 264 180 232 b 204 118 180 163 188 137 b 272 89 220 99 243 89 m 498 1008 b 450 883 500 957 484 915 b 311 834 415 850 369 834 b 171 883 252 834 205 850 b 122 1008 136 915 120 957 l 123 1012 l 225 1012 b 246 942 225 983 232 959 b 311 915 260 924 281 915 b 374 942 339 915 360 924 b 395 1012 388 960 395 983 l 497 1012 "},"Ą":{"ha":746,"x_min":0,"x_max":0,"o":"m 229 240 l 159 0 l 19 0 l 310 949 l 441 949 l 730 0 l 589 0 l 519 240 m 488 345 l 377 731 l 373 731 l 260 345 m 730 -74 b 655 -102 702 -75 677 -85 b 623 -173 634 -119 623 -143 l 623 -188 l 764 -188 l 764 -270 l 492 -270 b 489 -244 490 -262 489 -253 b 488 -219 488 -235 488 -227 b 520 -91 488 -168 499 -125 b 600 -23 542 -56 569 -33 l 600 0 l 729 0 "},"ą":{"ha":632,"x_min":0,"x_max":0,"o":"m 437 0 b 425 53 432 18 428 36 b 419 104 422 70 420 87 b 347 20 401 70 377 42 b 243 -14 317 -2 283 -14 b 96 42 180 -14 131 5 b 45 195 62 80 45 131 b 115 353 45 262 68 315 b 313 410 162 391 228 410 l 418 410 l 418 483 b 391 583 418 526 409 559 b 309 619 372 607 345 619 b 232 588 276 619 251 609 b 205 507 214 567 205 540 l 75 507 l 74 511 b 138 656 71 565 93 614 b 317 719 183 698 243 719 b 489 657 389 719 446 698 b 554 481 532 617 554 558 l 554 154 b 559 76 554 127 556 101 b 576 0 563 50 569 25 l 437 0 m 272 89 b 365 121 307 89 338 100 b 418 199 392 143 409 169 l 418 327 l 311 327 b 214 289 269 327 237 314 b 180 195 191 264 180 232 b 204 118 180 163 188 137 b 272 89 220 99 243 89 m 577 -74 b 503 -102 549 -75 524 -85 b 471 -173 481 -119 471 -143 l 471 -188 l 612 -188 l 612 -270 l 339 -270 b 336 -244 338 -262 337 -253 b 335 -219 335 -235 335 -227 b 368 -91 335 -168 346 -125 b 448 -23 390 -56 416 -33 l 448 0 l 576 0 "},"Ć":{"ha":750,"x_min":0,"x_max":0,"o":"m 698 291 b 617 68 700 197 673 123 b 391 -14 562 14 486 -14 b 154 86 292 -14 213 20 b 65 361 95 153 65 245 l 65 587 b 153 862 65 703 94 795 b 387 963 211 929 289 963 b 617 884 485 963 562 937 b 698 659 673 831 700 756 l 696 655 l 568 655 b 522 809 568 723 552 775 b 387 861 491 843 446 861 b 250 789 328 861 282 837 b 201 589 217 741 201 674 l 201 361 b 251 159 201 274 217 207 b 391 87 284 111 330 87 b 523 139 449 87 493 105 b 567 295 552 173 567 225 l 696 295 m 597 1230 l 599 1225 l 437 1056 l 324 1056 l 441 1230 "},"ć":{"ha":623,"x_min":0,"x_max":0,"o":"m 328 87 b 412 125 361 87 389 100 b 446 227 435 150 446 184 l 568 227 l 570 222 b 500 55 571 157 548 101 b 328 -14 452 9 394 -14 b 122 86 240 -14 171 20 b 49 340 73 153 49 238 l 49 365 b 122 618 49 467 73 551 b 327 719 171 685 240 719 b 504 647 399 719 458 695 b 570 463 550 599 572 538 l 568 458 l 446 458 b 413 572 446 505 435 543 b 327 616 391 602 362 616 b 219 544 278 616 242 592 b 184 365 196 496 184 436 l 184 340 b 219 159 184 267 196 207 b 328 87 242 111 278 87 m 519 1006 l 521 1002 l 359 832 l 246 832 l 363 1006 "},"Ĉ":{"ha":750,"x_min":0,"x_max":0,"o":"m 698 291 b 617 68 700 197 673 123 b 391 -14 562 14 486 -14 b 154 86 292 -14 213 20 b 65 361 95 153 65 245 l 65 587 b 153 862 65 703 94 795 b 387 963 211 929 289 963 b 617 884 485 963 562 937 b 698 659 673 831 700 756 l 696 655 l 568 655 b 522 809 568 723 552 775 b 387 861 491 843 446 861 b 250 789 328 861 282 837 b 201 589 217 741 201 674 l 201 361 b 251 159 201 274 217 207 b 391 87 284 111 330 87 b 523 139 449 87 493 105 b 567 295 552 173 567 225 l 696 295 m 609 1057 l 491 1057 l 390 1164 l 288 1057 l 170 1057 l 169 1061 l 337 1221 l 443 1221 l 610 1061 "},"ĉ":{"ha":623,"x_min":0,"x_max":0,"o":"m 328 87 b 412 125 361 87 389 100 b 446 227 435 150 446 184 l 568 227 l 570 222 b 500 55 571 157 548 101 b 328 -14 452 9 394 -14 b 122 86 240 -14 171 20 b 49 340 73 153 49 238 l 49 365 b 122 618 49 467 73 551 b 327 719 171 685 240 719 b 504 647 399 719 458 695 b 570 463 550 599 572 538 l 568 458 l 446 458 b 413 572 446 505 435 543 b 327 616 391 602 362 616 b 219 544 278 616 242 592 b 184 365 196 496 184 436 l 184 340 b 219 159 184 267 196 207 b 328 87 242 111 278 87 m 531 833 l 413 833 l 312 941 l 210 833 l 92 833 l 91 837 l 259 998 l 365 998 l 532 837 "},"Ċ":{"ha":750,"x_min":0,"x_max":0,"o":"m 698 291 b 617 68 700 197 673 123 b 391 -14 562 14 486 -14 b 154 86 292 -14 213 20 b 65 361 95 153 65 245 l 65 587 b 153 862 65 703 94 795 b 387 963 211 929 289 963 b 617 884 485 963 562 937 b 698 659 673 831 700 756 l 696 655 l 568 655 b 522 809 568 723 552 775 b 387 861 491 843 446 861 b 250 789 328 861 282 837 b 201 589 217 741 201 674 l 201 361 b 251 159 201 274 217 207 b 391 87 284 111 330 87 b 523 139 449 87 493 105 b 567 295 552 173 567 225 l 696 295 m 315 1058 l 315 1188 l 466 1188 l 466 1058 "},"ċ":{"ha":623,"x_min":0,"x_max":0,"o":"m 328 87 b 412 125 361 87 389 100 b 446 227 435 150 446 184 l 568 227 l 570 222 b 500 55 571 157 548 101 b 328 -14 452 9 394 -14 b 122 86 240 -14 171 20 b 49 340 73 153 49 238 l 49 365 b 122 618 49 467 73 551 b 327 719 171 685 240 719 b 504 647 399 719 458 695 b 570 463 550 599 572 538 l 568 458 l 446 458 b 413 572 446 505 435 543 b 327 616 391 602 362 616 b 219 544 278 616 242 592 b 184 365 196 496 184 436 l 184 340 b 219 159 184 267 196 207 b 328 87 242 111 278 87 m 237 834 l 237 964 l 388 964 l 388 834 "},"Č":{"ha":750,"x_min":0,"x_max":0,"o":"m 698 291 b 617 68 700 197 673 123 b 391 -14 562 14 486 -14 b 154 86 292 -14 213 20 b 65 361 95 153 65 245 l 65 587 b 153 862 65 703 94 795 b 387 963 211 929 289 963 b 617 884 485 963 562 937 b 698 659 673 831 700 756 l 696 655 l 568 655 b 522 809 568 723 552 775 b 387 861 491 843 446 861 b 250 789 328 861 282 837 b 201 589 217 741 201 674 l 201 361 b 251 159 201 274 217 207 b 391 87 284 111 330 87 b 523 139 449 87 493 105 b 567 295 552 173 567 225 l 696 295 m 336 1160 l 433 1224 l 518 1211 l 450 1095 m 336 1160 l 293 1131 l 295 1183 m 292 1185 l 293 1190 l 296 1190 l 295 1183 m 448 1093 l 450 1095 l 453 1093 "},"č":{"ha":623,"x_min":0,"x_max":0,"o":"m 328 87 b 412 125 361 87 389 100 b 446 227 435 150 446 184 l 568 227 l 570 222 b 500 55 571 157 548 101 b 328 -14 452 9 394 -14 b 122 86 240 -14 171 20 b 49 340 73 153 49 238 l 49 365 b 122 618 49 467 73 551 b 327 719 171 685 240 719 b 504 647 399 719 458 695 b 570 463 550 599 572 538 l 568 458 l 446 458 b 413 572 446 505 435 543 b 327 616 391 602 362 616 b 219 544 278 616 242 592 b 184 365 196 496 184 436 l 184 340 b 219 159 184 267 196 207 b 328 87 242 111 278 87 m 258 936 l 355 1000 l 440 987 l 372 871 m 258 936 l 215 907 l 217 960 m 214 962 l 215 966 l 218 966 l 217 960 m 370 869 l 372 871 l 375 869 "},"Ď":{"ha":788,"x_min":0,"x_max":0,"o":"m 90 949 l 366 949 b 621 835 470 949 555 911 b 720 541 687 759 720 661 l 720 407 b 621 114 720 287 687 189 b 366 0 555 38 470 0 l 90 0 m 225 101 l 366 101 b 525 187 432 101 485 130 b 585 407 565 244 585 317 l 585 543 b 525 761 585 631 565 704 b 366 847 485 818 432 847 l 225 847 m 288 1146 l 385 1211 l 470 1197 l 401 1081 m 288 1146 l 245 1117 l 247 1170 m 243 1172 l 245 1176 l 248 1176 l 247 1170 m 400 1079 l 401 1081 l 405 1079 "},"ď":{"ha":667,"x_min":0,"x_max":0,"o":"m 50 345 b 114 616 50 458 71 548 b 292 719 156 685 215 719 b 383 696 326 719 356 711 b 452 632 409 682 432 660 l 452 1017 l 588 1017 l 588 0 l 476 0 l 462 84 b 389 12 442 52 418 28 b 290 -14 361 -5 328 -14 b 114 80 215 -14 156 18 b 50 331 71 143 50 227 l 50 345 m 186 331 b 219 155 186 257 197 198 b 324 90 242 111 277 90 b 401 113 354 90 380 97 b 452 178 422 128 439 150 l 452 521 b 401 589 439 549 422 572 b 326 614 380 606 354 614 b 220 539 278 614 242 589 b 186 345 197 490 186 425 l 186 331 "},"Đ":{"ha":788,"x_min":0,"x_max":0,"o":"m 90 438 l 14 438 l 14 531 l 90 531 l 90 949 l 366 949 b 621 835 470 949 555 911 b 720 541 687 759 720 661 l 720 407 b 621 114 720 287 687 189 b 366 0 555 38 470 0 l 90 0 m 225 438 l 225 101 l 366 101 b 525 187 432 101 485 130 b 585 407 565 244 585 317 l 585 543 b 525 761 585 631 565 704 b 366 847 485 818 432 847 l 225 847 l 225 531 l 410 531 l 410 438 "},"đ":{"ha":667,"x_min":0,"x_max":0,"o":"m 588 808 l 588 0 l 476 0 l 462 84 b 389 12 442 52 418 28 b 290 -14 361 -5 328 -14 b 114 80 215 -14 156 18 b 50 331 71 143 50 227 l 50 345 b 114 616 50 458 71 548 b 292 719 156 685 215 719 b 383 696 326 719 356 711 b 452 632 409 682 432 660 l 452 808 l 280 808 l 280 901 l 452 901 l 452 1017 l 588 1017 l 588 901 l 675 901 l 675 808 m 186 331 b 219 155 186 257 197 198 b 324 90 242 111 277 90 b 401 113 354 90 380 97 b 452 178 422 128 439 150 l 452 521 b 401 589 439 549 422 572 b 326 614 380 606 354 614 b 220 539 278 614 242 589 b 186 345 197 490 186 425 l 186 331 "},"Ē":{"ha":652,"x_min":0,"x_max":0,"o":"m 222 441 l 222 101 l 610 101 l 610 0 l 87 0 l 87 949 l 607 949 l 607 847 l 222 847 l 222 543 l 551 543 l 551 441 m 127 1061 l 127 1155 l 568 1155 l 568 1061 "},"ē":{"ha":618,"x_min":0,"x_max":0,"o":"m 342 -14 b 126 83 250 -14 178 19 b 48 334 74 147 48 231 l 48 364 b 125 619 48 468 74 553 b 326 719 176 686 243 719 b 509 637 405 719 466 692 b 573 412 552 583 573 507 l 573 334 l 183 334 b 224 156 183 261 197 201 b 351 87 251 110 293 87 b 443 103 386 87 417 93 b 518 145 468 113 493 127 l 552 59 b 468 8 532 40 504 23 b 342 -14 431 -6 389 -14 m 326 616 b 231 564 286 616 255 599 b 186 426 207 529 192 483 l 439 426 l 439 442 b 412 569 439 496 430 538 b 326 616 393 601 365 616 m 95 852 l 95 945 l 535 945 l 535 852 "},"Ĕ":{"ha":652,"x_min":0,"x_max":0,"o":"m 222 441 l 222 101 l 610 101 l 610 0 l 87 0 l 87 949 l 607 949 l 607 847 l 222 847 l 222 543 l 551 543 l 551 441 m 536 1218 b 488 1093 538 1167 522 1125 b 349 1044 453 1061 407 1044 b 209 1093 290 1044 243 1061 b 160 1218 174 1125 158 1167 l 161 1222 l 263 1222 b 284 1152 263 1193 270 1170 b 349 1125 298 1134 319 1125 b 412 1152 377 1125 398 1134 b 433 1222 426 1170 433 1194 l 535 1222 "},"ĕ":{"ha":618,"x_min":0,"x_max":0,"o":"m 342 -14 b 126 83 250 -14 178 19 b 48 334 74 147 48 231 l 48 364 b 125 619 48 468 74 553 b 326 719 176 686 243 719 b 509 637 405 719 466 692 b 573 412 552 583 573 507 l 573 334 l 183 334 b 224 156 183 261 197 201 b 351 87 251 110 293 87 b 443 103 386 87 417 93 b 518 145 468 113 493 127 l 552 59 b 468 8 532 40 504 23 b 342 -14 431 -6 389 -14 m 326 616 b 231 564 286 616 255 599 b 186 426 207 529 192 483 l 439 426 l 439 442 b 412 569 439 496 430 538 b 326 616 393 601 365 616 m 504 1008 b 455 883 506 957 489 915 b 316 834 421 850 374 834 b 176 883 257 834 211 850 b 127 1008 141 915 125 957 l 129 1012 l 231 1012 b 251 942 231 983 237 959 b 316 915 265 924 287 915 b 380 942 345 915 366 924 b 401 1012 394 960 401 983 l 503 1012 "},"Ė":{"ha":652,"x_min":0,"x_max":0,"o":"m 222 441 l 222 101 l 610 101 l 610 0 l 87 0 l 87 949 l 607 949 l 607 847 l 222 847 l 222 543 l 551 543 l 551 441 m 272 1044 l 272 1175 l 423 1175 l 423 1044 "},"ė":{"ha":618,"x_min":0,"x_max":0,"o":"m 342 -14 b 126 83 250 -14 178 19 b 48 334 74 147 48 231 l 48 364 b 125 619 48 468 74 553 b 326 719 176 686 243 719 b 509 637 405 719 466 692 b 573 412 552 583 573 507 l 573 334 l 183 334 b 224 156 183 261 197 201 b 351 87 251 110 293 87 b 443 103 386 87 417 93 b 518 145 468 113 493 127 l 552 59 b 468 8 532 40 504 23 b 342 -14 431 -6 389 -14 m 326 616 b 231 564 286 616 255 599 b 186 426 207 529 192 483 l 439 426 l 439 442 b 412 569 439 496 430 538 b 326 616 393 601 365 616 m 239 834 l 239 964 l 391 964 l 391 834 "},"Ę":{"ha":652,"x_min":0,"x_max":0,"o":"m 222 441 l 222 101 l 610 101 l 610 0 l 87 0 l 87 949 l 607 949 l 607 847 l 222 847 l 222 543 l 551 543 l 551 441 m 429 -74 b 355 -102 401 -75 376 -85 b 323 -173 334 -119 323 -143 l 323 -188 l 464 -188 l 464 -270 l 191 -270 b 188 -244 190 -262 189 -253 b 187 -219 188 -235 187 -227 b 220 -91 187 -168 198 -125 b 300 -23 242 -56 269 -33 l 300 0 l 429 0 "},"ę":{"ha":618,"x_min":0,"x_max":0,"o":"m 342 -14 b 126 83 250 -14 178 19 b 48 334 74 147 48 231 l 48 364 b 125 619 48 468 74 553 b 326 719 176 686 243 719 b 509 637 405 719 466 692 b 573 412 552 583 573 507 l 573 334 l 183 334 b 224 156 183 261 197 201 b 351 87 251 110 293 87 b 443 103 386 87 417 93 b 518 145 468 113 493 127 l 552 59 b 468 8 532 40 504 23 b 342 -14 431 -6 389 -14 m 326 616 b 231 564 286 616 255 599 b 186 426 207 529 192 483 l 439 426 l 439 442 b 412 569 439 496 430 538 b 326 616 393 601 365 616 m 412 -74 b 338 -102 384 -75 360 -85 b 306 -173 317 -119 306 -143 l 306 -188 l 447 -188 l 447 -270 l 174 -270 b 171 -244 173 -262 172 -253 b 170 -219 171 -235 170 -227 b 203 -91 170 -168 181 -125 b 283 -23 225 -56 252 -33 l 283 0 l 412 0 "},"Ě":{"ha":652,"x_min":0,"x_max":0,"o":"m 222 441 l 222 101 l 610 101 l 610 0 l 87 0 l 87 949 l 607 949 l 607 847 l 222 847 l 222 543 l 551 543 l 551 441 m 294 1146 l 390 1211 l 475 1197 l 407 1081 m 294 1146 l 250 1117 l 252 1170 m 249 1172 l 250 1176 l 253 1176 l 252 1170 m 406 1079 l 407 1081 l 410 1079 "},"ě":{"ha":618,"x_min":0,"x_max":0,"o":"m 342 -14 b 126 83 250 -14 178 19 b 48 334 74 147 48 231 l 48 364 b 125 619 48 468 74 553 b 326 719 176 686 243 719 b 509 637 405 719 466 692 b 573 412 552 583 573 507 l 573 334 l 183 334 b 224 156 183 261 197 201 b 351 87 251 110 293 87 b 443 103 386 87 417 93 b 518 145 468 113 493 127 l 552 59 b 468 8 532 40 504 23 b 342 -14 431 -6 389 -14 m 326 616 b 231 564 286 616 255 599 b 186 426 207 529 192 483 l 439 426 l 439 442 b 412 569 439 496 430 538 b 326 616 393 601 365 616 m 261 936 l 357 1000 l 443 987 l 374 871 m 261 936 l 218 907 l 220 960 m 216 962 l 218 966 l 220 966 l 220 960 m 373 869 l 374 871 l 378 869 "},"Ĝ":{"ha":793,"x_min":0,"x_max":0,"o":"m 708 128 b 598 30 685 92 649 59 b 404 -14 548 1 483 -14 b 160 84 303 -14 222 19 b 67 353 98 149 67 238 l 67 598 b 157 866 67 712 97 801 b 395 963 217 931 297 963 b 622 885 493 963 568 937 b 699 676 675 832 701 763 l 698 672 l 570 672 b 526 809 570 729 555 775 b 397 861 496 844 453 861 b 255 792 338 861 290 838 b 202 600 220 746 202 682 l 202 353 b 257 157 202 269 220 204 b 404 87 294 111 343 87 b 513 110 449 87 486 95 b 573 163 540 124 560 142 l 573 380 l 395 380 l 395 476 l 708 476 l 708 128 m 606 1057 l 488 1057 l 387 1164 l 285 1057 l 168 1057 l 166 1061 l 334 1221 l 440 1221 l 608 1061 "},"ĝ":{"ha":667,"x_min":0,"x_max":0,"o":"m 54 345 b 117 616 54 458 75 548 b 295 719 159 685 219 719 b 394 692 333 719 365 710 b 466 617 422 675 446 650 l 478 705 l 591 705 l 591 -1 b 517 -211 591 -92 567 -162 b 309 -285 468 -260 399 -285 b 212 -271 279 -285 246 -280 b 117 -234 177 -262 145 -249 l 140 -134 b 219 -166 164 -148 190 -158 b 308 -178 247 -174 277 -178 b 420 -134 359 -178 396 -163 b 456 -1 444 -104 456 -60 l 456 70 b 386 7 437 42 413 21 b 294 -14 359 -7 328 -14 b 117 80 218 -14 159 18 b 54 331 75 143 54 227 l 54 345 m 189 331 b 222 155 189 257 200 198 b 328 90 244 111 280 90 b 406 113 358 90 384 97 b 456 178 427 128 444 150 l 456 520 b 405 589 443 549 426 572 b 329 614 384 606 359 614 b 223 539 281 614 246 589 b 189 345 200 490 189 425 l 189 331 m 541 833 l 423 833 l 322 941 l 220 833 l 102 833 l 101 837 l 269 998 l 375 998 l 543 837 "},"Ğ":{"ha":793,"x_min":0,"x_max":0,"o":"m 708 128 b 598 30 685 92 649 59 b 404 -14 548 1 483 -14 b 160 84 303 -14 222 19 b 67 353 98 149 67 238 l 67 598 b 157 866 67 712 97 801 b 395 963 217 931 297 963 b 622 885 493 963 568 937 b 699 676 675 832 701 763 l 698 672 l 570 672 b 526 809 570 729 555 775 b 397 861 496 844 453 861 b 255 792 338 861 290 838 b 202 600 220 746 202 682 l 202 353 b 257 157 202 269 220 204 b 404 87 294 111 343 87 b 513 110 449 87 486 95 b 573 163 540 124 560 142 l 573 380 l 395 380 l 395 476 l 708 476 l 708 128 m 576 1232 b 528 1106 578 1180 562 1139 b 389 1058 493 1074 447 1058 b 249 1106 330 1058 283 1074 b 200 1232 214 1139 198 1180 l 201 1236 l 303 1236 b 324 1165 303 1207 310 1183 b 389 1139 338 1148 359 1139 b 452 1166 417 1139 438 1148 b 473 1236 466 1184 473 1207 l 575 1236 "},"ğ":{"ha":667,"x_min":0,"x_max":0,"o":"m 54 345 b 117 616 54 458 75 548 b 295 719 159 685 219 719 b 394 692 333 719 365 710 b 466 617 422 675 446 650 l 478 705 l 591 705 l 591 -1 b 517 -211 591 -92 567 -162 b 309 -285 468 -260 399 -285 b 212 -271 279 -285 246 -280 b 117 -234 177 -262 145 -249 l 140 -134 b 219 -166 164 -148 190 -158 b 308 -178 247 -174 277 -178 b 420 -134 359 -178 396 -163 b 456 -1 444 -104 456 -60 l 456 70 b 386 7 437 42 413 21 b 294 -14 359 -7 328 -14 b 117 80 218 -14 159 18 b 54 331 75 143 54 227 l 54 345 m 189 331 b 222 155 189 257 200 198 b 328 90 244 111 280 90 b 406 113 358 90 384 97 b 456 178 427 128 444 150 l 456 520 b 405 589 443 549 426 572 b 329 614 384 606 359 614 b 223 539 281 614 246 589 b 189 345 200 490 189 425 l 189 331 m 511 1008 b 463 883 513 957 497 915 b 323 834 428 850 382 834 b 183 883 265 834 218 850 b 135 1008 149 915 133 957 l 136 1012 l 238 1012 b 259 942 238 983 245 959 b 323 915 273 924 294 915 b 387 942 352 915 373 924 b 408 1012 401 960 408 983 l 510 1012 "},"Ġ":{"ha":793,"x_min":0,"x_max":0,"o":"m 708 128 b 598 30 685 92 649 59 b 404 -14 548 1 483 -14 b 160 84 303 -14 222 19 b 67 353 98 149 67 238 l 67 598 b 157 866 67 712 97 801 b 395 963 217 931 297 963 b 622 885 493 963 568 937 b 699 676 675 832 701 763 l 698 672 l 570 672 b 526 809 570 729 555 775 b 397 861 496 844 453 861 b 255 792 338 861 290 838 b 202 600 220 746 202 682 l 202 353 b 257 157 202 269 220 204 b 404 87 294 111 343 87 b 513 110 449 87 486 95 b 573 163 540 124 560 142 l 573 380 l 395 380 l 395 476 l 708 476 l 708 128 m 312 1058 l 312 1188 l 463 1188 l 463 1058 "},"ġ":{"ha":667,"x_min":0,"x_max":0,"o":"m 54 345 b 117 616 54 458 75 548 b 295 719 159 685 219 719 b 394 692 333 719 365 710 b 466 617 422 675 446 650 l 478 705 l 591 705 l 591 -1 b 517 -211 591 -92 567 -162 b 309 -285 468 -260 399 -285 b 212 -271 279 -285 246 -280 b 117 -234 177 -262 145 -249 l 140 -134 b 219 -166 164 -148 190 -158 b 308 -178 247 -174 277 -178 b 420 -134 359 -178 396 -163 b 456 -1 444 -104 456 -60 l 456 70 b 386 7 437 42 413 21 b 294 -14 359 -7 328 -14 b 117 80 218 -14 159 18 b 54 331 75 143 54 227 l 54 345 m 189 331 b 222 155 189 257 200 198 b 328 90 244 111 280 90 b 406 113 358 90 384 97 b 456 178 427 128 444 150 l 456 520 b 405 589 443 549 426 572 b 329 614 384 606 359 614 b 223 539 281 614 246 589 b 189 345 200 490 189 425 l 189 331 m 247 834 l 247 964 l 398 964 l 398 834 "},"Ģ":{"ha":793,"x_min":0,"x_max":0,"o":"m 708 128 b 598 30 685 92 649 59 b 404 -14 548 1 483 -14 b 160 84 303 -14 222 19 b 67 353 98 149 67 238 l 67 598 b 157 866 67 712 97 801 b 395 963 217 931 297 963 b 622 885 493 963 568 937 b 699 676 675 832 701 763 l 698 672 l 570 672 b 526 809 570 729 555 775 b 397 861 496 844 453 861 b 255 792 338 861 290 838 b 202 600 220 746 202 682 l 202 353 b 257 157 202 269 220 204 b 404 87 294 111 343 87 b 513 110 449 87 486 95 b 573 163 540 124 560 142 l 573 380 l 395 380 l 395 476 l 708 476 l 708 128 m 391 -342 l 311 -342 l 334 -176 l 334 -61 l 457 -61 l 457 -180 "},"ģ":{"ha":667,"x_min":0,"x_max":0,"o":"m 54 345 b 117 616 54 458 75 548 b 295 719 159 685 219 719 b 394 692 333 719 365 710 b 466 617 422 675 446 650 l 478 705 l 591 705 l 591 -1 b 517 -211 591 -92 567 -162 b 309 -285 468 -260 399 -285 b 212 -271 279 -285 246 -280 b 117 -234 177 -262 145 -249 l 140 -134 b 219 -166 164 -148 190 -158 b 308 -178 247 -174 277 -178 b 420 -134 359 -178 396 -163 b 456 -1 444 -104 456 -60 l 456 70 b 386 7 437 42 413 21 b 294 -14 359 -7 328 -14 b 117 80 218 -14 159 18 b 54 331 75 143 54 227 l 54 345 m 189 331 b 222 155 189 257 200 198 b 328 90 244 111 280 90 b 406 113 358 90 384 97 b 456 178 427 128 444 150 l 456 520 b 405 589 443 549 426 572 b 329 614 384 606 359 614 b 223 539 281 614 246 589 b 189 345 200 490 189 425 l 189 331 m 324 1074 l 396 1074 l 379 914 l 379 819 l 259 819 l 259 918 "},"Ĥ":{"ha":829,"x_min":0,"x_max":0,"o":"m 604 0 l 604 418 l 225 418 l 225 0 l 90 0 l 90 949 l 225 949 l 225 519 l 604 519 l 604 949 l 739 949 l 739 0 m 631 1043 l 513 1043 l 412 1151 l 309 1043 l 192 1043 l 191 1047 l 359 1208 l 465 1208 l 632 1047 "},"ĥ":{"ha":667,"x_min":0,"x_max":0,"o":"m 209 610 b 284 690 229 645 254 671 b 385 719 314 709 347 719 b 538 649 450 719 501 695 b 593 432 574 602 593 530 l 593 0 l 457 0 l 457 433 b 429 572 457 498 448 544 b 343 614 410 600 381 614 b 263 592 312 614 285 607 b 209 530 240 577 222 557 l 209 0 l 74 0 l 74 1017 l 209 1017 l 209 610 m 365 1045 l 247 1045 l 146 1153 l 43 1045 l -74 1045 l -75 1049 l 93 1210 l 199 1210 l 366 1049 "},"Ħ":{"ha":834,"x_min":0,"x_max":0,"o":"m 745 679 l 745 0 l 610 0 l 610 418 l 231 418 l 231 0 l 96 0 l 96 679 l 30 679 l 30 772 l 96 772 l 96 949 l 231 949 l 231 772 l 610 772 l 610 949 l 745 949 l 745 772 l 844 772 l 844 679 m 610 519 l 610 679 l 231 679 l 231 519 "},"ħ":{"ha":667,"x_min":0,"x_max":0,"o":"m 209 806 l 209 610 b 284 690 229 645 254 671 b 385 719 314 709 347 719 b 538 649 450 719 501 695 b 593 432 574 602 593 530 l 593 0 l 457 0 l 457 433 b 429 572 457 498 448 544 b 343 614 410 600 381 614 b 263 592 312 614 285 607 b 209 530 240 577 222 557 l 209 0 l 74 0 l 74 806 l 7 806 l 7 899 l 74 899 l 74 1017 l 209 1017 l 209 899 l 403 899 l 403 806 "},"Ĩ":{"ha":340,"x_min":0,"x_max":0,"o":"m 102 0 l 102 949 l 238 949 l 238 0 m 376 1198 b 342 1097 376 1158 364 1124 b 257 1056 319 1070 291 1056 b 169 1088 230 1056 201 1067 b 92 1120 137 1109 112 1120 b 54 1098 77 1120 64 1112 b 39 1044 44 1083 39 1066 l -35 1063 b -2 1164 -35 1102 -24 1136 b 83 1206 21 1192 49 1206 b 166 1175 105 1206 132 1196 b 248 1143 201 1153 228 1143 b 286 1164 263 1143 275 1150 b 302 1219 297 1179 302 1197 l 376 1198 "},"ĩ":{"ha":310,"x_min":0,"x_max":0,"o":"m 85 0 l 85 705 l 220 705 l 220 0 m 359 975 b 325 873 359 934 347 900 b 240 832 302 846 274 832 b 152 864 213 832 184 843 b 75 896 120 885 95 896 b 37 874 60 896 47 889 b 22 821 27 860 22 842 l -52 839 b -19 940 -52 878 -41 912 b 66 983 4 969 32 983 b 150 951 88 983 115 972 b 231 919 184 930 211 919 b 269 941 246 919 258 926 b 286 995 280 955 286 973 l 359 975 "},"Ī":{"ha":340,"x_min":0,"x_max":0,"o":"m 102 0 l 102 949 l 238 949 l 238 0 m -50 1061 l -50 1155 l 391 1155 l 391 1061 "},"ī":{"ha":310,"x_min":0,"x_max":0,"o":"m 85 0 l 85 705 l 220 705 l 220 0 m -66 838 l -66 932 l 374 932 l 374 838 "},"Ĭ":{"ha":340,"x_min":0,"x_max":0,"o":"m 102 0 l 102 949 l 238 949 l 238 0 m 359 1218 b 311 1093 361 1167 345 1125 b 172 1044 276 1061 230 1044 b 32 1093 113 1044 66 1061 b -17 1218 -3 1125 -19 1167 l -16 1222 l 86 1222 b 107 1152 86 1193 93 1170 b 172 1125 121 1134 142 1125 b 235 1152 200 1125 221 1134 b 256 1222 249 1170 256 1194 l 358 1222 "},"ĭ":{"ha":310,"x_min":0,"x_max":0,"o":"m 85 0 l 85 705 l 220 705 l 220 0 m 342 994 b 294 869 344 943 328 901 b 155 821 259 837 213 821 b 15 869 96 821 49 837 b -34 994 -20 901 -36 943 l -33 998 l 69 998 b 90 928 69 969 76 946 b 155 901 104 910 125 901 b 218 928 183 901 204 910 b 239 998 232 946 239 970 l 341 998 "},"Į":{"ha":340,"x_min":0,"x_max":0,"o":"m 102 0 l 102 949 l 238 949 l 238 0 m 274 -74 b 200 -102 246 -75 221 -85 b 168 -173 178 -119 168 -143 l 168 -188 l 309 -188 l 309 -270 l 36 -270 b 33 -244 35 -262 34 -253 b 32 -219 32 -235 32 -227 b 65 -91 32 -168 43 -125 b 144 -23 87 -56 113 -33 l 144 0 l 273 0 "},"į":{"ha":307,"x_min":0,"x_max":0,"o":"m 86 0 l 86 705 l 221 705 l 221 0 m 86 890 l 86 1017 l 221 1017 l 221 890 m 258 -74 b 184 -102 230 -75 206 -85 b 152 -173 163 -119 152 -143 l 152 -188 l 293 -188 l 293 -270 l 20 -270 b 17 -244 19 -262 18 -253 b 16 -219 17 -235 16 -227 b 49 -91 16 -168 27 -125 b 129 -23 71 -56 98 -33 l 129 0 l 258 0 "},"İ":{"ha":340,"x_min":0,"x_max":0,"o":"m 102 0 l 102 949 l 238 949 l 238 0 m 94 1044 l 94 1175 l 245 1175 l 245 1044 "},"ı":{"ha":310,"x_min":0,"x_max":0,"o":"m 85 0 l 85 705 l 220 705 l 220 0 "},"Ĳ":{"ha":992,"x_min":0,"x_max":0,"o":"m 102 0 l 102 949 l 238 949 l 238 0 m 903 949 l 903 281 b 830 66 903 191 879 119 b 642 -14 781 13 718 -14 b 446 57 559 -14 494 10 b 376 263 397 105 374 173 l 378 267 l 508 267 b 543 132 508 206 520 161 b 642 87 567 102 600 87 b 732 140 678 87 708 105 b 767 281 755 175 767 222 l 767 949 "},"ĳ":{"ha":616,"x_min":0,"x_max":0,"o":"m 86 0 l 86 705 l 221 705 l 221 0 m 86 890 l 86 1017 l 221 1017 l 221 890 m 533 -48 b 479 -223 533 -124 515 -182 b 332 -285 444 -264 394 -285 b 296 -282 319 -285 307 -284 b 260 -273 285 -280 273 -277 l 268 -172 b 293 -178 275 -175 283 -176 b 319 -180 302 -180 311 -180 b 377 -148 343 -180 362 -170 b 398 -48 391 -126 398 -93 l 398 705 l 533 705 m 394 893 l 394 1017 l 530 1017 l 530 893 "},"Ĵ":{"ha":652,"x_min":0,"x_max":0,"o":"m 563 949 l 563 281 b 490 66 563 191 538 119 b 301 -14 441 13 378 -14 b 105 57 219 -14 153 10 b 35 263 57 105 33 173 l 37 267 l 168 267 b 203 132 168 206 179 161 b 301 87 226 102 259 87 b 391 140 338 87 368 105 b 427 281 415 175 427 222 l 427 949 m 707 1038 l 589 1038 l 488 1146 l 385 1038 l 268 1038 l 267 1042 l 435 1203 l 541 1203 l 708 1042 "},"ĵ":{"ha":317,"x_min":0,"x_max":0,"o":"m 230 -48 b 176 -223 230 -124 212 -182 b 28 -285 141 -264 91 -285 b -7 -282 15 -285 3 -284 b -44 -273 -18 -280 -31 -277 l -35 -174 b -9 -180 -28 -176 -19 -178 b 20 -182 2 -182 11 -182 b 75 -147 43 -182 61 -171 b 94 -48 88 -123 94 -90 l 94 705 l 230 705 m 375 812 l 257 812 l 156 920 l 54 812 l -64 812 l -65 816 l 103 977 l 209 977 l 376 816 "},"Ķ":{"ha":746,"x_min":0,"x_max":0,"o":"m 223 427 l 223 0 l 88 0 l 88 949 l 223 949 l 223 533 l 292 533 l 548 949 l 712 949 l 405 504 l 736 0 l 565 0 l 300 427 m 360 -334 l 281 -334 l 304 -168 l 304 -53 l 427 -53 l 427 -172 "},"ķ":{"ha":616,"x_min":0,"x_max":0,"o":"m 212 323 l 212 0 l 77 0 l 77 1017 l 212 1017 l 212 425 l 269 425 l 431 705 l 590 705 l 379 385 l 614 0 l 456 0 l 271 323 m 313 -332 l 233 -332 l 256 -165 l 256 -51 l 379 -51 l 379 -170 "},"ĸ":{"ha":677,"x_min":0,"x_max":0,"o":"m 218 297 l 218 0 l 83 0 l 83 705 l 218 705 l 218 411 l 271 411 l 465 705 l 633 705 l 388 374 l 648 0 l 475 0 l 281 297 "},"Ĺ":{"ha":652,"x_min":0,"x_max":0,"o":"m 616 101 l 616 0 l 90 0 l 90 949 l 224 949 l 224 101 m 363 1192 l 365 1188 l 203 1019 l 90 1019 l 207 1192 "},"ĺ":{"ha":307,"x_min":0,"x_max":0,"o":"m 86 0 l 86 1017 l 221 1017 l 221 0 m 360 1226 l 362 1222 l 201 1053 l 87 1053 l 204 1226 "},"Ļ":{"ha":652,"x_min":0,"x_max":0,"o":"m 616 101 l 616 0 l 90 0 l 90 949 l 224 949 l 224 101 m 349 -333 l 269 -333 l 292 -166 l 292 -52 l 415 -52 l 415 -171 "},"ļ":{"ha":307,"x_min":0,"x_max":0,"o":"m 86 0 l 86 1017 l 221 1017 l 221 0 m 151 -333 l 72 -333 l 95 -166 l 95 -52 l 218 -52 l 218 -171 "},"Ľ":{"ha":652,"x_min":0,"x_max":0,"o":"m 616 101 l 616 0 l 90 0 l 90 949 l 224 949 l 224 101 "},"ľ":{"ha":307,"x_min":0,"x_max":0,"o":"m 86 0 l 86 1017 l 221 1017 l 221 0 "},"Ŀ":{"ha":652,"x_min":0,"x_max":0,"o":"m 616 101 l 616 0 l 90 0 l 90 949 l 224 949 l 224 101 m 81 1021 l 81 1151 l 233 1151 l 233 1021 "},"ŀ":{"ha":307,"x_min":0,"x_max":0,"o":"m 86 0 l 86 1017 l 221 1017 l 221 0 m 79 1055 l 79 1185 l 230 1185 l 230 1055 "},"Ł":{"ha":610,"x_min":0,"x_max":0,"o":"m 372 607 l 372 508 l 221 456 l 221 101 l 613 101 l 613 0 l 86 0 l 86 410 l 16 386 l 16 485 l 86 509 l 86 949 l 221 949 l 221 555 "},"ł":{"ha":333,"x_min":0,"x_max":0,"o":"m 318 611 l 318 512 l 235 478 l 235 0 l 100 0 l 100 423 l 17 390 l 17 489 l 100 522 l 100 1017 l 235 1017 l 235 577 "},"Ń":{"ha":829,"x_min":0,"x_max":0,"o":"m 604 0 l 229 699 l 225 699 l 225 0 l 90 0 l 90 949 l 225 949 l 600 250 l 604 251 l 604 949 l 739 949 l 739 0 m 621 1216 l 623 1212 l 461 1042 l 348 1042 l 465 1216 "},"ń":{"ha":667,"x_min":0,"x_max":0,"o":"m 208 600 b 284 688 228 638 254 667 b 390 719 315 708 351 719 b 540 650 454 719 504 696 b 593 435 576 604 593 532 l 593 0 l 458 0 l 458 433 b 430 574 458 500 448 547 b 344 614 411 601 382 614 b 264 591 313 614 287 607 b 211 526 242 575 224 554 l 211 0 l 75 0 l 75 705 l 199 705 m 539 1006 l 541 1002 l 380 832 l 267 832 l 383 1006 "},"Ņ":{"ha":829,"x_min":0,"x_max":0,"o":"m 604 0 l 229 699 l 225 699 l 225 0 l 90 0 l 90 949 l 225 949 l 600 250 l 604 251 l 604 949 l 739 949 l 739 0 m 412 -333 l 332 -333 l 355 -166 l 355 -52 l 478 -52 l 478 -171 "},"ņ":{"ha":667,"x_min":0,"x_max":0,"o":"m 208 600 b 284 688 228 638 254 667 b 390 719 315 708 351 719 b 540 650 454 719 504 696 b 593 435 576 604 593 532 l 593 0 l 458 0 l 458 433 b 430 574 458 500 448 547 b 344 614 411 601 382 614 b 264 591 313 614 287 607 b 211 526 242 575 224 554 l 211 0 l 75 0 l 75 705 l 199 705 m 330 -333 l 251 -333 l 274 -166 l 274 -52 l 397 -52 l 397 -171 "},"Ň":{"ha":829,"x_min":0,"x_max":0,"o":"m 604 0 l 229 699 l 225 699 l 225 0 l 90 0 l 90 949 l 225 949 l 600 250 l 604 251 l 604 949 l 739 949 l 739 0 m 360 1146 l 456 1211 l 542 1197 l 473 1081 m 360 1146 l 317 1117 l 319 1170 m 315 1172 l 317 1176 l 319 1176 l 319 1170 m 472 1079 l 473 1081 l 477 1079 "},"ň":{"ha":667,"x_min":0,"x_max":0,"o":"m 208 600 b 284 688 228 638 254 667 b 390 719 315 708 351 719 b 540 650 454 719 504 696 b 593 435 576 604 593 532 l 593 0 l 458 0 l 458 433 b 430 574 458 500 448 547 b 344 614 411 601 382 614 b 264 591 313 614 287 607 b 211 526 242 575 224 554 l 211 0 l 75 0 l 75 705 l 199 705 m 279 936 l 375 1000 l 460 987 l 392 871 m 279 936 l 235 907 l 237 960 m 234 962 l 235 966 l 238 966 l 237 960 m 391 869 l 392 871 l 395 869 "},"ŉ":{"ha":667,"x_min":0,"x_max":0,"o":"m 208 600 b 284 688 228 638 254 667 b 390 719 315 708 351 719 b 540 650 454 719 504 696 b 593 435 576 604 593 532 l 593 0 l 458 0 l 458 433 b 430 574 458 500 448 547 b 344 614 411 601 382 614 b 264 591 313 614 287 607 b 211 526 242 575 224 554 l 211 0 l 75 0 l 75 705 l 199 705 m 537 610 l 470 610 l 471 774 l 471 949 l 593 949 l 593 776 "},"Ŋ":{"ha":821,"x_min":0,"x_max":0,"o":"m 735 -48 b 682 -223 735 -124 717 -182 b 534 -285 646 -264 597 -285 b 497 -282 521 -285 508 -284 b 460 -273 486 -280 474 -277 l 469 -174 b 495 -180 476 -176 484 -178 b 525 -182 506 -182 516 -182 b 580 -147 548 -182 567 -171 b 600 -48 594 -123 600 -90 l 600 0 l 224 701 l 220 700 l 220 0 l 85 0 l 85 949 l 220 949 l 596 250 l 600 251 l 600 949 l 735 949 "},"ŋ":{"ha":667,"x_min":0,"x_max":0,"o":"m 206 604 b 282 689 227 640 252 669 b 386 719 313 709 347 719 b 536 650 451 719 501 696 b 590 435 572 604 590 532 l 590 -48 b 536 -223 590 -124 572 -182 b 389 -285 501 -264 451 -285 b 351 -282 375 -285 362 -284 b 314 -273 339 -280 327 -277 l 322 -170 b 349 -176 329 -172 338 -174 b 380 -179 361 -178 371 -179 b 434 -145 403 -179 421 -168 b 454 -48 447 -123 454 -90 l 454 433 b 426 574 454 500 444 547 b 340 614 407 601 378 614 b 262 592 310 614 284 607 b 210 530 240 577 223 556 l 210 0 l 75 0 l 75 705 l 199 705 "},"Ō":{"ha":806,"x_min":0,"x_max":0,"o":"m 743 363 b 649 87 743 247 711 155 b 400 -14 587 20 504 -14 b 155 87 298 -14 216 20 b 63 363 94 155 63 247 l 63 585 b 154 861 63 701 93 793 b 399 963 215 929 297 963 b 649 861 503 963 586 929 b 743 585 711 793 743 701 l 743 363 m 608 586 b 553 787 608 673 589 740 b 399 859 516 835 465 859 b 251 787 335 859 285 835 b 199 586 216 740 199 673 l 199 363 b 251 161 199 276 216 208 b 400 90 286 113 336 90 b 553 161 466 90 517 113 b 608 363 590 208 608 276 l 608 586 m 183 1075 l 183 1168 l 623 1168 l 623 1075 "},"ō":{"ha":667,"x_min":0,"x_max":0,"o":"m 48 361 b 124 618 48 466 73 552 b 332 719 175 685 244 719 b 541 618 420 719 490 685 b 616 361 591 552 616 466 l 616 343 b 541 86 616 238 591 153 b 333 -14 490 20 421 -14 b 124 86 244 -14 175 20 b 48 343 73 153 48 238 l 48 361 m 184 343 b 221 159 184 268 196 207 b 333 87 245 111 283 87 b 444 159 382 87 419 111 b 481 343 469 207 481 269 l 481 361 b 444 544 481 434 469 496 b 332 616 419 592 381 616 b 221 544 282 616 245 592 b 184 361 196 495 184 434 l 184 343 m 113 852 l 113 945 l 553 945 l 553 852 "},"Ŏ":{"ha":806,"x_min":0,"x_max":0,"o":"m 743 363 b 649 87 743 247 711 155 b 400 -14 587 20 504 -14 b 155 87 298 -14 216 20 b 63 363 94 155 63 247 l 63 585 b 154 861 63 701 93 793 b 399 963 215 929 297 963 b 649 861 503 963 586 929 b 743 585 711 793 743 701 l 743 363 m 608 586 b 553 787 608 673 589 740 b 399 859 516 835 465 859 b 251 787 335 859 285 835 b 199 586 216 740 199 673 l 199 363 b 251 161 199 276 216 208 b 400 90 286 113 336 90 b 553 161 466 90 517 113 b 608 363 590 208 608 276 l 608 586 m 592 1232 b 543 1106 594 1180 578 1139 b 404 1058 509 1074 463 1058 b 264 1106 345 1058 299 1074 b 216 1232 230 1139 213 1180 l 217 1236 l 319 1236 b 339 1165 319 1207 326 1183 b 404 1139 353 1148 375 1139 b 468 1166 433 1139 454 1148 b 489 1236 482 1184 489 1207 l 591 1236 "},"ŏ":{"ha":667,"x_min":0,"x_max":0,"o":"m 48 361 b 124 618 48 466 73 552 b 332 719 175 685 244 719 b 541 618 420 719 490 685 b 616 361 591 552 616 466 l 616 343 b 541 86 616 238 591 153 b 333 -14 490 20 421 -14 b 124 86 244 -14 175 20 b 48 343 73 153 48 238 l 48 361 m 184 343 b 221 159 184 268 196 207 b 333 87 245 111 283 87 b 444 159 382 87 419 111 b 481 343 469 207 481 269 l 481 361 b 444 544 481 434 469 496 b 332 616 419 592 381 616 b 221 544 282 616 245 592 b 184 361 196 495 184 434 l 184 343 m 522 1008 b 473 883 523 957 507 915 b 334 834 438 850 392 834 b 194 883 275 834 228 850 b 145 1008 159 915 143 957 l 146 1012 l 248 1012 b 269 942 248 983 255 959 b 334 915 283 924 304 915 b 397 942 362 915 383 924 b 418 1012 411 960 418 983 l 520 1012 "},"Ő":{"ha":806,"x_min":0,"x_max":0,"o":"m 743 363 b 649 87 743 247 711 155 b 400 -14 587 20 504 -14 b 155 87 298 -14 216 20 b 63 363 94 155 63 247 l 63 585 b 154 861 63 701 93 793 b 399 963 215 929 297 963 b 649 861 503 963 586 929 b 743 585 711 793 743 701 l 743 363 m 608 586 b 553 787 608 673 589 740 b 399 859 516 835 465 859 b 251 787 335 859 285 835 b 199 586 216 740 199 673 l 199 363 b 251 161 199 276 216 208 b 400 90 286 113 336 90 b 553 161 466 90 517 113 b 608 363 590 208 608 276 l 608 586 m 703 1232 l 705 1227 l 538 1058 l 427 1058 l 425 1061 l 564 1232 m 494 1232 l 496 1228 l 359 1058 l 250 1058 l 361 1232 "},"ő":{"ha":667,"x_min":0,"x_max":0,"o":"m 48 361 b 124 618 48 466 73 552 b 332 719 175 685 244 719 b 541 618 420 719 490 685 b 616 361 591 552 616 466 l 616 343 b 541 86 616 238 591 153 b 333 -14 490 20 421 -14 b 124 86 244 -14 175 20 b 48 343 73 153 48 238 l 48 361 m 184 343 b 221 159 184 268 196 207 b 333 87 245 111 283 87 b 444 159 382 87 419 111 b 481 343 469 207 481 269 l 481 361 b 444 544 481 434 469 496 b 332 616 419 592 381 616 b 221 544 282 616 245 592 b 184 361 196 495 184 434 l 184 343 m 632 1008 l 634 1004 l 468 834 l 356 834 l 354 838 l 494 1008 m 424 1008 l 426 1004 l 288 834 l 179 834 l 290 1008 "},"Œ":{"ha":1131,"x_min":0,"x_max":0,"o":"m 715 441 l 715 101 l 1103 101 l 1103 0 l 581 0 l 581 949 l 1100 949 l 1100 847 l 715 847 l 715 543 l 1044 543 l 1044 441 m 391 963 b 474 959 418 963 446 962 b 559 949 502 957 531 954 l 559 844 b 478 857 534 850 507 854 b 391 861 450 860 421 861 b 248 786 330 861 282 836 b 196 575 213 736 196 666 l 196 376 b 249 163 196 284 214 214 b 393 88 284 113 332 88 b 479 92 422 88 450 90 b 559 105 507 95 534 99 l 559 0 b 471 -10 527 -4 498 -7 b 393 -14 445 -12 419 -14 b 152 94 294 -14 214 22 b 60 376 91 166 60 260 l 60 574 b 152 855 60 689 91 783 b 391 963 213 927 293 963 "},"œ":{"ha":1082,"x_min":0,"x_max":0,"o":"m 848 -14 b 686 33 785 -14 731 2 b 585 164 641 64 607 108 b 486 33 562 108 529 64 b 333 -14 443 2 392 -14 b 124 86 244 -14 175 20 b 48 343 73 153 48 238 l 48 361 b 124 618 48 466 73 552 b 332 719 175 685 244 719 b 487 670 392 719 444 703 b 586 537 530 638 563 594 b 684 670 608 594 641 638 b 833 719 727 703 776 719 b 1015 637 911 719 972 692 b 1080 412 1058 583 1080 507 l 1080 334 l 690 334 b 730 156 690 261 703 201 b 857 87 758 110 800 87 b 949 103 893 87 924 93 b 1025 145 975 113 1000 127 l 1059 59 b 974 8 1039 40 1011 23 b 848 -14 938 -6 896 -14 m 184 343 b 221 159 184 268 196 207 b 333 87 245 111 283 87 b 444 159 382 87 419 111 b 481 343 469 207 481 269 l 481 361 b 444 544 481 434 469 496 b 332 616 419 592 381 616 b 221 544 282 616 245 592 b 184 361 196 495 184 434 l 184 343 m 833 616 b 738 564 793 616 761 599 b 692 426 714 529 699 483 l 946 426 l 946 442 b 918 569 946 496 937 538 b 833 616 900 601 871 616 "},"Ŕ":{"ha":750,"x_min":0,"x_max":0,"o":"m 224 0 l 88 0 l 88 949 l 380 949 b 596 879 474 949 545 925 b 672 678 647 832 672 765 b 636 549 672 629 660 586 b 534 462 613 512 579 483 b 642 380 584 446 620 418 b 675 239 664 342 675 295 l 675 155 b 684 73 675 125 678 98 b 715 15 689 48 700 29 l 715 0 l 575 0 b 545 65 560 14 550 36 b 538 156 541 95 538 125 l 538 237 b 501 362 538 290 526 332 b 397 409 476 393 441 409 l 224 409 m 374 510 b 497 553 430 510 471 524 b 537 677 524 582 537 623 b 498 802 537 731 524 772 b 380 847 473 832 433 847 l 224 847 l 224 510 m 562 1215 l 564 1211 l 402 1042 l 289 1042 l 406 1215 "},"ŕ":{"ha":415,"x_min":0,"x_max":0,"o":"m 325 597 b 254 572 297 597 273 589 b 211 501 235 555 221 531 l 211 0 l 76 0 l 76 705 l 200 705 l 208 596 b 269 686 223 635 243 665 b 356 719 294 708 323 719 b 379 716 365 719 372 718 b 399 711 386 715 393 713 l 384 594 m 445 1006 l 447 1002 l 286 832 l 172 832 l 289 1006 "},"Ŗ":{"ha":750,"x_min":0,"x_max":0,"o":"m 224 0 l 88 0 l 88 949 l 380 949 b 596 879 474 949 545 925 b 672 678 647 832 672 765 b 636 549 672 629 660 586 b 534 462 613 512 579 483 b 642 380 584 446 620 418 b 675 239 664 342 675 295 l 675 155 b 684 73 675 125 678 98 b 715 15 689 48 700 29 l 715 0 l 575 0 b 545 65 560 14 550 36 b 538 156 541 95 538 125 l 538 237 b 501 362 538 290 526 332 b 397 409 476 393 441 409 l 224 409 m 374 510 b 497 553 430 510 471 524 b 537 677 524 582 537 623 b 498 802 537 731 524 772 b 380 847 473 832 433 847 l 224 847 l 224 510 m 353 -334 l 274 -334 l 297 -167 l 297 -52 l 420 -52 l 420 -172 "},"ŗ":{"ha":415,"x_min":0,"x_max":0,"o":"m 325 597 b 254 572 297 597 273 589 b 211 501 235 555 221 531 l 211 0 l 76 0 l 76 705 l 200 705 l 208 596 b 269 686 223 635 243 665 b 356 719 294 708 323 719 b 379 716 365 719 372 718 b 399 711 386 715 393 713 l 384 594 m 149 -333 l 70 -333 l 93 -166 l 93 -52 l 216 -52 l 216 -171 "},"Ř":{"ha":750,"x_min":0,"x_max":0,"o":"m 224 0 l 88 0 l 88 949 l 380 949 b 596 879 474 949 545 925 b 672 678 647 832 672 765 b 636 549 672 629 660 586 b 534 462 613 512 579 483 b 642 380 584 446 620 418 b 675 239 664 342 675 295 l 675 155 b 684 73 675 125 678 98 b 715 15 689 48 700 29 l 715 0 l 575 0 b 545 65 560 14 550 36 b 538 156 541 95 538 125 l 538 237 b 501 362 538 290 526 332 b 397 409 476 393 441 409 l 224 409 m 374 510 b 497 553 430 510 471 524 b 537 677 524 582 537 623 b 498 802 537 731 524 772 b 380 847 473 832 433 847 l 224 847 l 224 510 m 301 1145 l 397 1210 l 483 1196 l 414 1080 m 301 1145 l 258 1116 l 260 1169 m 256 1171 l 258 1175 l 260 1175 l 260 1169 m 413 1078 l 414 1080 l 418 1078 "},"ř":{"ha":415,"x_min":0,"x_max":0,"o":"m 325 597 b 254 572 297 597 273 589 b 211 501 235 555 221 531 l 211 0 l 76 0 l 76 705 l 200 705 l 208 596 b 269 686 223 635 243 665 b 356 719 294 708 323 719 b 379 716 365 719 372 718 b 399 711 386 715 393 713 l 384 594 m 185 936 l 281 1000 l 367 987 l 298 871 m 185 936 l 142 907 l 144 960 m 140 962 l 142 966 l 144 966 l 144 960 m 297 869 l 298 871 l 302 869 "},"Ś":{"ha":739,"x_min":0,"x_max":0,"o":"m 541 246 b 504 349 541 289 529 323 b 370 422 479 374 434 399 b 166 529 281 449 213 485 b 96 706 119 573 96 632 b 172 891 96 781 121 843 b 375 963 223 939 291 963 b 587 882 464 963 534 936 b 663 680 640 828 665 760 l 662 675 l 532 675 b 489 810 532 731 518 776 b 374 861 461 844 422 861 b 267 818 326 861 291 847 b 231 707 243 789 231 752 b 270 604 231 665 244 631 b 406 528 296 578 341 552 b 607 421 495 501 562 465 b 675 248 653 378 675 320 b 595 58 675 169 649 106 b 385 -14 542 10 471 -14 b 164 61 300 -14 226 11 b 74 274 102 110 72 181 l 75 278 l 205 278 b 256 134 205 213 222 165 b 385 87 290 103 333 87 b 500 131 434 87 472 102 b 541 246 527 161 541 199 m 579 1230 l 581 1225 l 420 1056 l 307 1056 l 423 1230 "},"ś":{"ha":600,"x_min":0,"x_max":0,"o":"m 421 178 b 393 247 421 205 412 228 b 287 309 375 265 339 286 b 120 398 213 336 157 366 b 64 522 83 430 64 472 b 131 661 64 576 87 623 b 306 719 176 700 234 719 b 484 656 380 719 439 698 b 549 503 529 614 551 563 l 548 499 l 418 499 b 388 585 418 532 408 561 b 306 622 367 610 340 622 b 225 593 271 622 245 612 b 196 527 206 574 196 552 b 221 464 196 500 204 479 b 328 404 237 448 273 429 b 498 314 403 378 460 348 b 555 184 536 280 555 236 b 486 42 555 126 532 79 b 304 -14 439 5 379 -14 b 115 53 224 -14 161 9 b 49 208 68 97 47 149 l 51 212 l 176 212 b 215 113 177 166 191 134 b 307 83 240 93 270 83 b 391 110 343 83 371 92 b 421 178 411 127 421 150 m 513 1006 l 515 1002 l 354 832 l 241 832 l 357 1006 "},"Ŝ":{"ha":739,"x_min":0,"x_max":0,"o":"m 541 246 b 504 349 541 289 529 323 b 370 422 479 374 434 399 b 166 529 281 449 213 485 b 96 706 119 573 96 632 b 172 891 96 781 121 843 b 375 963 223 939 291 963 b 587 882 464 963 534 936 b 663 680 640 828 665 760 l 662 675 l 532 675 b 489 810 532 731 518 776 b 374 861 461 844 422 861 b 267 818 326 861 291 847 b 231 707 243 789 231 752 b 270 604 231 665 244 631 b 406 528 296 578 341 552 b 607 421 495 501 562 465 b 675 248 653 378 675 320 b 595 58 675 169 649 106 b 385 -14 542 10 471 -14 b 164 61 300 -14 226 11 b 74 274 102 110 72 181 l 75 278 l 205 278 b 256 134 205 213 222 165 b 385 87 290 103 333 87 b 500 131 434 87 472 102 b 541 246 527 161 541 199 m 591 1057 l 473 1057 l 372 1164 l 270 1057 l 153 1057 l 151 1061 l 319 1221 l 425 1221 l 593 1061 "},"ŝ":{"ha":600,"x_min":0,"x_max":0,"o":"m 421 178 b 393 247 421 205 412 228 b 287 309 375 265 339 286 b 120 398 213 336 157 366 b 64 522 83 430 64 472 b 131 661 64 576 87 623 b 306 719 176 700 234 719 b 484 656 380 719 439 698 b 549 503 529 614 551 563 l 548 499 l 418 499 b 388 585 418 532 408 561 b 306 622 367 610 340 622 b 225 593 271 622 245 612 b 196 527 206 574 196 552 b 221 464 196 500 204 479 b 328 404 237 448 273 429 b 498 314 403 378 460 348 b 555 184 536 280 555 236 b 486 42 555 126 532 79 b 304 -14 439 5 379 -14 b 115 53 224 -14 161 9 b 49 208 68 97 47 149 l 51 212 l 176 212 b 215 113 177 166 191 134 b 307 83 240 93 270 83 b 391 110 343 83 371 92 b 421 178 411 127 421 150 m 526 833 l 408 833 l 307 941 l 204 833 l 87 833 l 85 837 l 254 998 l 359 998 l 527 837 "},"Ş":{"ha":739,"x_min":0,"x_max":0,"o":"m 541 246 b 504 349 541 289 529 323 b 370 422 479 374 434 399 b 166 529 281 449 213 485 b 96 706 119 573 96 632 b 172 891 96 781 121 843 b 375 963 223 939 291 963 b 587 882 464 963 534 936 b 663 680 640 828 665 760 l 662 675 l 532 675 b 489 810 532 731 518 776 b 374 861 461 844 422 861 b 267 818 326 861 291 847 b 231 707 243 789 231 752 b 270 604 231 665 244 631 b 406 528 296 578 341 552 b 607 421 495 501 562 465 b 675 248 653 378 675 320 b 595 58 675 169 649 106 b 385 -14 542 10 471 -14 b 164 61 300 -14 226 11 b 74 274 102 110 72 181 l 75 278 l 205 278 b 256 134 205 213 222 165 b 385 87 290 103 333 87 b 500 131 434 87 472 102 b 541 246 527 161 541 199 m 418 -42 b 481 -75 444 -47 465 -58 b 507 -155 498 -93 507 -119 b 458 -257 507 -198 490 -232 b 319 -294 425 -282 379 -294 l 315 -221 b 373 -204 339 -221 358 -216 b 395 -154 388 -193 395 -177 b 375 -109 395 -133 389 -118 b 307 -92 362 -101 339 -95 l 326 -5 l 425 -5 "},"ş":{"ha":600,"x_min":0,"x_max":0,"o":"m 421 178 b 393 247 421 205 412 228 b 287 309 375 265 339 286 b 120 398 213 336 157 366 b 64 522 83 430 64 472 b 131 661 64 576 87 623 b 306 719 176 700 234 719 b 484 656 380 719 439 698 b 549 503 529 614 551 563 l 548 499 l 418 499 b 388 585 418 532 408 561 b 306 622 367 610 340 622 b 225 593 271 622 245 612 b 196 527 206 574 196 552 b 221 464 196 500 204 479 b 328 404 237 448 273 429 b 498 314 403 378 460 348 b 555 184 536 280 555 236 b 486 42 555 126 532 79 b 304 -14 439 5 379 -14 b 115 53 224 -14 161 9 b 49 208 68 97 47 149 l 51 212 l 176 212 b 215 113 177 166 191 134 b 307 83 240 93 270 83 b 391 110 343 83 371 92 b 421 178 411 127 421 150 m 353 -42 b 416 -75 378 -47 399 -58 b 441 -155 432 -93 441 -119 b 392 -257 441 -198 425 -232 b 253 -294 359 -282 313 -294 l 249 -221 b 307 -204 273 -221 292 -216 b 330 -154 322 -193 330 -177 b 310 -109 330 -133 323 -118 b 241 -92 296 -101 274 -95 l 260 -5 l 359 -5 "},"Š":{"ha":739,"x_min":0,"x_max":0,"o":"m 541 246 b 504 349 541 289 529 323 b 370 422 479 374 434 399 b 166 529 281 449 213 485 b 96 706 119 573 96 632 b 172 891 96 781 121 843 b 375 963 223 939 291 963 b 587 882 464 963 534 936 b 663 680 640 828 665 760 l 662 675 l 532 675 b 489 810 532 731 518 776 b 374 861 461 844 422 861 b 267 818 326 861 291 847 b 231 707 243 789 231 752 b 270 604 231 665 244 631 b 406 528 296 578 341 552 b 607 421 495 501 562 465 b 675 248 653 378 675 320 b 595 58 675 169 649 106 b 385 -14 542 10 471 -14 b 164 61 300 -14 226 11 b 74 274 102 110 72 181 l 75 278 l 205 278 b 256 134 205 213 222 165 b 385 87 290 103 333 87 b 500 131 434 87 472 102 b 541 246 527 161 541 199 m 319 1160 l 415 1224 l 500 1211 l 432 1095 m 319 1160 l 275 1131 l 277 1183 m 274 1185 l 275 1190 l 278 1190 l 277 1183 m 431 1093 l 432 1095 l 435 1093 "},"š":{"ha":600,"x_min":0,"x_max":0,"o":"m 421 178 b 393 247 421 205 412 228 b 287 309 375 265 339 286 b 120 398 213 336 157 366 b 64 522 83 430 64 472 b 131 661 64 576 87 623 b 306 719 176 700 234 719 b 484 656 380 719 439 698 b 549 503 529 614 551 563 l 548 499 l 418 499 b 388 585 418 532 408 561 b 306 622 367 610 340 622 b 225 593 271 622 245 612 b 196 527 206 574 196 552 b 221 464 196 500 204 479 b 328 404 237 448 273 429 b 498 314 403 378 460 348 b 555 184 536 280 555 236 b 486 42 555 126 532 79 b 304 -14 439 5 379 -14 b 115 53 224 -14 161 9 b 49 208 68 97 47 149 l 51 212 l 176 212 b 215 113 177 166 191 134 b 307 83 240 93 270 83 b 391 110 343 83 371 92 b 421 178 411 127 421 150 m 253 936 l 349 1000 l 435 987 l 366 871 m 253 936 l 210 907 l 212 960 m 208 962 l 210 966 l 212 966 l 212 960 m 365 869 l 366 871 l 370 869 "},"Ţ":{"ha":692,"x_min":0,"x_max":0,"o":"m 413 847 l 413 0 l 277 0 l 277 847 l 22 847 l 22 949 l 669 949 l 669 847 m 345 -333 l 265 -333 l 288 -166 l 288 -52 l 411 -52 l 411 -171 "},"ţ":{"ha":412,"x_min":0,"x_max":0,"o":"m 243 705 l 378 705 l 378 610 l 243 610 l 243 200 b 260 115 243 160 249 131 b 306 90 271 98 286 90 b 337 92 317 90 327 90 b 368 100 348 94 358 97 l 388 9 b 336 -7 373 3 356 -3 b 277 -14 316 -11 297 -14 b 153 42 224 -14 183 5 b 109 215 124 79 109 137 l 109 610 l 18 610 l 18 705 l 109 705 l 109 881 l 243 881 m 252 -350 l 172 -350 l 195 -183 l 195 -68 l 318 -68 l 318 -188 "},"Ť":{"ha":692,"x_min":0,"x_max":0,"o":"m 413 847 l 413 0 l 277 0 l 277 847 l 22 847 l 22 949 l 669 949 l 669 847 m 293 1146 l 389 1211 l 475 1197 l 406 1081 m 293 1146 l 250 1117 l 252 1170 m 248 1172 l 250 1176 l 252 1176 l 252 1170 m 405 1079 l 406 1081 l 410 1079 "},"ť":{"ha":412,"x_min":0,"x_max":0,"o":"m 243 705 l 378 705 l 378 610 l 243 610 l 243 200 b 260 115 243 160 249 131 b 306 90 271 98 286 90 b 337 92 317 90 327 90 b 368 100 348 94 358 97 l 388 9 b 336 -7 373 3 356 -3 b 277 -14 316 -11 297 -14 b 153 42 224 -14 183 5 b 109 215 124 79 109 137 l 109 610 l 18 610 l 18 705 l 109 705 l 109 881 l 243 881 "},"Ŧ":{"ha":692,"x_min":0,"x_max":0,"o":"m 413 604 l 413 0 l 277 0 l 277 604 l 151 604 l 151 697 l 277 697 l 277 847 l 22 847 l 22 949 l 669 949 l 669 847 l 413 847 l 413 697 l 546 697 l 546 604 "},"ŧ":{"ha":439,"x_min":0,"x_max":0,"o":"m 243 705 l 378 705 l 378 610 l 243 610 l 243 520 l 375 520 l 375 427 l 243 427 l 243 200 b 260 115 243 160 249 131 b 306 90 271 98 286 90 b 337 92 317 90 327 90 b 368 100 348 94 358 97 l 388 9 b 336 -7 373 3 356 -3 b 277 -14 316 -11 297 -14 b 153 42 224 -14 183 5 b 109 215 124 79 109 137 l 109 427 l 23 427 l 23 520 l 109 520 l 109 610 l 18 610 l 18 705 l 109 705 l 109 881 l 243 881 "},"Ũ":{"ha":798,"x_min":0,"x_max":0,"o":"m 721 321 b 631 75 721 216 691 134 b 397 -14 571 16 493 -14 b 167 75 303 -14 226 16 b 79 321 108 134 79 216 l 79 949 l 214 949 l 214 321 b 264 149 214 248 230 190 b 397 87 297 108 342 87 b 534 149 454 87 500 108 b 586 321 569 190 586 248 l 586 949 l 721 949 m 606 1198 b 572 1097 606 1158 594 1124 b 487 1056 549 1070 521 1056 b 399 1088 460 1056 430 1067 b 322 1120 367 1109 342 1120 b 284 1098 307 1120 294 1112 b 269 1044 274 1083 269 1066 l 195 1063 b 228 1164 195 1102 206 1136 b 313 1206 251 1192 279 1206 b 396 1175 335 1206 362 1196 b 478 1143 431 1153 458 1143 b 516 1164 493 1143 505 1150 b 532 1219 527 1179 532 1197 l 606 1198 "},"ũ":{"ha":667,"x_min":0,"x_max":0,"o":"m 460 101 b 387 16 441 64 416 36 b 283 -14 357 -4 322 -14 b 129 61 217 -14 166 11 b 73 294 91 111 73 189 l 73 705 l 208 705 l 208 293 b 235 135 208 217 217 165 b 316 90 253 105 280 90 b 401 114 350 90 378 98 b 456 182 425 130 443 153 l 456 705 l 591 705 l 591 0 l 467 0 l 460 101 m 537 975 b 503 873 537 934 526 900 b 418 832 481 846 452 832 b 330 864 391 832 362 843 b 254 896 299 885 273 896 b 215 874 238 896 225 889 b 200 821 205 860 200 842 l 126 839 b 160 940 126 878 137 912 b 245 983 182 969 210 983 b 328 951 266 983 294 972 b 410 919 362 930 389 919 b 448 941 424 919 437 926 b 464 995 458 955 464 973 l 537 975 "},"Ū":{"ha":798,"x_min":0,"x_max":0,"o":"m 721 321 b 631 75 721 216 691 134 b 397 -14 571 16 493 -14 b 167 75 303 -14 226 16 b 79 321 108 134 79 216 l 79 949 l 214 949 l 214 321 b 264 149 214 248 230 190 b 397 87 297 108 342 87 b 534 149 454 87 500 108 b 586 321 569 190 586 248 l 586 949 l 721 949 m 180 1061 l 180 1155 l 621 1155 l 621 1061 "},"ū":{"ha":667,"x_min":0,"x_max":0,"o":"m 460 101 b 387 16 441 64 416 36 b 283 -14 357 -4 322 -14 b 129 61 217 -14 166 11 b 73 294 91 111 73 189 l 73 705 l 208 705 l 208 293 b 235 135 208 217 217 165 b 316 90 253 105 280 90 b 401 114 350 90 378 98 b 456 182 425 130 443 153 l 456 705 l 591 705 l 591 0 l 467 0 l 460 101 m 112 838 l 112 932 l 552 932 l 552 838 "},"Ŭ":{"ha":798,"x_min":0,"x_max":0,"o":"m 721 321 b 631 75 721 216 691 134 b 397 -14 571 16 493 -14 b 167 75 303 -14 226 16 b 79 321 108 134 79 216 l 79 949 l 214 949 l 214 321 b 264 149 214 248 230 190 b 397 87 297 108 342 87 b 534 149 454 87 500 108 b 586 321 569 190 586 248 l 586 949 l 721 949 m 589 1218 b 541 1093 591 1167 575 1125 b 401 1044 506 1061 460 1044 b 261 1093 343 1044 296 1061 b 213 1218 227 1125 211 1167 l 214 1222 l 316 1222 b 337 1152 316 1193 323 1170 b 401 1125 351 1134 372 1125 b 465 1152 430 1125 451 1134 b 486 1222 479 1170 486 1194 l 588 1222 "},"ŭ":{"ha":667,"x_min":0,"x_max":0,"o":"m 460 101 b 387 16 441 64 416 36 b 283 -14 357 -4 322 -14 b 129 61 217 -14 166 11 b 73 294 91 111 73 189 l 73 705 l 208 705 l 208 293 b 235 135 208 217 217 165 b 316 90 253 105 280 90 b 401 114 350 90 378 98 b 456 182 425 130 443 153 l 456 705 l 591 705 l 591 0 l 467 0 l 460 101 m 521 994 b 472 869 523 943 506 901 b 333 821 438 837 391 821 b 193 869 274 821 228 837 b 144 994 158 901 142 943 l 146 998 l 248 998 b 268 928 248 969 254 946 b 333 901 282 910 304 901 b 397 928 361 901 383 910 b 418 998 411 946 418 970 l 519 998 "},"Ů":{"ha":798,"x_min":0,"x_max":0,"o":"m 721 321 b 631 75 721 216 691 134 b 397 -14 571 16 493 -14 b 167 75 303 -14 226 16 b 79 321 108 134 79 216 l 79 949 l 214 949 l 214 321 b 264 149 214 248 230 190 b 397 87 297 108 342 87 b 534 149 454 87 500 108 b 586 321 569 190 586 248 l 586 949 l 721 949 m 289 1133 b 321 1211 289 1164 300 1190 b 400 1243 343 1232 369 1243 b 478 1211 431 1243 457 1232 b 511 1133 500 1190 511 1164 b 478 1056 511 1102 500 1076 b 400 1026 457 1036 431 1026 b 321 1056 369 1026 343 1036 b 289 1133 300 1076 289 1102 m 351 1133 b 365 1097 351 1118 355 1106 b 400 1082 374 1087 386 1082 b 435 1097 414 1082 425 1087 b 449 1133 444 1106 449 1118 b 435 1171 449 1148 444 1161 b 400 1186 425 1181 414 1186 b 365 1171 386 1186 374 1181 b 351 1133 355 1161 351 1148 "},"ů":{"ha":667,"x_min":0,"x_max":0,"o":"m 460 101 b 387 16 441 64 416 36 b 283 -14 357 -4 322 -14 b 129 61 217 -14 166 11 b 73 294 91 111 73 189 l 73 705 l 208 705 l 208 293 b 235 135 208 217 217 165 b 316 90 253 105 280 90 b 401 114 350 90 378 98 b 456 182 425 130 443 153 l 456 705 l 591 705 l 591 0 l 467 0 l 460 101 m 220 909 b 253 987 220 940 231 966 b 332 1019 274 1009 300 1019 b 410 987 362 1019 388 1009 b 442 909 431 966 442 940 b 410 832 442 878 431 853 b 332 802 388 812 362 802 b 253 832 300 802 274 812 b 220 909 231 853 220 878 m 282 909 b 296 873 282 895 287 882 b 332 859 306 863 318 859 b 366 873 345 859 357 863 b 380 909 376 882 380 895 b 366 947 380 924 376 937 b 332 962 357 957 345 962 b 296 947 318 962 306 957 b 282 909 287 937 282 924 "},"Ű":{"ha":798,"x_min":0,"x_max":0,"o":"m 721 321 b 631 75 721 216 691 134 b 397 -14 571 16 493 -14 b 167 75 303 -14 226 16 b 79 321 108 134 79 216 l 79 949 l 214 949 l 214 321 b 264 149 214 248 230 190 b 397 87 297 108 342 87 b 534 149 454 87 500 108 b 586 321 569 190 586 248 l 586 949 l 721 949 m 700 1218 l 702 1214 l 536 1044 l 424 1044 l 422 1048 l 562 1218 m 492 1218 l 494 1215 l 356 1044 l 247 1044 l 358 1218 "},"ű":{"ha":667,"x_min":0,"x_max":0,"o":"m 460 101 b 387 16 441 64 416 36 b 283 -14 357 -4 322 -14 b 129 61 217 -14 166 11 b 73 294 91 111 73 189 l 73 705 l 208 705 l 208 293 b 235 135 208 217 217 165 b 316 90 253 105 280 90 b 401 114 350 90 378 98 b 456 182 425 130 443 153 l 456 705 l 591 705 l 591 0 l 467 0 l 460 101 m 631 994 l 633 990 l 467 821 l 355 821 l 353 824 l 493 994 m 423 994 l 425 991 l 288 821 l 178 821 l 290 994 "},"Ų":{"ha":798,"x_min":0,"x_max":0,"o":"m 721 321 b 631 75 721 216 691 134 b 397 -14 571 16 493 -14 b 167 75 303 -14 226 16 b 79 321 108 134 79 216 l 79 949 l 214 949 l 214 321 b 264 149 214 248 230 190 b 397 87 297 108 342 87 b 534 149 454 87 500 108 b 586 321 569 190 586 248 l 586 949 l 721 949 m 503 -74 b 428 -102 474 -75 450 -85 b 396 -173 407 -119 396 -143 l 396 -188 l 537 -188 l 537 -270 l 264 -270 b 261 -244 263 -262 262 -253 b 260 -219 261 -235 260 -227 b 293 -91 260 -168 271 -125 b 373 -23 315 -56 342 -33 l 373 0 l 502 0 "},"ų":{"ha":667,"x_min":0,"x_max":0,"o":"m 460 101 b 387 16 441 64 416 36 b 283 -14 357 -4 322 -14 b 129 61 217 -14 166 11 b 73 294 91 111 73 189 l 73 705 l 208 705 l 208 293 b 235 135 208 217 217 165 b 316 90 253 105 280 90 b 401 114 350 90 378 98 b 456 182 425 130 443 153 l 456 705 l 591 705 l 591 0 l 467 0 l 460 101 m 591 -74 b 517 -102 563 -75 539 -85 b 485 -173 496 -119 485 -143 l 485 -188 l 626 -188 l 626 -270 l 353 -270 b 350 -244 352 -262 351 -253 b 349 -219 350 -235 349 -227 b 382 -91 349 -168 360 -125 b 462 -23 404 -56 431 -33 l 462 0 l 591 0 "},"Ŵ":{"ha":1028,"x_min":0,"x_max":0,"o":"m 741 276 l 867 949 l 1008 949 l 809 0 l 683 0 l 516 662 l 512 662 l 345 0 l 218 0 l 20 949 l 162 949 l 288 277 l 292 277 l 454 949 l 573 949 l 736 276 m 732 1043 l 614 1043 l 513 1151 l 411 1043 l 294 1043 l 292 1047 l 460 1208 l 566 1208 l 734 1047 "},"ŵ":{"ha":879,"x_min":0,"x_max":0,"o":"m 621 237 l 713 705 l 850 705 l 683 0 l 571 0 l 439 444 l 435 444 l 304 0 l 193 0 l 25 705 l 162 705 l 257 242 l 261 242 l 391 705 l 484 705 l 616 236 m 656 819 l 538 819 l 437 927 l 335 819 l 218 819 l 216 823 l 385 984 l 490 984 l 658 823 "},"Ŷ":{"ha":746,"x_min":0,"x_max":0,"o":"m 374 486 l 576 949 l 727 949 l 438 343 l 438 0 l 302 0 l 302 351 l 16 949 l 167 949 l 370 486 m 593 1043 l 475 1043 l 374 1151 l 271 1043 l 154 1043 l 153 1047 l 321 1208 l 427 1208 l 594 1047 "},"ŷ":{"ha":597,"x_min":0,"x_max":0,"o":"m 291 195 l 295 195 l 437 705 l 585 705 l 328 -109 b 259 -233 312 -158 288 -199 b 133 -285 230 -268 188 -285 b 96 -281 121 -285 109 -284 b 59 -273 84 -279 71 -276 l 74 -175 b 96 -178 81 -176 88 -177 b 115 -179 104 -179 110 -179 b 178 -146 141 -179 162 -168 b 214 -68 193 -124 205 -98 l 239 4 l 12 705 l 159 705 l 281 243 m 517 819 l 399 819 l 298 927 l 195 819 l 78 819 l 77 823 l 245 984 l 351 984 l 518 823 "},"Ÿ":{"ha":746,"x_min":0,"x_max":0,"o":"m 374 486 l 576 949 l 727 949 l 438 343 l 438 0 l 302 0 l 302 351 l 16 949 l 167 949 l 370 486 m 452 1044 l 452 1164 l 597 1164 l 597 1044 m 151 1044 l 151 1164 l 296 1164 l 296 1044 "},"Ź":{"ha":664,"x_min":0,"x_max":0,"o":"m 616 101 l 616 0 l 51 0 l 51 82 l 456 847 l 54 847 l 54 949 l 604 949 l 604 870 l 195 101 m 544 1216 l 546 1212 l 385 1042 l 271 1042 l 388 1216 "},"ź":{"ha":597,"x_min":0,"x_max":0,"o":"m 553 101 l 553 0 l 51 0 l 51 84 l 383 603 l 58 603 l 58 705 l 538 705 l 538 623 l 203 101 m 509 992 l 511 988 l 349 819 l 236 819 l 353 992 "},"Ż":{"ha":664,"x_min":0,"x_max":0,"o":"m 616 101 l 616 0 l 51 0 l 51 82 l 456 847 l 54 847 l 54 949 l 604 949 l 604 870 l 195 101 m 262 1044 l 262 1175 l 413 1175 l 413 1044 "},"ż":{"ha":597,"x_min":0,"x_max":0,"o":"m 553 101 l 553 0 l 51 0 l 51 84 l 383 603 l 58 603 l 58 705 l 538 705 l 538 623 l 203 101 m 227 821 l 227 951 l 378 951 l 378 821 "},"Ž":{"ha":664,"x_min":0,"x_max":0,"o":"m 616 101 l 616 0 l 51 0 l 51 82 l 456 847 l 54 847 l 54 949 l 604 949 l 604 870 l 195 101 m 283 1146 l 380 1211 l 465 1197 l 397 1081 m 283 1146 l 240 1117 l 242 1170 m 239 1172 l 240 1176 l 243 1176 l 242 1170 m 395 1079 l 397 1081 l 400 1079 "},"ž":{"ha":597,"x_min":0,"x_max":0,"o":"m 553 101 l 553 0 l 51 0 l 51 84 l 383 603 l 58 603 l 58 705 l 538 705 l 538 623 l 203 101 m 248 922 l 345 987 l 430 973 l 361 857 m 248 922 l 205 893 l 207 946 m 203 948 l 205 952 l 208 952 l 207 946 m 360 855 l 361 857 l 365 855 "},"ſ":{"ha":301,"x_min":0,"x_max":0,"o":"m 81 797 b 137 970 81 871 100 929 b 292 1031 173 1010 225 1031 b 334 1027 306 1031 320 1030 b 378 1017 348 1025 363 1021 l 365 922 b 339 926 356 923 348 925 b 311 928 331 928 322 928 b 241 894 281 928 257 917 b 216 797 224 871 216 838 l 216 0 l 81 0 "},"ƒ":{"ha":416,"x_min":0,"x_max":0,"o":"m 260 610 l 260 -48 b 206 -223 260 -124 242 -182 b 58 -285 170 -264 121 -285 b 22 -282 45 -285 33 -284 b -14 -273 11 -280 -1 -277 l -5 -174 b 21 -180 1 -176 10 -178 b 50 -182 31 -182 41 -182 b 104 -147 73 -182 91 -171 b 124 -48 118 -123 124 -90 l 124 0 l 122 0 l 122 610 l 27 610 l 27 705 l 122 705 l 122 797 b 178 970 122 871 141 929 b 333 1031 215 1010 267 1031 b 375 1027 347 1031 360 1030 b 420 1017 389 1025 404 1021 l 406 920 b 380 924 398 921 389 923 b 349 926 371 926 361 926 b 280 893 319 926 296 915 b 257 797 265 870 257 838 l 257 705 l 386 705 l 386 610 "},"Ơ":{"ha":875,"x_min":0,"x_max":0,"o":"m 739 363 b 646 87 739 247 708 155 b 397 -14 583 20 500 -14 b 152 87 295 -14 213 20 b 60 363 90 155 60 247 l 60 585 b 151 861 60 701 90 793 b 395 963 212 929 293 963 b 592 907 471 963 537 944 b 712 749 647 869 687 817 b 791 823 747 763 773 788 b 819 954 810 858 819 902 l 931 954 b 881 755 931 873 914 807 b 735 650 847 703 798 668 b 738 617 736 639 738 628 b 739 585 739 606 739 595 l 739 363 m 604 586 b 549 787 604 673 586 740 b 395 859 513 835 461 859 b 247 787 331 859 282 835 b 195 586 213 740 195 673 l 195 363 b 248 161 195 276 213 208 b 397 90 283 113 333 90 b 550 161 463 90 514 113 b 604 363 586 208 604 276 l 604 586 "},"ơ":{"ha":679,"x_min":0,"x_max":0,"o":"m 48 361 b 124 618 48 466 73 552 b 332 719 175 685 244 719 b 468 683 383 719 428 707 b 564 584 507 660 539 626 b 612 643 585 597 601 617 b 628 737 623 669 628 700 l 735 737 b 701 581 735 675 724 623 b 602 488 678 538 645 507 b 612 426 606 468 610 447 b 616 361 615 405 616 383 l 616 343 b 541 86 616 238 591 153 b 333 -14 490 20 421 -14 b 124 86 244 -14 175 20 b 48 343 73 153 48 238 l 48 361 m 184 343 b 221 159 184 268 196 207 b 333 87 245 111 283 87 b 444 159 382 87 419 111 b 481 343 469 207 481 269 l 481 361 b 444 544 481 434 469 496 b 332 616 419 592 381 616 b 221 544 282 616 245 592 b 184 361 196 495 184 434 l 184 343 "},"Ư":{"ha":859,"x_min":0,"x_max":0,"o":"m 721 753 l 725 752 b 802 817 759 761 785 782 b 827 954 819 851 827 897 l 940 954 b 885 739 940 864 922 793 b 721 642 848 686 793 653 l 721 321 b 631 75 721 216 691 134 b 397 -14 571 16 493 -14 b 167 75 303 -14 226 16 b 79 321 108 134 79 216 l 79 949 l 214 949 l 214 321 b 264 149 214 248 230 190 b 397 87 297 108 342 87 b 534 149 454 87 500 108 b 586 321 569 190 586 248 l 586 949 l 721 949 "},"ư":{"ha":825,"x_min":0,"x_max":0,"o":"m 793 703 b 746 525 795 626 779 567 b 591 450 713 482 661 457 l 591 0 l 467 0 l 460 101 b 387 16 441 64 416 36 b 283 -14 357 -4 322 -14 b 129 61 217 -14 166 11 b 73 294 91 111 73 189 l 73 705 l 208 705 l 208 293 b 235 135 208 217 217 165 b 316 90 253 105 280 90 b 401 114 350 90 378 98 b 456 182 425 130 443 153 l 456 705 l 591 705 l 591 543 l 595 541 b 675 588 633 545 659 561 b 699 706 691 615 699 654 l 791 706 "},"ǰ":{"ha":317,"x_min":0,"x_max":0,"o":"m 230 -48 b 176 -223 230 -124 212 -182 b 28 -285 141 -264 91 -285 b -7 -282 15 -285 3 -284 b -44 -273 -18 -280 -31 -277 l -35 -174 b -9 -180 -28 -176 -19 -178 b 20 -182 2 -182 11 -182 b 75 -147 43 -182 61 -171 b 94 -48 88 -123 94 -90 l 94 705 l 230 705 m 102 915 l 199 979 l 284 966 l 216 850 m 102 915 l 59 886 l 61 939 m 58 941 l 59 945 l 62 945 l 61 939 m 214 848 l 216 850 l 219 848 "},"Ǻ":{"ha":746,"x_min":0,"x_max":0,"o":"m 229 240 l 159 0 l 19 0 l 310 949 l 441 949 l 730 0 l 589 0 l 519 240 m 488 345 l 377 731 l 373 731 l 260 345 m 262 1133 b 294 1211 262 1164 273 1190 b 373 1243 315 1232 342 1243 b 451 1211 404 1243 430 1232 b 484 1133 473 1190 484 1164 b 451 1056 484 1102 473 1076 b 373 1026 430 1036 404 1026 b 294 1056 342 1026 315 1036 b 262 1133 273 1076 262 1102 m 323 1133 b 338 1097 323 1118 328 1106 b 373 1082 347 1087 359 1082 b 408 1097 387 1082 398 1087 b 422 1133 417 1106 422 1118 b 408 1171 422 1148 417 1161 b 373 1186 398 1181 387 1186 b 338 1171 359 1186 347 1181 b 323 1133 328 1161 323 1148 m 580 1216 l 582 1212 l 420 1042 l 307 1042 l 424 1216 "},"ǻ":{"ha":632,"x_min":0,"x_max":0,"o":"m 437 0 b 425 53 432 18 428 36 b 419 104 422 70 420 87 b 347 20 401 70 377 42 b 243 -14 317 -2 283 -14 b 96 42 180 -14 131 5 b 45 195 62 80 45 131 b 115 353 45 262 68 315 b 313 410 162 391 228 410 l 418 410 l 418 483 b 391 583 418 526 409 559 b 309 619 372 607 345 619 b 232 588 276 619 251 609 b 205 507 214 567 205 540 l 75 507 l 74 511 b 138 656 71 565 93 614 b 317 719 183 698 243 719 b 489 657 389 719 446 698 b 554 481 532 617 554 558 l 554 154 b 559 76 554 127 556 101 b 576 0 563 50 569 25 l 437 0 m 272 89 b 365 121 307 89 338 100 b 418 199 392 143 409 169 l 418 327 l 311 327 b 214 289 269 327 237 314 b 180 195 191 264 180 232 b 204 118 180 163 188 137 b 272 89 220 99 243 89 m 198 923 b 230 1001 198 954 209 980 b 309 1033 252 1022 278 1033 b 388 1001 340 1033 366 1022 b 420 923 409 980 420 954 b 388 846 420 892 409 866 b 309 816 366 826 340 816 b 230 846 278 816 252 826 b 198 923 209 866 198 892 m 260 923 b 274 886 260 908 264 896 b 309 872 283 877 295 872 b 344 886 323 872 334 877 b 358 923 353 896 358 908 b 344 961 358 938 353 950 b 309 976 334 971 323 976 b 274 961 295 976 283 971 b 260 923 264 950 260 938 m 516 1006 l 518 1002 l 357 832 l 243 832 l 360 1006 "},"Ǽ":{"ha":1126,"x_min":0,"x_max":0,"o":"m 575 0 l 566 235 l 283 235 l 172 0 l 12 0 l 487 949 l 1048 949 l 1048 847 l 680 847 l 691 543 l 1001 543 l 1001 441 l 694 441 l 707 102 l 1082 102 l 1082 0 m 562 347 l 545 781 l 542 783 l 336 347 m 753 1216 l 755 1212 l 594 1042 l 481 1042 l 597 1216 "},"ǽ":{"ha":1023,"x_min":0,"x_max":0,"o":"m 738 -14 b 604 16 687 -14 643 -4 b 508 100 565 36 533 64 b 414 19 485 68 454 41 b 268 -14 373 -3 325 -14 b 108 43 199 -14 145 5 b 52 198 71 81 52 132 b 121 354 52 265 75 317 b 322 410 167 391 234 410 l 441 410 l 441 467 b 414 577 441 514 432 550 b 337 616 396 603 371 616 b 251 581 301 616 272 605 b 219 494 230 558 219 529 l 90 504 l 89 508 b 154 659 87 569 108 619 b 338 719 200 699 261 719 b 449 697 379 719 416 712 b 530 633 481 682 508 661 b 613 696 553 660 581 682 b 720 719 645 711 681 719 b 907 635 800 719 863 691 b 975 406 952 579 975 502 l 975 326 l 579 326 b 621 153 580 254 594 197 b 747 87 648 109 690 87 b 842 105 785 87 817 93 b 922 155 868 116 895 133 l 962 68 b 870 12 939 47 909 28 b 738 -14 832 -5 788 -14 m 294 83 b 376 109 321 83 348 92 b 441 168 404 126 425 146 l 441 320 l 323 320 b 223 284 280 320 247 308 b 187 195 199 260 187 230 b 214 114 187 161 196 134 b 294 83 232 93 259 83 m 720 616 b 623 562 678 616 646 598 b 581 416 600 525 586 477 l 841 416 l 841 436 b 811 567 841 490 831 533 b 720 616 791 600 760 616 m 720 1006 l 722 1002 l 560 832 l 447 832 l 564 1006 "},"Ǿ":{"ha":802,"x_min":0,"x_max":0,"o":"m 739 363 b 646 87 739 247 708 155 b 397 -14 583 20 500 -14 b 303 -3 363 -14 332 -10 b 222 30 274 5 247 15 l 176 -59 l 96 -59 l 165 74 b 87 197 131 107 105 148 b 60 363 69 246 60 302 l 60 585 b 151 861 60 701 90 793 b 395 963 212 929 293 963 b 504 948 434 963 470 958 b 596 904 538 938 569 923 l 640 987 l 720 987 l 651 854 b 716 736 680 821 701 782 b 739 585 732 691 739 640 l 739 363 m 195 363 b 203 271 195 329 198 298 b 226 201 208 243 216 220 l 230 200 l 541 798 b 477 843 523 817 502 833 b 395 859 453 853 426 859 b 247 787 331 859 282 835 b 195 586 213 740 195 673 l 195 363 m 604 586 b 599 659 604 612 602 636 b 584 717 595 681 590 701 l 581 718 l 275 131 b 330 100 291 117 309 106 b 397 90 350 93 372 90 b 550 161 463 90 514 113 b 604 363 586 208 604 276 l 604 586 m 609 1253 l 611 1249 l 450 1080 l 336 1080 l 453 1253 "},"ǿ":{"ha":694,"x_min":0,"x_max":0,"o":"m 48 361 b 124 618 48 466 73 552 b 332 719 175 685 244 719 b 397 711 355 719 377 716 b 457 689 418 706 438 699 l 500 791 l 581 791 l 518 644 b 591 522 550 612 574 571 b 616 361 608 473 616 420 l 616 343 b 541 86 616 238 591 153 b 333 -14 490 20 421 -14 b 286 -9 317 -14 301 -12 b 241 1 270 -7 255 -3 l 202 -90 l 121 -90 l 176 36 b 81 161 135 66 103 108 b 48 343 59 215 48 275 l 48 361 m 184 343 b 194 236 184 304 187 269 b 224 158 200 203 210 177 l 228 157 l 412 585 b 375 608 401 595 389 603 b 332 616 362 614 347 616 b 221 544 282 616 245 592 b 184 361 196 495 184 434 l 184 343 m 481 361 b 476 438 481 387 480 413 b 460 500 472 462 467 483 l 456 501 l 283 98 b 306 90 290 94 298 91 b 333 87 315 88 323 87 b 444 159 382 87 419 111 b 481 343 469 207 481 269 l 481 361 m 554 1078 l 556 1074 l 395 904 l 281 904 l 398 1078 "},"Ș":{"ha":739,"x_min":0,"x_max":0,"o":"m 541 246 b 504 349 541 289 529 323 b 370 422 479 374 434 399 b 166 529 281 449 213 485 b 96 706 119 573 96 632 b 172 891 96 781 121 843 b 375 963 223 939 291 963 b 587 882 464 963 534 936 b 663 680 640 828 665 760 l 662 675 l 532 675 b 489 810 532 731 518 776 b 374 861 461 844 422 861 b 267 818 326 861 291 847 b 231 707 243 789 231 752 b 270 604 231 665 244 631 b 406 528 296 578 341 552 b 607 421 495 501 562 465 b 675 248 653 378 675 320 b 595 58 675 169 649 106 b 385 -14 542 10 471 -14 b 164 61 300 -14 226 11 b 74 274 102 110 72 181 l 75 278 l 205 278 b 256 134 205 213 222 165 b 385 87 290 103 333 87 b 500 131 434 87 472 102 b 541 246 527 161 541 199 m 370 -347 l 291 -347 l 314 -180 l 314 -65 l 437 -65 l 437 -184 "},"ș":{"ha":600,"x_min":0,"x_max":0,"o":"m 421 178 b 393 247 421 205 412 228 b 287 309 375 265 339 286 b 120 398 213 336 157 366 b 64 522 83 430 64 472 b 131 661 64 576 87 623 b 306 719 176 700 234 719 b 484 656 380 719 439 698 b 549 503 529 614 551 563 l 548 499 l 418 499 b 388 585 418 532 408 561 b 306 622 367 610 340 622 b 225 593 271 622 245 612 b 196 527 206 574 196 552 b 221 464 196 500 204 479 b 328 404 237 448 273 429 b 498 314 403 378 460 348 b 555 184 536 280 555 236 b 486 42 555 126 532 79 b 304 -14 439 5 379 -14 b 115 53 224 -14 161 9 b 49 208 68 97 47 149 l 51 212 l 176 212 b 215 113 177 166 191 134 b 307 83 240 93 270 83 b 391 110 343 83 371 92 b 421 178 411 127 421 150 m 304 -347 l 225 -347 l 248 -180 l 248 -65 l 371 -65 l 371 -184 "},"ȷ":{"ha":317,"x_min":0,"x_max":0,"o":"m 230 -48 b 176 -223 230 -124 212 -182 b 28 -285 141 -264 91 -285 b -7 -282 15 -285 3 -284 b -44 -273 -18 -280 -31 -277 l -35 -174 b -9 -180 -28 -176 -19 -178 b 20 -182 2 -182 11 -182 b 75 -147 43 -182 61 -171 b 94 -48 88 -123 94 -90 l 94 705 l 230 705 "},"ʼ":{"ha":309,"x_min":0,"x_max":0,"o":"m 161 610 l 94 610 l 96 774 l 96 949 l 218 949 l 218 776 "},"ˆ":{"ha":570,"x_min":0,"x_max":0,"o":"m 500 817 l 382 817 l 281 924 l 178 817 l 61 817 l 60 821 l 228 981 l 334 981 l 501 821 "},"ˇ":{"ha":540,"x_min":0,"x_max":0,"o":"m 214 918 l 310 983 l 395 969 l 327 853 m 214 918 l 170 889 l 172 942 m 169 944 l 170 948 l 173 948 l 172 942 m 326 851 l 327 853 l 330 851 "},"˘":{"ha":538,"x_min":0,"x_max":0,"o":"m 454 945 b 405 820 456 894 439 853 b 266 772 371 788 324 772 b 126 820 207 772 160 788 b 77 945 91 853 75 894 l 79 949 l 180 949 b 201 879 180 921 187 897 b 266 852 215 861 236 852 b 330 880 294 852 316 861 b 351 949 344 898 351 921 l 452 949 "},"˙":{"ha":340,"x_min":0,"x_max":0,"o":"m 88 821 l 88 951 l 239 951 l 239 821 "},"˚":{"ha":415,"x_min":0,"x_max":0,"o":"m 95 853 b 127 931 95 884 106 910 b 206 963 149 952 175 963 b 284 931 237 963 263 952 b 317 853 306 910 317 884 b 284 776 317 822 306 796 b 206 746 263 756 237 746 b 127 776 175 746 149 756 b 95 853 106 796 95 822 m 157 853 b 171 817 157 838 161 826 b 206 802 180 807 192 802 b 241 817 220 802 231 807 b 255 853 250 826 255 838 b 241 891 255 868 250 881 b 206 906 231 901 220 906 b 171 891 192 906 180 901 b 157 853 161 881 157 868 "},"˛":{"ha":339,"x_min":0,"x_max":0,"o":"m 258 -74 b 184 -102 230 -75 206 -85 b 152 -173 163 -119 152 -143 l 152 -188 l 293 -188 l 293 -270 l 20 -270 b 17 -244 19 -262 18 -253 b 16 -219 17 -235 16 -227 b 49 -91 16 -168 27 -125 b 129 -23 71 -56 98 -33 l 129 0 l 258 0 "},"˜":{"ha":566,"x_min":0,"x_max":0,"o":"m 487 968 b 453 866 487 928 476 894 b 368 825 430 839 402 825 b 280 857 341 825 312 836 b 203 889 248 878 223 889 b 165 867 188 889 175 882 b 150 814 155 853 150 835 l 76 832 b 110 933 76 871 87 905 b 195 976 132 962 160 976 b 278 944 216 976 244 965 b 359 912 312 923 339 912 b 397 934 374 912 387 919 b 414 988 408 948 414 966 l 487 968 "},"˝":{"ha":475,"x_min":0,"x_max":0,"o":"m 527 990 l 529 986 l 363 817 l 251 817 l 249 820 l 389 990 m 319 990 l 321 987 l 183 817 l 74 817 l 185 990 "},"˳":{"ha":387,"x_min":0,"x_max":0,"o":"m 108 -151 b 137 -82 108 -124 118 -101 b 207 -54 156 -63 179 -54 b 276 -82 234 -54 257 -63 b 305 -151 295 -101 305 -124 b 276 -220 305 -179 295 -202 b 207 -246 257 -238 234 -246 b 137 -220 179 -246 156 -238 b 108 -151 118 -202 108 -179 m 163 -151 b 175 -184 163 -165 167 -175 b 207 -197 184 -192 194 -197 b 237 -184 219 -197 229 -192 b 250 -151 246 -175 250 -165 b 237 -118 250 -138 246 -127 b 207 -104 229 -109 219 -104 b 175 -118 194 -104 184 -109 b 163 -151 167 -127 163 -138 "},"̀":{"ha":303,"x_min":0,"x_max":0,"o":"m 125 824 l 17 1049 l 18 1054 l 127 1054 l 207 824 "},"́":{"ha":303,"x_min":0,"x_max":0,"o":"m 318 1054 l 320 1049 l 209 824 l 132 824 l 212 1054 "},"̃":{"ha":551,"x_min":0,"x_max":0,"o":"m 487 968 b 453 866 487 928 476 894 b 368 825 430 839 402 825 b 280 857 341 825 312 836 b 203 889 248 878 223 889 b 165 867 188 889 175 882 b 150 814 155 853 150 835 l 76 832 b 110 933 76 871 87 905 b 195 976 132 962 160 976 b 278 944 216 976 244 965 b 359 912 312 923 339 912 b 397 934 374 912 387 919 b 414 988 408 948 414 966 l 487 968 "},"̏":{"ha":438,"x_min":0,"x_max":0,"o":"m -13 990 l -15 986 l 151 817 l 263 817 l 265 820 l 125 990 m 195 990 l 193 987 l 331 817 l 440 817 l 329 990 "},"΄":{"ha":395,"x_min":0,"x_max":0,"o":"m 267 989 l 237 829 l 159 829 l 132 989 "},"΅":{"ha":622,"x_min":0,"x_max":0,"o":"m 387 829 l 394 949 l 522 949 l 522 829 m 92 829 l 92 949 l 219 949 l 226 829 m 378 1114 l 349 966 l 269 966 l 237 1114 "},"Ά":{"ha":746,"x_min":0,"x_max":0,"o":"m 229 240 l 159 0 l 19 0 l 310 949 l 441 949 l 730 0 l 589 0 l 519 240 m 488 345 l 377 731 l 373 731 l 260 345 m 441 1205 l 410 1044 l 333 1044 l 306 1205 "},"·":{"ha":336,"x_min":0,"x_max":0,"o":"m 94 395 l 94 535 l 232 535 l 232 395 "},"Έ":{"ha":652,"x_min":0,"x_max":0,"o":"m 222 441 l 222 101 l 610 101 l 610 0 l 87 0 l 87 949 l 607 949 l 607 847 l 222 847 l 222 543 l 551 543 l 551 441 m 415 1205 l 385 1044 l 307 1044 l 280 1205 "},"Ή":{"ha":829,"x_min":0,"x_max":0,"o":"m 604 0 l 604 418 l 225 418 l 225 0 l 90 0 l 90 949 l 225 949 l 225 519 l 604 519 l 604 949 l 739 949 l 739 0 m 479 1205 l 449 1044 l 372 1044 l 345 1205 "},"Ί":{"ha":340,"x_min":0,"x_max":0,"o":"m 102 0 l 102 949 l 238 949 l 238 0 m 238 1205 l 208 1044 l 130 1044 l 103 1205 "},"Ό":{"ha":806,"x_min":0,"x_max":0,"o":"m 743 363 b 649 87 743 247 711 155 b 400 -14 587 20 504 -14 b 155 87 298 -14 216 20 b 63 363 94 155 63 247 l 63 585 b 154 861 63 701 93 793 b 399 963 215 929 297 963 b 649 861 503 963 586 929 b 743 585 711 793 743 701 l 743 363 m 608 586 b 553 787 608 673 589 740 b 399 859 516 835 465 859 b 251 787 335 859 285 835 b 199 586 216 740 199 673 l 199 363 b 251 161 199 276 216 208 b 400 90 286 113 336 90 b 553 161 466 90 517 113 b 608 363 590 208 608 276 l 608 586 m 471 1219 l 440 1058 l 363 1058 l 336 1219 "},"Ύ":{"ha":746,"x_min":0,"x_max":0,"o":"m 374 486 l 576 949 l 727 949 l 438 343 l 438 0 l 302 0 l 302 351 l 16 949 l 167 949 l 370 486 m 441 1205 l 411 1044 l 334 1044 l 307 1205 "},"Ώ":{"ha":787,"x_min":0,"x_max":0,"o":"m 424 107 b 529 223 468 123 503 161 b 567 481 554 285 567 371 l 567 553 b 519 779 567 650 551 725 b 388 861 487 833 443 861 b 257 779 332 861 289 833 b 210 553 225 725 210 650 l 210 481 b 249 222 210 371 223 284 b 356 107 275 160 310 122 l 356 0 l 73 0 l 73 102 l 231 102 b 111 261 181 141 141 194 b 65 481 80 328 65 401 l 65 552 b 154 849 65 674 95 773 b 388 963 214 925 292 963 b 621 849 483 963 561 925 b 711 552 681 773 711 674 l 711 481 b 666 261 711 402 696 329 b 547 102 636 194 596 141 l 708 102 l 708 0 l 424 0 l 424 107 m 461 1234 l 431 1073 l 353 1073 l 326 1234 "},"ΐ":{"ha":389,"x_min":0,"x_max":0,"o":"m 232 187 b 247 111 232 151 237 125 b 289 90 256 97 270 90 b 314 92 299 90 307 90 b 344 102 321 94 331 97 l 363 12 b 314 -8 346 2 330 -5 b 259 -14 298 -12 279 -14 b 138 35 206 -14 165 3 b 96 191 110 68 96 120 l 96 705 l 232 705 m 248 769 l 255 889 l 382 889 l 382 769 m -47 769 l -47 889 l 80 889 l 87 769 m 239 1053 l 210 905 l 130 905 l 98 1053 "},"Α":{"ha":746,"x_min":0,"x_max":0,"o":"m 229 240 l 159 0 l 19 0 l 310 949 l 441 949 l 730 0 l 589 0 l 519 240 m 488 345 l 377 731 l 373 731 l 260 345 "},"Β":{"ha":746,"x_min":0,"x_max":0,"o":"m 87 949 l 357 949 b 573 885 449 949 521 928 b 652 694 626 843 652 779 b 618 576 652 649 640 610 b 523 500 595 542 564 517 b 653 421 579 491 623 465 b 698 269 683 378 698 327 b 622 69 698 181 673 115 b 411 0 571 23 501 0 l 87 0 m 222 101 l 411 101 b 524 144 460 101 497 115 b 564 268 550 173 564 214 b 523 395 564 321 550 364 b 408 442 495 426 457 442 l 222 442 m 370 539 b 477 578 416 539 452 552 b 516 691 503 604 516 642 b 475 808 516 743 503 783 b 357 847 448 834 409 847 l 222 847 l 222 539 "},"Γ":{"ha":652,"x_min":0,"x_max":0,"o":"m 222 847 l 222 0 l 87 0 l 87 949 l 614 949 l 614 847 "},"Δ":{"ha":845,"x_min":0,"x_max":0,"o":"m 492 949 l 822 0 l 18 0 l 361 949 m 648 101 l 427 760 l 423 760 l 194 101 "},"Ε":{"ha":652,"x_min":0,"x_max":0,"o":"m 222 441 l 222 101 l 610 101 l 610 0 l 87 0 l 87 949 l 607 949 l 607 847 l 222 847 l 222 543 l 551 543 l 551 441 "},"Ζ":{"ha":664,"x_min":0,"x_max":0,"o":"m 616 101 l 616 0 l 51 0 l 51 82 l 456 847 l 54 847 l 54 949 l 604 949 l 604 870 l 195 101 "},"Η":{"ha":829,"x_min":0,"x_max":0,"o":"m 604 0 l 604 418 l 225 418 l 225 0 l 90 0 l 90 949 l 225 949 l 225 519 l 604 519 l 604 949 l 739 949 l 739 0 "},"Θ":{"ha":807,"x_min":0,"x_max":0,"o":"m 278 425 l 278 526 l 534 526 l 534 425 m 743 363 b 649 87 743 247 711 155 b 400 -14 587 20 504 -14 b 155 87 298 -14 216 20 b 63 363 94 155 63 247 l 63 585 b 154 861 63 701 93 793 b 399 963 215 929 297 963 b 649 861 503 963 586 929 b 743 585 711 793 743 701 l 743 363 m 608 586 b 553 787 608 673 589 740 b 399 859 516 835 465 859 b 251 787 335 859 285 835 b 199 586 216 740 199 673 l 199 363 b 251 161 199 276 216 208 b 400 90 286 113 336 90 b 553 161 466 90 517 113 b 608 363 590 208 608 276 l 608 586 "},"Ι":{"ha":340,"x_min":0,"x_max":0,"o":"m 102 0 l 102 949 l 238 949 l 238 0 "},"Κ":{"ha":746,"x_min":0,"x_max":0,"o":"m 223 427 l 223 0 l 88 0 l 88 949 l 223 949 l 223 533 l 292 533 l 548 949 l 712 949 l 405 504 l 736 0 l 565 0 l 300 427 "},"Λ":{"ha":768,"x_min":0,"x_max":0,"o":"m 380 776 l 163 0 l 23 0 l 317 949 l 448 949 l 742 0 l 602 0 l 384 776 "},"Μ":{"ha":985,"x_min":0,"x_max":0,"o":"m 496 176 l 728 949 l 901 949 l 901 0 l 766 0 l 766 684 l 762 684 l 540 0 l 448 0 l 222 699 l 218 698 l 218 0 l 84 0 l 84 949 l 260 949 l 492 176 "},"Ν":{"ha":829,"x_min":0,"x_max":0,"o":"m 604 0 l 229 699 l 225 699 l 225 0 l 90 0 l 90 949 l 225 949 l 600 250 l 604 251 l 604 949 l 739 949 l 739 0 "},"Ξ":{"ha":671,"x_min":0,"x_max":0,"o":"m 612 101 l 612 0 l 65 0 l 65 101 m 553 534 l 553 434 l 121 434 l 121 534 m 597 949 l 597 847 l 73 847 l 73 949 "},"Ο":{"ha":806,"x_min":0,"x_max":0,"o":"m 743 363 b 649 87 743 247 711 155 b 400 -14 587 20 504 -14 b 155 87 298 -14 216 20 b 63 363 94 155 63 247 l 63 585 b 154 861 63 701 93 793 b 399 963 215 929 297 963 b 649 861 503 963 586 929 b 743 585 711 793 743 701 l 743 363 m 608 586 b 553 787 608 673 589 740 b 399 859 516 835 465 859 b 251 787 335 859 285 835 b 199 586 216 740 199 673 l 199 363 b 251 161 199 276 216 208 b 400 90 286 113 336 90 b 553 161 466 90 517 113 b 608 363 590 208 608 276 l 608 586 "},"Π":{"ha":829,"x_min":0,"x_max":0,"o":"m 604 0 l 604 847 l 224 847 l 224 0 l 90 0 l 90 949 l 739 949 l 739 0 "},"Ρ":{"ha":746,"x_min":0,"x_max":0,"o":"m 222 0 l 87 0 l 87 949 l 403 949 b 618 867 494 949 566 922 b 697 655 671 812 697 741 b 619 443 697 568 671 497 b 403 361 567 389 495 361 l 222 361 m 403 463 b 522 518 455 463 495 482 b 562 654 548 555 562 600 b 522 791 562 708 548 754 b 403 847 495 828 455 847 l 222 847 l 222 463 "},"Σ":{"ha":671,"x_min":0,"x_max":0,"o":"m 204 102 l 630 102 l 630 0 l 43 0 l 43 83 l 309 484 l 43 867 l 43 949 l 608 949 l 608 847 l 208 847 l 452 492 l 452 475 "},"Τ":{"ha":692,"x_min":0,"x_max":0,"o":"m 413 847 l 413 0 l 277 0 l 277 847 l 22 847 l 22 949 l 669 949 l 669 847 "},"Υ":{"ha":746,"x_min":0,"x_max":0,"o":"m 374 486 l 576 949 l 727 949 l 438 343 l 438 0 l 302 0 l 302 351 l 16 949 l 167 949 l 370 486 "},"Φ":{"ha":848,"x_min":0,"x_max":0,"o":"m 494 806 b 720 706 586 802 661 768 b 808 470 778 644 808 565 b 720 234 808 375 778 296 b 494 135 661 172 586 139 l 494 0 l 359 0 l 359 134 b 133 233 267 138 191 171 b 45 469 74 295 45 374 b 133 706 45 564 74 643 b 359 806 192 768 267 802 l 359 949 l 494 949 l 494 806 m 178 469 b 226 307 178 401 194 347 b 355 244 257 266 301 245 l 359 245 l 359 695 l 355 696 b 226 631 301 694 257 673 b 178 469 194 590 178 536 m 674 470 b 627 632 674 537 658 591 b 498 696 595 673 552 694 l 494 695 l 494 245 l 498 244 b 627 308 552 245 595 267 b 674 470 658 348 674 403 "},"Χ":{"ha":746,"x_min":0,"x_max":0,"o":"m 374 579 l 551 949 l 712 949 l 454 479 l 718 0 l 559 0 l 376 378 l 372 378 l 190 0 l 30 0 l 292 479 l 36 949 l 195 949 l 370 579 "},"Ψ":{"ha":835,"x_min":0,"x_max":0,"o":"m 485 330 b 603 409 535 337 575 363 b 646 591 632 454 646 515 l 646 949 l 782 949 l 782 591 b 700 333 782 483 755 397 b 481 221 646 269 573 231 l 481 0 l 345 0 l 345 220 b 126 331 253 230 181 267 b 45 591 72 396 45 482 l 45 949 l 180 949 l 180 591 b 224 411 180 516 195 456 b 341 330 253 365 292 338 l 345 332 l 345 949 l 481 949 l 481 331 "},"Ω":{"ha":787,"x_min":0,"x_max":0,"o":"m 424 107 b 529 223 468 123 503 161 b 567 481 554 285 567 371 l 567 553 b 519 779 567 650 551 725 b 388 861 487 833 443 861 b 257 779 332 861 289 833 b 210 553 225 725 210 650 l 210 481 b 249 222 210 371 223 284 b 356 107 275 160 310 122 l 356 0 l 73 0 l 73 102 l 231 102 b 111 261 181 141 141 194 b 65 481 80 328 65 401 l 65 552 b 154 849 65 674 95 773 b 388 963 214 925 292 963 b 621 849 483 963 561 925 b 711 552 681 773 711 674 l 711 481 b 666 261 711 402 696 329 b 547 102 636 194 596 141 l 708 102 l 708 0 l 424 0 l 424 107 "},"Ϊ":{"ha":340,"x_min":0,"x_max":0,"o":"m 102 0 l 102 949 l 238 949 l 238 0 m 249 1044 l 249 1164 l 393 1164 l 393 1044 m -53 1044 l -53 1164 l 92 1164 l 92 1044 "},"Ϋ":{"ha":746,"x_min":0,"x_max":0,"o":"m 374 486 l 576 949 l 727 949 l 438 343 l 438 0 l 302 0 l 302 351 l 16 949 l 167 949 l 370 486 m 452 1044 l 452 1164 l 597 1164 l 597 1044 m 151 1044 l 151 1164 l 296 1164 l 296 1044 "},"ά":{"ha":666,"x_min":0,"x_max":0,"o":"m 581 184 b 592 113 581 150 585 126 b 625 94 600 100 611 94 b 639 95 630 94 635 94 b 652 98 643 95 647 96 l 665 4 b 629 -9 653 -2 641 -7 b 591 -14 618 -12 605 -14 b 509 8 558 -14 531 -6 b 461 77 488 23 472 45 b 390 9 441 47 417 25 b 292 -14 362 -6 329 -14 b 115 80 216 -14 157 18 b 52 331 73 143 52 227 l 52 345 b 116 616 52 458 73 548 b 294 719 158 685 217 719 b 390 694 330 719 362 711 b 462 623 418 678 442 654 l 488 705 l 581 705 m 187 331 b 221 154 187 257 198 198 b 326 87 243 110 278 87 b 398 109 354 87 378 94 b 446 168 418 123 434 142 l 446 184 l 446 532 b 398 594 434 559 417 579 b 328 616 378 609 355 616 b 221 541 280 616 244 591 b 187 345 199 490 187 425 l 187 331 m 427 995 l 396 834 l 319 834 l 292 995 "},"έ":{"ha":648,"x_min":0,"x_max":0,"o":"m 58 197 b 89 299 58 237 69 272 b 180 362 110 327 140 348 b 98 426 145 378 118 399 b 69 515 79 452 69 482 b 140 664 69 579 93 629 b 331 718 187 700 251 718 b 512 661 403 718 463 699 b 582 513 561 623 584 573 l 581 509 l 452 509 b 416 588 452 541 440 567 b 327 618 392 608 363 618 b 235 588 286 618 256 608 b 204 511 214 567 204 541 b 234 434 204 478 214 453 b 324 407 254 416 284 407 l 435 407 l 435 313 l 324 313 b 227 286 282 313 249 304 b 194 200 205 267 194 238 b 229 118 194 167 205 139 b 326 85 252 96 284 85 b 425 120 367 85 400 97 b 462 206 449 143 462 172 l 591 206 l 592 202 b 517 43 594 133 569 80 b 331 -12 465 6 403 -12 b 135 44 251 -12 185 6 b 58 197 84 81 58 132 m 395 994 l 365 833 l 288 833 l 260 994 "},"ή":{"ha":667,"x_min":0,"x_max":0,"o":"m 206 604 b 282 689 227 640 252 669 b 386 719 313 709 347 719 b 537 651 451 719 501 696 b 590 435 572 606 590 534 l 590 -271 l 454 -271 l 454 433 b 425 575 454 500 444 547 b 340 616 406 603 378 616 b 262 594 310 616 284 609 b 210 530 240 579 223 557 l 210 0 l 75 0 l 75 705 l 199 705 m 399 995 l 369 834 l 292 834 l 264 995 "},"ί":{"ha":389,"x_min":0,"x_max":0,"o":"m 232 187 b 247 111 232 151 237 125 b 289 90 256 97 270 90 b 314 92 299 90 307 90 b 344 102 321 94 331 97 l 363 12 b 314 -8 346 2 330 -5 b 259 -14 298 -12 279 -14 b 138 35 206 -14 165 3 b 96 191 110 68 96 120 l 96 705 l 232 705 m 239 981 l 208 821 l 131 821 l 104 981 "},"ΰ":{"ha":667,"x_min":0,"x_max":0,"o":"m 211 308 b 245 140 211 231 222 175 b 339 87 269 105 300 87 b 444 166 387 87 421 114 b 477 358 466 219 477 283 b 452 532 475 416 467 474 b 390 705 436 590 416 647 l 524 705 b 588 549 551 657 572 605 b 612 359 604 493 612 429 b 549 89 612 247 591 157 b 345 -14 506 21 438 -14 b 146 66 260 -14 193 13 b 75 309 99 119 75 200 l 75 705 l 211 705 m 420 770 l 427 890 l 555 890 l 555 770 m 125 770 l 125 890 l 252 890 l 259 770 m 411 1054 l 382 906 l 302 906 l 270 1054 "},"α":{"ha":666,"x_min":0,"x_max":0,"o":"m 581 184 b 592 113 581 150 585 126 b 625 94 600 100 611 94 b 639 95 630 94 635 94 b 652 98 643 95 647 96 l 665 4 b 629 -9 653 -2 641 -7 b 591 -14 618 -12 605 -14 b 509 8 558 -14 531 -6 b 461 77 488 23 472 45 b 390 9 441 47 417 25 b 292 -14 362 -6 329 -14 b 115 80 216 -14 157 18 b 52 331 73 143 52 227 l 52 345 b 116 616 52 458 73 548 b 294 719 158 685 217 719 b 390 694 330 719 362 711 b 462 623 418 678 442 654 l 488 705 l 581 705 m 187 331 b 221 154 187 257 198 198 b 326 87 243 110 278 87 b 398 109 354 87 378 94 b 446 168 418 123 434 142 l 446 184 l 446 532 b 398 594 434 559 417 579 b 328 616 378 609 355 616 b 221 541 280 616 244 591 b 187 345 199 490 187 425 l 187 331 "},"β":{"ha":705,"x_min":0,"x_max":0,"o":"m 355 963 b 541 893 432 963 494 940 b 611 708 588 846 611 784 b 581 593 611 666 601 628 b 497 510 560 558 532 530 b 609 418 545 491 583 461 b 649 269 636 376 649 326 b 579 61 649 180 626 111 b 392 -14 532 11 470 -14 b 302 1 362 -14 332 -9 b 224 44 273 10 247 25 l 224 -296 l 90 -296 l 90 690 b 167 884 90 767 115 832 b 355 963 218 937 281 963 m 352 551 b 445 591 394 551 425 564 b 475 707 465 618 475 657 b 444 815 475 749 465 785 b 355 861 423 845 393 861 b 261 812 317 861 286 844 b 224 690 237 780 224 739 l 224 148 b 286 103 241 128 261 113 b 368 87 310 93 337 87 b 474 137 413 87 448 104 b 513 268 500 170 513 214 b 477 400 513 321 501 365 b 377 453 453 435 420 453 l 309 453 l 309 551 l 352 551 "},"γ":{"ha":597,"x_min":0,"x_max":0,"o":"m 580 705 l 368 24 l 368 -272 l 233 -272 l 233 24 l 20 705 l 161 705 l 288 212 l 299 156 l 303 156 l 315 212 l 440 705 "},"δ":{"ha":667,"x_min":0,"x_max":0,"o":"m 551 849 l 290 849 l 289 845 l 477 678 b 581 551 522 649 556 607 b 617 361 605 496 617 432 l 617 343 b 541 86 617 238 592 153 b 334 -14 491 20 421 -14 b 125 86 245 -14 175 20 b 49 343 74 153 49 238 l 49 361 b 111 598 49 454 69 533 b 282 714 152 662 209 701 l 109 863 l 109 949 l 551 949 m 332 616 b 221 544 283 616 245 592 b 184 361 196 496 184 434 l 184 343 b 221 159 184 269 196 207 b 334 87 246 111 283 87 b 445 159 383 87 420 111 b 482 343 470 207 482 269 l 482 361 b 445 544 482 434 470 496 b 332 616 419 592 382 616 "},"ε":{"ha":648,"x_min":0,"x_max":0,"o":"m 58 197 b 89 299 58 237 69 272 b 180 362 110 327 140 348 b 98 426 145 378 118 399 b 69 515 79 452 69 482 b 140 664 69 579 93 629 b 331 718 187 700 251 718 b 512 661 403 718 463 699 b 582 513 561 623 584 573 l 581 509 l 452 509 b 416 588 452 541 440 567 b 327 618 392 608 363 618 b 235 588 286 618 256 608 b 204 511 214 567 204 541 b 234 434 204 478 214 453 b 324 407 254 416 284 407 l 435 407 l 435 313 l 324 313 b 227 286 282 313 249 304 b 194 200 205 267 194 238 b 229 118 194 167 205 139 b 326 85 252 96 284 85 b 425 120 367 85 400 97 b 462 206 449 143 462 172 l 591 206 l 592 202 b 517 43 594 133 569 80 b 331 -12 465 6 403 -12 b 135 44 251 -12 185 6 b 58 197 84 81 58 132 "},"ζ":{"ha":604,"x_min":0,"x_max":0,"o":"m 553 877 l 349 576 b 253 407 304 511 272 454 b 224 253 234 360 224 309 b 254 140 224 204 234 166 b 345 100 274 114 304 100 l 372 100 b 506 59 429 100 473 87 b 555 -60 538 31 555 -8 b 506 -189 554 -109 537 -152 b 386 -271 474 -227 434 -254 l 337 -184 b 398 -139 361 -173 381 -158 b 425 -68 416 -119 425 -96 b 404 -17 425 -46 418 -29 b 338 0 391 -6 368 0 l 307 0 b 144 69 236 0 182 23 b 89 243 107 115 89 173 b 127 421 89 297 102 357 b 245 629 153 486 193 555 l 404 848 l 54 848 l 54 949 l 553 949 "},"η":{"ha":667,"x_min":0,"x_max":0,"o":"m 206 604 b 282 689 227 640 252 669 b 386 719 313 709 347 719 b 537 651 451 719 501 696 b 590 435 572 606 590 534 l 590 -271 l 454 -271 l 454 433 b 425 575 454 500 444 547 b 340 616 406 603 378 616 b 262 594 310 616 284 609 b 210 530 240 579 223 557 l 210 0 l 75 0 l 75 705 l 199 705 "},"θ":{"ha":685,"x_min":0,"x_max":0,"o":"m 610 335 b 537 80 610 227 585 142 b 340 -14 488 18 423 -14 b 143 80 258 -14 192 18 b 70 335 94 142 70 227 l 70 614 b 143 869 70 722 94 806 b 339 963 191 932 257 963 b 536 869 421 963 487 932 b 610 614 585 806 610 722 l 610 335 m 205 431 l 205 319 b 240 150 205 248 217 191 b 340 87 264 108 297 87 b 439 149 383 87 416 108 b 474 319 463 190 474 247 l 474 431 m 474 533 l 474 630 b 439 799 474 702 462 758 b 339 861 416 840 382 861 b 240 799 296 861 263 840 b 205 630 216 758 205 701 l 205 533 "},"ι":{"ha":389,"x_min":0,"x_max":0,"o":"m 232 187 b 247 111 232 151 237 125 b 289 90 256 97 270 90 b 314 92 299 90 307 90 b 344 102 321 94 331 97 l 363 12 b 314 -8 346 2 330 -5 b 259 -14 298 -12 279 -14 b 138 35 206 -14 165 3 b 96 191 110 68 96 120 l 96 705 l 232 705 "},"κ":{"ha":677,"x_min":0,"x_max":0,"o":"m 218 297 l 218 0 l 83 0 l 83 705 l 218 705 l 218 411 l 271 411 l 465 705 l 633 705 l 388 374 l 648 0 l 475 0 l 281 297 "},"λ":{"ha":652,"x_min":0,"x_max":0,"o":"m 22 0 l 243 686 l 210 774 b 171 856 200 807 187 835 b 114 888 155 877 136 888 b 95 886 109 888 103 887 b 76 884 87 885 80 885 l 73 979 b 111 987 87 982 99 984 b 144 990 122 989 133 990 b 270 938 199 990 240 973 b 338 814 299 904 321 862 l 545 202 b 576 126 553 171 563 146 b 619 96 588 107 603 97 b 633 96 624 96 629 96 b 648 99 637 96 642 97 l 642 0 b 615 -6 634 -2 625 -4 b 586 -8 604 -7 595 -8 b 476 44 540 -6 504 11 b 408 176 448 77 426 121 l 304 500 l 300 500 l 291 456 l 169 0 "},"μ":{"ha":699,"x_min":0,"x_max":0,"o":"m 222 297 b 251 132 222 217 232 162 b 337 88 271 103 300 88 b 420 112 371 88 399 96 b 470 181 442 128 458 151 l 470 705 l 606 705 l 606 0 l 482 0 l 477 59 b 417 5 460 35 440 17 b 337 -14 393 -7 367 -14 b 273 -3 314 -14 292 -10 b 222 28 254 3 237 14 l 222 -271 l 86 -271 l 86 705 l 222 705 "},"ν":{"ha":597,"x_min":0,"x_max":0,"o":"m 299 156 l 303 156 l 315 212 l 440 705 l 580 705 l 361 0 l 241 0 l 20 705 l 161 705 l 288 212 "},"ξ":{"ha":617,"x_min":0,"x_max":0,"o":"m 588 846 l 354 846 b 255 797 310 842 277 826 b 222 687 233 768 222 731 b 259 577 222 640 235 603 b 376 538 284 551 323 538 l 459 538 l 459 435 l 378 435 b 247 391 321 435 277 420 b 203 259 218 361 203 317 b 243 138 203 209 216 169 b 355 92 271 107 308 92 l 409 92 b 546 51 467 92 513 78 b 595 -71 579 23 595 -18 b 548 -200 595 -121 579 -164 b 427 -281 517 -236 476 -263 l 382 -199 b 444 -155 405 -189 425 -174 b 471 -84 462 -136 471 -112 b 451 -29 471 -60 464 -42 b 391 -9 438 -16 418 -9 l 351 -9 b 145 62 266 -9 197 14 b 68 262 94 110 68 176 b 109 402 68 317 81 364 b 228 487 136 441 175 469 b 124 563 183 505 149 530 b 87 676 100 595 87 633 b 109 776 87 714 94 747 b 170 846 123 804 143 828 l 39 846 l 39 949 l 588 949 "},"ο":{"ha":667,"x_min":0,"x_max":0,"o":"m 48 361 b 124 618 48 466 73 552 b 332 719 175 685 244 719 b 541 618 420 719 490 685 b 616 361 591 552 616 466 l 616 343 b 541 86 616 238 591 153 b 333 -14 490 20 421 -14 b 124 86 244 -14 175 20 b 48 343 73 153 48 238 l 48 361 m 184 343 b 221 159 184 268 196 207 b 333 87 245 111 283 87 b 444 159 382 87 419 111 b 481 343 469 207 481 269 l 481 361 b 444 544 481 434 469 496 b 332 616 419 592 381 616 b 221 544 282 616 245 592 b 184 361 196 495 184 434 l 184 343 "},"π":{"ha":734,"x_min":0,"x_max":0,"o":"m 273 606 l 273 0 l 138 0 l 138 606 l 48 606 l 48 705 l 670 705 l 670 606 m 618 187 b 632 111 618 151 623 125 b 675 90 642 97 656 90 b 700 92 685 90 693 90 b 730 102 707 94 717 97 l 749 12 b 700 -8 732 2 716 -5 b 645 -14 683 -12 665 -14 b 524 35 592 -14 551 3 b 482 191 496 68 482 120 l 482 705 l 618 705 "},"ρ":{"ha":667,"x_min":0,"x_max":0,"o":"m 614 331 b 551 80 614 227 593 143 b 376 -14 509 18 451 -14 b 281 6 340 -14 308 -7 b 211 63 254 19 230 38 l 211 -271 l 76 -271 l 76 381 l 77 381 l 76 384 b 150 630 76 488 101 570 b 345 719 200 689 265 719 b 545 617 432 719 498 685 b 614 345 591 549 614 458 l 614 331 m 479 345 b 445 541 479 425 468 491 b 340 616 423 591 388 616 b 244 544 298 616 266 592 b 211 376 222 496 211 439 l 211 172 b 261 110 223 145 240 124 b 339 87 282 95 308 87 b 445 154 387 87 422 110 b 479 331 467 198 479 257 l 479 345 "},"ς":{"ha":621,"x_min":0,"x_max":0,"o":"m 327 719 b 505 650 400 719 459 696 b 570 463 550 604 572 542 l 568 458 l 446 458 b 415 573 446 506 436 545 b 327 616 395 602 365 616 b 219 544 278 616 242 592 b 184 365 196 496 184 436 l 184 340 b 227 163 184 268 199 209 b 361 95 255 118 300 95 b 509 53 426 95 475 81 b 559 -68 543 25 559 -16 b 511 -196 559 -117 543 -159 b 391 -277 479 -233 439 -260 l 342 -191 b 404 -145 366 -179 387 -164 b 430 -77 421 -127 430 -104 b 409 -24 430 -54 423 -36 b 341 -5 395 -12 373 -5 b 125 92 248 -5 176 27 b 49 340 74 157 49 239 l 49 365 b 122 618 49 467 73 551 b 327 719 171 685 240 719 "},"σ":{"ha":672,"x_min":0,"x_max":0,"o":"m 481 603 b 576 487 520 572 551 533 b 612 340 600 440 612 391 l 612 323 b 537 83 612 228 587 148 b 333 -14 487 19 419 -14 b 124 86 244 -14 175 20 b 48 343 73 153 48 238 l 48 361 b 124 609 48 462 73 544 b 332 705 175 673 244 705 l 659 705 l 659 603 m 184 343 b 221 159 184 268 196 207 b 333 87 245 111 283 87 b 440 159 380 87 416 111 b 477 343 465 207 477 269 l 477 361 b 440 534 477 430 465 488 b 332 603 416 580 380 603 l 332 603 b 220 533 282 602 245 579 b 184 361 196 487 184 430 l 184 343 "},"τ":{"ha":618,"x_min":0,"x_max":0,"o":"m 376 604 l 376 0 l 240 0 l 240 604 l 40 604 l 40 705 l 579 705 l 579 604 "},"υ":{"ha":667,"x_min":0,"x_max":0,"o":"m 211 308 b 245 140 211 231 222 175 b 339 87 269 105 300 87 b 444 166 387 87 421 114 b 477 358 466 219 477 283 b 452 532 475 416 467 474 b 390 705 436 590 416 647 l 524 705 b 588 549 551 657 572 605 b 612 359 604 493 612 429 b 549 89 612 247 591 157 b 345 -14 506 21 438 -14 b 146 66 260 -14 193 13 b 75 309 99 119 75 200 l 75 705 l 211 705 "},"φ":{"ha":854,"x_min":0,"x_max":0,"o":"m 490 705 b 720 601 585 705 661 671 b 808 345 778 532 808 446 b 730 104 808 250 782 170 b 490 -10 679 39 599 1 l 490 -312 l 355 -312 l 355 -9 b 118 113 247 3 168 44 b 43 371 68 182 43 268 b 63 553 43 438 50 499 b 115 705 76 608 93 658 l 247 705 b 198 537 226 649 210 593 b 178 370 186 481 179 426 b 219 192 178 301 192 242 b 351 101 247 143 290 112 l 355 102 l 355 705 l 490 705 m 672 345 b 623 527 671 416 655 477 b 494 597 592 576 548 600 l 490 596 l 490 100 l 494 99 b 629 182 555 109 600 136 b 672 345 658 227 672 282 "},"χ":{"ha":652,"x_min":0,"x_max":0,"o":"m 105 714 b 229 664 159 714 200 697 b 298 542 258 630 281 589 l 345 413 l 349 412 l 475 705 l 612 705 l 410 236 l 522 -70 b 555 -146 533 -102 544 -127 b 597 -176 567 -164 581 -174 b 610 -175 602 -176 606 -175 b 625 -173 614 -175 619 -174 l 619 -273 b 592 -279 611 -276 603 -277 b 564 -281 582 -280 573 -281 b 460 -231 520 -279 486 -263 b 393 -95 434 -200 412 -154 l 338 57 l 334 58 l 192 -271 l 55 -271 l 273 234 l 175 500 b 134 582 165 533 151 561 b 75 613 116 603 97 613 b 58 612 70 613 64 613 b 36 609 51 611 44 610 l 34 704 b 69 711 45 707 57 709 b 105 714 81 713 93 714 "},"ψ":{"ha":851,"x_min":0,"x_max":0,"o":"m 486 102 l 490 100 b 626 194 551 112 596 143 b 669 377 655 246 669 307 b 650 540 668 431 661 486 b 602 705 638 594 622 649 l 733 705 b 785 557 754 660 772 611 b 804 377 798 504 804 444 b 728 113 804 271 779 183 b 486 -10 678 43 597 2 l 486 -302 l 351 -302 l 351 -9 b 128 107 255 3 181 42 b 50 386 76 172 50 265 l 50 705 l 185 705 l 185 385 b 229 186 185 299 200 232 b 347 102 258 139 297 111 l 351 104 l 351 705 l 486 705 "},"ω":{"ha":1007,"x_min":0,"x_max":0,"o":"m 280 705 b 217 532 253 648 232 590 b 193 358 202 474 194 416 b 221 164 193 279 202 215 b 312 87 240 113 270 87 b 400 141 349 87 378 105 b 433 312 422 177 433 234 l 433 515 l 573 515 l 573 312 b 606 142 573 235 584 178 b 694 87 628 106 657 87 b 785 163 735 87 766 113 b 814 358 804 214 814 279 b 789 532 812 416 804 474 b 727 705 773 590 753 647 l 861 705 b 925 549 888 657 909 605 b 949 359 941 493 949 429 b 889 89 949 247 929 157 b 700 -14 850 21 787 -14 b 580 23 653 -14 613 -1 b 503 132 546 47 521 84 b 427 23 486 84 460 48 b 307 -14 393 -1 353 -14 b 117 89 220 -14 157 21 b 58 359 77 157 58 247 b 81 548 58 429 66 492 b 145 705 97 605 118 657 l 280 705 "},"ϊ":{"ha":389,"x_min":0,"x_max":0,"o":"m 232 187 b 247 111 232 151 237 125 b 289 90 256 97 270 90 b 314 92 299 90 307 90 b 344 102 321 94 331 97 l 363 12 b 314 -8 346 2 330 -5 b 259 -14 298 -12 279 -14 b 138 35 206 -14 165 3 b 96 191 110 68 96 120 l 96 705 l 232 705 m 250 821 l 250 941 l 394 941 l 394 821 m -52 821 l -52 941 l 93 941 l 93 821 "},"ϋ":{"ha":667,"x_min":0,"x_max":0,"o":"m 211 308 b 245 140 211 231 222 175 b 339 87 269 105 300 87 b 444 166 387 87 421 114 b 477 358 466 219 477 283 b 452 532 475 416 467 474 b 390 705 436 590 416 647 l 524 705 b 588 549 551 657 572 605 b 612 359 604 493 612 429 b 549 89 612 247 591 157 b 345 -14 506 21 438 -14 b 146 66 260 -14 193 13 b 75 309 99 119 75 200 l 75 705 l 211 705 m 422 821 l 422 941 l 566 941 l 566 821 m 120 821 l 120 941 l 265 941 l 265 821 "},"ό":{"ha":667,"x_min":0,"x_max":0,"o":"m 48 361 b 124 618 48 466 73 552 b 332 719 175 685 244 719 b 541 618 420 719 490 685 b 616 361 591 552 616 466 l 616 343 b 541 86 616 238 591 153 b 333 -14 490 20 421 -14 b 124 86 244 -14 175 20 b 48 343 73 153 48 238 l 48 361 m 184 343 b 221 159 184 268 196 207 b 333 87 245 111 283 87 b 444 159 382 87 419 111 b 481 343 469 207 481 269 l 481 361 b 444 544 481 434 469 496 b 332 616 419 592 381 616 b 221 544 282 616 245 592 b 184 361 196 495 184 434 l 184 343 m 400 995 l 370 834 l 292 834 l 265 995 "},"ύ":{"ha":667,"x_min":0,"x_max":0,"o":"m 211 308 b 245 140 211 231 222 175 b 339 87 269 105 300 87 b 444 166 387 87 421 114 b 477 358 466 219 477 283 b 452 532 475 416 467 474 b 390 705 436 590 416 647 l 524 705 b 588 549 551 657 572 605 b 612 359 604 493 612 429 b 549 89 612 247 591 157 b 345 -14 506 21 438 -14 b 146 66 260 -14 193 13 b 75 309 99 119 75 200 l 75 705 l 211 705 m 411 982 l 380 821 l 303 821 l 276 982 "},"ώ":{"ha":1007,"x_min":0,"x_max":0,"o":"m 280 705 b 217 532 253 648 232 590 b 193 358 202 474 194 416 b 221 164 193 279 202 215 b 312 87 240 113 270 87 b 400 141 349 87 378 105 b 433 312 422 177 433 234 l 433 515 l 573 515 l 573 312 b 606 142 573 235 584 178 b 694 87 628 106 657 87 b 785 163 735 87 766 113 b 814 358 804 214 814 279 b 789 532 812 416 804 474 b 727 705 773 590 753 647 l 861 705 b 925 549 888 657 909 605 b 949 359 941 493 949 429 b 889 89 949 247 929 157 b 700 -14 850 21 787 -14 b 580 23 653 -14 613 -1 b 503 132 546 47 521 84 b 427 23 486 84 460 48 b 307 -14 393 -1 353 -14 b 117 89 220 -14 157 21 b 58 359 77 157 58 247 b 81 548 58 429 66 492 b 145 705 97 605 118 657 l 280 705 m 571 982 l 541 821 l 463 821 l 436 982 "},"ϒ":{"ha":662,"x_min":0,"x_max":0,"o":"m 437 800 b 509 923 459 858 482 899 b 609 959 535 947 568 959 b 642 956 621 959 632 958 b 669 943 651 953 660 949 l 656 846 b 645 850 654 847 650 848 b 629 852 639 851 634 852 b 590 836 614 852 601 846 b 564 781 579 825 570 807 l 397 362 l 397 0 l 262 0 l 262 366 l 97 781 b 69 836 89 807 80 825 b 31 852 58 846 46 852 b 15 850 26 852 21 851 b 5 846 10 848 6 847 l -8 943 b 18 956 0 949 9 953 b 51 959 28 958 39 959 b 151 924 92 959 125 947 b 222 802 177 900 201 859 l 317 536 l 328 486 l 332 486 l 344 536 l 437 800 "},"ϖ":{"ha":951,"x_min":0,"x_max":0,"o":"m 849 612 b 879 494 862 576 872 536 b 890 359 887 452 890 407 b 837 89 890 247 873 157 b 666 -14 801 21 744 -14 b 551 22 621 -14 583 -2 b 477 129 519 46 494 82 b 402 22 459 82 434 46 b 288 -14 369 -2 331 -14 b 116 89 209 -14 152 21 b 62 359 80 157 62 247 b 73 494 62 407 66 452 b 103 612 80 536 90 575 l 28 612 l 28 705 l 933 705 l 933 612 m 755 358 b 742 485 754 400 750 442 b 710 612 734 527 724 569 l 243 612 b 210 486 229 570 218 528 b 197 358 203 443 198 401 b 220 164 197 279 205 215 b 291 92 235 114 259 90 l 295 92 b 376 142 328 90 355 106 b 407 312 397 177 407 234 l 407 471 l 547 471 l 547 312 b 577 142 547 234 557 177 b 659 92 597 106 625 90 l 663 92 b 733 164 694 90 718 114 b 755 358 748 214 755 279 "},"Ѐ":{"ha":652,"x_min":0,"x_max":0,"o":"m 222 441 l 222 101 l 610 101 l 610 0 l 87 0 l 87 949 l 607 949 l 607 847 l 222 847 l 222 543 l 551 543 l 551 441 m 294 1044 l 140 1214 l 141 1217 l 298 1217 l 412 1044 "},"Ё":{"ha":652,"x_min":0,"x_max":0,"o":"m 222 441 l 222 101 l 610 101 l 610 0 l 87 0 l 87 949 l 607 949 l 607 847 l 222 847 l 222 543 l 551 543 l 551 441 m 426 1044 l 426 1164 l 570 1164 l 570 1044 m 124 1044 l 124 1164 l 269 1164 l 269 1044 "},"Ђ":{"ha":887,"x_min":0,"x_max":0,"o":"m 427 847 l 427 576 l 587 576 b 819 496 683 576 760 549 b 907 267 877 442 907 366 b 852 91 907 209 888 151 b 691 -24 815 32 762 -7 l 642 65 b 739 142 686 81 718 107 b 772 267 760 178 771 220 b 722 418 771 334 755 384 b 587 470 689 453 644 470 l 427 470 l 427 0 l 291 0 l 291 847 l 36 847 l 36 949 l 683 949 l 683 847 "},"Ѓ":{"ha":652,"x_min":0,"x_max":0,"o":"m 222 847 l 222 0 l 87 0 l 87 949 l 614 949 l 614 847 m 557 1216 l 559 1212 l 397 1042 l 284 1042 l 401 1216 "},"Є":{"ha":768,"x_min":0,"x_max":0,"o":"m 212 438 l 212 361 b 262 160 212 275 229 208 b 402 88 295 112 342 88 b 534 139 460 88 504 105 b 578 296 564 173 578 226 l 708 296 l 709 292 b 629 69 711 198 684 123 b 402 -13 574 14 498 -13 b 165 87 304 -13 225 20 b 77 361 106 154 77 245 l 77 588 b 164 863 77 704 106 795 b 398 964 222 930 300 964 b 629 884 496 964 573 937 b 709 660 684 831 711 757 l 708 656 l 579 656 b 533 810 579 724 564 775 b 398 861 503 844 458 861 b 261 789 339 861 294 837 b 212 589 229 741 212 675 l 212 540 l 517 540 l 517 438 "},"Ѕ":{"ha":739,"x_min":0,"x_max":0,"o":"m 541 246 b 504 349 541 289 529 323 b 370 422 479 374 434 399 b 166 529 281 449 213 485 b 96 706 119 573 96 632 b 172 891 96 781 121 843 b 375 963 223 939 291 963 b 587 882 464 963 534 936 b 663 680 640 828 665 760 l 662 675 l 532 675 b 489 810 532 731 518 776 b 374 861 461 844 422 861 b 267 818 326 861 291 847 b 231 707 243 789 231 752 b 270 604 231 665 244 631 b 406 528 296 578 341 552 b 607 421 495 501 562 465 b 675 248 653 378 675 320 b 595 58 675 169 649 106 b 385 -14 542 10 471 -14 b 164 61 300 -14 226 11 b 74 274 102 110 72 181 l 75 278 l 205 278 b 256 134 205 213 222 165 b 385 87 290 103 333 87 b 500 131 434 87 472 102 b 541 246 527 161 541 199 "},"І":{"ha":340,"x_min":0,"x_max":0,"o":"m 102 0 l 102 949 l 238 949 l 238 0 "},"Ї":{"ha":340,"x_min":0,"x_max":0,"o":"m 102 0 l 102 949 l 238 949 l 238 0 m 249 1044 l 249 1164 l 393 1164 l 393 1044 m -53 1044 l -53 1164 l 92 1164 l 92 1044 "},"Ј":{"ha":652,"x_min":0,"x_max":0,"o":"m 563 949 l 563 281 b 490 66 563 191 538 119 b 301 -14 441 13 378 -14 b 105 57 219 -14 153 10 b 35 263 57 105 33 173 l 37 267 l 168 267 b 203 132 168 206 179 161 b 301 87 226 102 259 87 b 391 140 338 87 368 105 b 427 281 415 175 427 222 l 427 949 "},"Љ":{"ha":1255,"x_min":0,"x_max":0,"o":"m 739 580 l 913 580 b 1130 499 1005 580 1077 553 b 1210 290 1183 445 1210 375 b 1131 80 1210 204 1183 134 b 913 0 1078 27 1005 0 l 604 0 l 604 847 l 352 847 l 351 513 b 281 122 351 333 328 203 b 62 0 235 41 162 0 l 35 0 l 35 101 l 58 101 b 180 191 116 101 157 131 b 216 513 203 251 215 359 l 218 949 l 739 949 m 739 101 l 913 101 b 1033 156 966 101 1006 119 b 1074 291 1061 193 1074 238 b 1033 424 1074 343 1061 387 b 913 479 1006 460 966 479 l 739 479 "},"Њ":{"ha":1255,"x_min":0,"x_max":0,"o":"m 604 531 l 604 949 l 739 949 l 739 561 l 913 561 b 1130 484 1005 561 1077 535 b 1209 282 1183 433 1209 365 b 1130 78 1209 198 1183 131 b 913 0 1077 26 1005 0 l 604 0 l 604 430 l 224 430 l 224 0 l 90 0 l 90 949 l 224 949 l 224 531 m 739 104 l 913 104 b 1033 156 966 104 1006 122 b 1074 283 1060 190 1074 232 b 1033 409 1074 333 1060 375 b 913 460 1006 443 966 460 l 739 460 "},"Ћ":{"ha":893,"x_min":0,"x_max":0,"o":"m 437 847 l 437 573 l 515 573 b 734 500 611 573 684 549 b 810 272 785 452 810 376 l 810 0 l 675 0 l 675 272 b 637 426 675 345 663 396 b 515 471 612 456 571 471 l 437 471 l 437 0 l 301 0 l 301 847 l 46 847 l 46 949 l 693 949 l 693 847 "},"Ќ":{"ha":408,"x_min":0,"x_max":0,"o":"m 348 990 l 350 986 l 189 817 l 75 817 l 192 990 "},"Ѝ":{"ha":826,"x_min":0,"x_max":0,"o":"m 737 949 l 737 0 l 602 0 l 602 695 l 598 696 l 223 0 l 87 0 l 87 949 l 223 949 l 223 254 l 227 254 l 602 949 m 360 1044 l 205 1214 l 207 1217 l 363 1217 l 477 1044 "},"Ў":{"ha":753,"x_min":0,"x_max":0,"o":"m 374 410 l 378 410 l 572 949 l 722 949 l 415 165 b 331 34 391 110 363 66 b 194 -14 299 2 253 -14 b 129 -6 170 -14 149 -11 b 73 13 108 -2 90 5 l 89 108 b 134 93 103 102 118 97 b 180 87 151 89 166 87 b 255 117 211 87 236 97 b 298 195 273 136 288 162 l 317 247 l 27 949 l 176 949 l 349 483 m 563 1218 b 514 1093 565 1167 548 1125 b 375 1044 480 1061 433 1044 b 235 1093 316 1044 270 1061 b 186 1218 200 1125 184 1167 l 188 1222 l 290 1222 b 310 1152 290 1193 296 1170 b 375 1125 324 1134 346 1125 b 439 1152 404 1125 425 1134 b 460 1222 453 1170 460 1194 l 562 1222 "},"Џ":{"ha":826,"x_min":0,"x_max":0,"o":"m 222 949 l 222 102 l 600 102 l 600 949 l 736 949 l 736 0 l 536 0 l 536 -192 l 401 -192 l 401 0 l 86 0 l 86 949 "},"А":{"ha":746,"x_min":0,"x_max":0,"o":"m 229 240 l 159 0 l 19 0 l 310 949 l 441 949 l 730 0 l 589 0 l 519 240 m 488 345 l 377 731 l 373 731 l 260 345 "},"Б":{"ha":741,"x_min":0,"x_max":0,"o":"m 222 847 l 222 576 l 397 576 b 614 497 489 576 561 550 b 693 290 667 444 693 375 b 614 81 693 204 667 135 b 397 0 561 27 489 0 l 87 0 l 87 949 l 614 949 l 614 847 m 222 101 l 397 101 b 517 156 450 101 490 119 b 558 291 544 193 558 238 b 517 421 558 342 544 386 b 397 475 490 457 450 475 l 222 475 "},"В":{"ha":746,"x_min":0,"x_max":0,"o":"m 87 949 l 357 949 b 573 885 449 949 521 928 b 652 694 626 843 652 779 b 618 576 652 649 640 610 b 523 500 595 542 564 517 b 653 421 579 491 623 465 b 698 269 683 378 698 327 b 622 69 698 181 673 115 b 411 0 571 23 501 0 l 87 0 m 222 101 l 411 101 b 524 144 460 101 497 115 b 564 268 550 173 564 214 b 523 395 564 321 550 364 b 408 442 495 426 457 442 l 222 442 m 370 539 b 477 578 416 539 452 552 b 516 691 503 604 516 642 b 475 808 516 743 503 783 b 357 847 448 834 409 847 l 222 847 l 222 539 "},"Г":{"ha":652,"x_min":0,"x_max":0,"o":"m 222 847 l 222 0 l 87 0 l 87 949 l 614 949 l 614 847 "},"Д":{"ha":869,"x_min":0,"x_max":0,"o":"m 716 -124 l 716 0 l 157 0 l 157 -124 l 22 -124 l 22 101 l 73 101 b 197 216 128 101 169 139 b 264 581 224 293 247 415 l 306 949 l 754 949 l 754 101 l 851 101 l 851 -124 m 399 581 b 349 291 387 467 370 371 b 266 101 327 211 300 148 l 619 101 l 619 847 l 429 847 l 399 581 "},"Е":{"ha":652,"x_min":0,"x_max":0,"o":"m 222 441 l 222 101 l 610 101 l 610 0 l 87 0 l 87 949 l 607 949 l 607 847 l 222 847 l 222 543 l 551 543 l 551 441 "},"Ж":{"ha":1021,"x_min":0,"x_max":0,"o":"m 581 431 l 581 0 l 446 0 l 446 431 l 400 431 l 181 0 l 12 0 l 292 509 l 29 949 l 194 949 l 404 537 l 446 537 l 446 949 l 581 949 l 581 537 l 618 537 l 826 949 l 991 949 l 730 509 l 1008 0 l 840 0 l 622 431 "},"З":{"ha":784,"x_min":0,"x_max":0,"o":"m 388 534 b 523 577 449 534 494 549 b 567 696 552 606 567 645 b 519 814 567 744 551 784 b 380 861 488 845 441 861 b 257 815 331 861 290 845 b 208 699 225 785 208 746 l 79 699 l 77 703 b 162 891 75 780 103 843 b 380 963 221 939 293 963 b 616 893 479 963 558 940 b 703 694 674 847 703 780 b 663 572 703 650 689 609 b 553 486 636 535 599 507 b 673 402 605 468 645 440 b 715 262 701 364 715 317 b 622 59 715 175 684 108 b 380 -14 560 11 479 -14 b 156 56 293 -14 218 10 b 65 259 93 102 63 170 l 67 263 l 196 263 b 247 138 196 213 213 171 b 380 87 281 104 326 87 b 527 135 442 87 491 103 b 580 260 562 167 580 208 b 531 391 580 320 564 363 b 388 433 499 419 451 433 l 279 433 l 279 534 l 388 534 "},"И":{"ha":826,"x_min":0,"x_max":0,"o":"m 737 949 l 737 0 l 602 0 l 602 695 l 598 696 l 223 0 l 87 0 l 87 949 l 223 949 l 223 254 l 227 254 l 602 949 "},"Й":{"ha":826,"x_min":0,"x_max":0,"o":"m 737 949 l 737 0 l 602 0 l 602 695 l 598 696 l 223 0 l 87 0 l 87 949 l 223 949 l 223 254 l 227 254 l 602 949 m 602 1218 b 553 1093 604 1167 588 1125 b 414 1044 519 1061 473 1044 b 274 1093 356 1044 309 1061 b 226 1218 240 1125 224 1167 l 227 1222 l 329 1222 b 350 1152 329 1193 336 1170 b 414 1125 363 1134 385 1125 b 478 1152 443 1125 464 1134 b 499 1222 492 1170 499 1194 l 601 1222 "},"К":{"ha":746,"x_min":0,"x_max":0,"o":"m 223 427 l 223 0 l 88 0 l 88 949 l 223 949 l 223 533 l 292 533 l 548 949 l 712 949 l 405 504 l 736 0 l 565 0 l 300 427 "},"Л":{"ha":829,"x_min":0,"x_max":0,"o":"m 739 0 l 604 0 l 604 847 l 352 847 l 351 513 b 281 122 351 333 328 203 b 62 0 235 41 162 0 l 35 0 l 35 101 l 58 101 b 180 191 116 101 157 131 b 216 513 203 251 215 359 l 218 949 l 739 949 "},"М":{"ha":985,"x_min":0,"x_max":0,"o":"m 496 176 l 728 949 l 901 949 l 901 0 l 766 0 l 766 684 l 762 684 l 540 0 l 448 0 l 222 699 l 218 698 l 218 0 l 84 0 l 84 949 l 260 949 l 492 176 "},"Н":{"ha":829,"x_min":0,"x_max":0,"o":"m 604 0 l 604 418 l 225 418 l 225 0 l 90 0 l 90 949 l 225 949 l 225 519 l 604 519 l 604 949 l 739 949 l 739 0 "},"О":{"ha":806,"x_min":0,"x_max":0,"o":"m 743 363 b 649 87 743 247 711 155 b 400 -14 587 20 504 -14 b 155 87 298 -14 216 20 b 63 363 94 155 63 247 l 63 585 b 154 861 63 701 93 793 b 399 963 215 929 297 963 b 649 861 503 963 586 929 b 743 585 711 793 743 701 l 743 363 m 608 586 b 553 787 608 673 589 740 b 399 859 516 835 465 859 b 251 787 335 859 285 835 b 199 586 216 740 199 673 l 199 363 b 251 161 199 276 216 208 b 400 90 286 113 336 90 b 553 161 466 90 517 113 b 608 363 590 208 608 276 l 608 586 "},"П":{"ha":829,"x_min":0,"x_max":0,"o":"m 604 0 l 604 847 l 224 847 l 224 0 l 90 0 l 90 949 l 739 949 l 739 0 "},"Р":{"ha":746,"x_min":0,"x_max":0,"o":"m 222 0 l 87 0 l 87 949 l 403 949 b 618 867 494 949 566 922 b 697 655 671 812 697 741 b 619 443 697 568 671 497 b 403 361 567 389 495 361 l 222 361 m 403 463 b 522 518 455 463 495 482 b 562 654 548 555 562 600 b 522 791 562 708 548 754 b 403 847 495 828 455 847 l 222 847 l 222 463 "},"С":{"ha":750,"x_min":0,"x_max":0,"o":"m 698 291 b 617 68 700 197 673 123 b 391 -14 562 14 486 -14 b 154 86 292 -14 213 20 b 65 361 95 153 65 245 l 65 587 b 153 862 65 703 94 795 b 387 963 211 929 289 963 b 617 884 485 963 562 937 b 698 659 673 831 700 756 l 696 655 l 568 655 b 522 809 568 723 552 775 b 387 861 491 843 446 861 b 250 789 328 861 282 837 b 201 589 217 741 201 674 l 201 361 b 251 159 201 274 217 207 b 391 87 284 111 330 87 b 523 139 449 87 493 105 b 567 295 552 173 567 225 l 696 295 "},"Т":{"ha":692,"x_min":0,"x_max":0,"o":"m 413 847 l 413 0 l 277 0 l 277 847 l 22 847 l 22 949 l 669 949 l 669 847 "},"У":{"ha":753,"x_min":0,"x_max":0,"o":"m 374 410 l 378 410 l 572 949 l 722 949 l 415 165 b 331 34 391 110 363 66 b 194 -14 299 2 253 -14 b 129 -6 170 -14 149 -11 b 73 13 108 -2 90 5 l 89 108 b 134 93 103 102 118 97 b 180 87 151 89 166 87 b 255 117 211 87 236 97 b 298 195 273 136 288 162 l 317 247 l 27 949 l 176 949 l 349 483 "},"Ф":{"ha":848,"x_min":0,"x_max":0,"o":"m 494 806 b 720 706 586 802 661 768 b 808 470 778 644 808 565 b 720 234 808 375 778 296 b 494 135 661 172 586 139 l 494 0 l 359 0 l 359 134 b 133 233 267 138 191 171 b 45 469 74 295 45 374 b 133 706 45 564 74 643 b 359 806 192 768 267 802 l 359 949 l 494 949 l 494 806 m 178 469 b 226 307 178 401 194 347 b 355 244 257 266 301 245 l 359 245 l 359 695 l 355 696 b 226 631 301 694 257 673 b 178 469 194 590 178 536 m 674 470 b 627 632 674 537 658 591 b 498 696 595 673 552 694 l 494 695 l 494 245 l 498 244 b 627 308 552 245 595 267 b 674 470 658 348 674 403 "},"Х":{"ha":746,"x_min":0,"x_max":0,"o":"m 374 579 l 551 949 l 712 949 l 454 479 l 718 0 l 559 0 l 376 378 l 372 378 l 190 0 l 30 0 l 292 479 l 36 949 l 195 949 l 370 579 "},"Ц":{"ha":886,"x_min":0,"x_max":0,"o":"m 348 949 l 348 102 l 728 102 l 728 949 l 863 949 l 863 104 l 966 104 l 966 -200 l 831 -200 l 831 0 l 213 0 l 213 949 "},"Ч":{"ha":777,"x_min":0,"x_max":0,"o":"m 686 0 l 551 0 l 551 382 l 376 382 b 155 453 279 382 205 406 b 79 680 104 500 79 576 l 79 949 l 215 949 l 215 680 b 253 528 215 607 228 557 b 376 484 278 499 319 484 l 551 484 l 551 949 l 686 949 "},"Ш":{"ha":1204,"x_min":0,"x_max":0,"o":"m 222 101 l 538 101 l 538 949 l 673 949 l 673 101 l 986 101 l 986 949 l 1122 949 l 1122 0 l 87 0 l 87 949 l 222 949 "},"Щ":{"ha":1267,"x_min":0,"x_max":0,"o":"m 222 101 l 538 101 l 538 949 l 673 949 l 673 101 l 986 101 l 986 949 l 1122 949 l 1122 0 l 87 0 l 87 949 l 222 949 m 1265 -202 l 1265 102 l 1400 102 l 1400 -202 "},"Ъ":{"ha":828,"x_min":0,"x_max":0,"o":"m 331 949 l 331 576 l 506 576 b 723 497 598 576 670 550 b 802 290 775 444 802 375 b 722 81 802 204 775 135 b 506 0 669 27 597 0 l 196 0 l 196 848 l 50 848 l 50 949 m 331 101 l 506 101 b 626 156 558 101 598 119 b 667 291 653 193 667 238 b 626 421 667 342 653 386 b 506 475 598 457 558 475 l 331 475 "},"Ы":{"ha":1010,"x_min":0,"x_max":0,"o":"m 397 576 b 614 497 489 576 561 550 b 693 290 667 444 693 375 b 614 81 693 204 667 135 b 397 0 561 27 489 0 l 87 0 l 87 949 l 222 949 l 222 576 m 899 0 l 899 949 l 1035 949 l 1035 0 m 222 101 l 397 101 b 517 156 450 101 490 119 b 558 291 544 193 558 238 b 517 421 558 342 544 386 b 397 475 490 457 450 475 l 222 475 "},"Ь":{"ha":739,"x_min":0,"x_max":0,"o":"m 397 576 b 614 497 489 576 561 550 b 693 290 667 444 693 375 b 614 81 693 204 667 135 b 397 0 561 27 489 0 l 87 0 l 87 949 l 222 949 l 222 576 m 222 101 l 397 101 b 517 156 450 101 490 119 b 558 291 544 193 558 238 b 517 421 558 342 544 386 b 397 475 490 457 450 475 l 222 475 "},"Э":{"ha":767,"x_min":0,"x_max":0,"o":"m 81 649 b 160 877 79 743 105 820 b 385 964 215 935 290 964 b 616 850 480 964 557 926 b 704 559 675 774 704 677 l 704 390 b 616 100 704 271 675 175 b 385 -13 557 25 480 -13 b 159 70 289 -13 214 15 b 80 299 105 124 78 201 l 82 303 l 212 303 b 255 143 212 234 226 180 b 385 88 284 107 327 88 b 520 172 442 88 487 116 b 569 389 553 228 569 300 l 569 438 l 277 438 l 277 540 l 569 540 l 569 559 b 520 777 569 648 553 721 b 385 861 487 833 442 861 b 255 806 327 861 284 843 b 212 645 226 769 212 715 l 83 645 "},"Ю":{"ha":1084,"x_min":0,"x_max":0,"o":"m 1062 363 b 968 87 1062 247 1031 155 b 720 -14 906 20 823 -14 b 474 87 617 -14 536 20 b 382 363 413 155 382 247 l 382 427 l 238 427 l 238 0 l 102 0 l 102 949 l 238 949 l 238 528 l 382 528 l 382 585 b 474 861 382 701 413 793 b 718 963 535 929 616 963 b 968 861 822 963 905 929 b 1062 585 1031 793 1062 701 l 1062 363 m 927 586 b 872 787 927 673 909 740 b 718 859 836 835 784 859 b 570 787 654 859 605 835 b 518 586 535 740 518 673 l 518 363 b 571 161 518 276 536 208 b 720 90 606 113 655 90 b 873 161 786 90 837 113 b 927 363 909 208 927 276 l 927 586 "},"Я":{"ha":694,"x_min":0,"x_max":0,"o":"m 7 0 l 197 435 b 84 530 147 458 110 489 b 46 673 59 570 46 618 b 126 877 46 761 73 828 b 346 949 179 925 252 949 l 622 949 l 622 0 l 487 0 l 487 394 l 321 394 l 153 0 m 346 847 b 223 801 292 847 251 832 b 182 672 196 770 182 727 b 223 543 182 619 196 576 b 343 493 251 510 291 493 l 487 493 l 487 847 "},"а":{"ha":632,"x_min":0,"x_max":0,"o":"m 437 0 b 425 53 432 18 428 36 b 419 104 422 70 420 87 b 347 20 401 70 377 42 b 243 -14 317 -2 283 -14 b 96 42 180 -14 131 5 b 45 195 62 80 45 131 b 115 353 45 262 68 315 b 313 410 162 391 228 410 l 418 410 l 418 483 b 391 583 418 526 409 559 b 309 619 372 607 345 619 b 232 588 276 619 251 609 b 205 507 214 567 205 540 l 75 507 l 74 511 b 138 656 71 565 93 614 b 317 719 183 698 243 719 b 489 657 389 719 446 698 b 554 481 532 617 554 558 l 554 154 b 559 76 554 127 556 101 b 576 0 563 50 569 25 l 437 0 m 272 89 b 365 121 307 89 338 100 b 418 199 392 143 409 169 l 418 327 l 311 327 b 214 289 269 327 237 314 b 180 195 191 264 180 232 b 204 118 180 163 188 137 b 272 89 220 99 243 89 "},"б":{"ha":657,"x_min":0,"x_max":0,"o":"m 337 719 b 542 618 424 719 492 685 b 617 361 592 552 617 466 l 617 343 b 541 86 617 238 592 153 b 334 -14 491 20 421 -14 b 125 86 245 -14 175 20 b 49 343 74 153 49 238 l 49 480 b 121 801 49 620 73 727 b 335 930 169 875 241 918 b 431 956 380 937 412 945 b 459 1013 450 966 459 985 l 563 1013 l 564 1009 b 517 876 566 943 550 898 b 346 825 484 853 427 836 b 220 762 295 816 253 795 b 163 632 187 729 168 686 l 165 629 b 241 694 185 656 211 677 b 337 719 272 710 304 719 m 332 616 b 221 544 283 616 246 592 b 184 361 197 495 184 434 l 184 343 b 221 159 184 268 197 207 b 334 87 246 111 283 87 b 444 159 382 87 419 111 b 481 343 469 207 481 269 l 481 361 b 444 544 481 434 469 496 b 332 616 419 592 382 616 "},"в":{"ha":667,"x_min":0,"x_max":0,"o":"m 81 705 l 331 705 b 521 657 412 705 476 689 b 589 513 566 624 589 576 b 559 421 589 478 579 448 b 476 362 539 395 512 375 b 579 302 520 352 555 332 b 616 199 604 273 616 238 b 552 50 616 133 595 84 b 370 0 509 17 448 0 l 81 0 m 216 100 l 370 100 b 452 127 406 100 434 109 b 480 205 471 145 480 171 b 453 283 480 238 471 264 b 370 311 434 301 407 311 l 216 311 m 334 404 b 424 429 373 404 403 412 b 454 503 444 445 454 470 b 423 579 454 537 443 562 b 331 604 402 596 372 604 l 216 604 l 216 404 "},"г":{"ha":441,"x_min":0,"x_max":0,"o":"m 210 603 l 210 0 l 75 0 l 75 705 l 414 705 l 414 603 "},"д":{"ha":761,"x_min":0,"x_max":0,"o":"m 99 101 b 179 178 137 101 164 127 b 217 437 194 229 207 316 l 242 705 l 637 705 l 637 101 l 718 101 l 718 -124 l 583 -124 l 583 0 l 178 0 l 178 -124 l 43 -124 l 43 101 l 99 101 m 353 437 b 324 236 345 358 335 291 b 277 101 312 181 297 136 l 503 101 l 503 595 l 367 595 l 353 437 "},"е":{"ha":618,"x_min":0,"x_max":0,"o":"m 342 -14 b 126 83 250 -14 178 19 b 48 334 74 147 48 231 l 48 364 b 125 619 48 468 74 553 b 326 719 176 686 243 719 b 509 637 405 719 466 692 b 573 412 552 583 573 507 l 573 334 l 183 334 b 224 156 183 261 197 201 b 351 87 251 110 293 87 b 443 103 386 87 417 93 b 518 145 468 113 493 127 l 552 59 b 468 8 532 40 504 23 b 342 -14 431 -6 389 -14 m 326 616 b 231 564 286 616 255 599 b 186 426 207 529 192 483 l 439 426 l 439 442 b 412 569 439 496 430 538 b 326 616 393 601 365 616 "},"ж":{"ha":903,"x_min":0,"x_max":0,"o":"m 519 301 l 519 0 l 383 0 l 383 301 l 344 301 l 188 0 l 16 0 l 239 380 l 31 705 l 199 705 l 349 414 l 383 414 l 383 705 l 519 705 l 519 414 l 554 414 l 704 705 l 872 705 l 664 380 l 888 0 l 715 0 l 558 301 "},"з":{"ha":648,"x_min":0,"x_max":0,"o":"m 326 408 b 415 435 365 408 395 417 b 444 511 434 453 444 478 b 414 588 444 541 434 567 b 323 618 394 608 364 618 b 235 588 288 618 258 608 b 199 509 211 567 199 541 l 71 509 l 69 513 b 138 661 66 573 89 623 b 319 718 187 699 247 718 b 509 664 398 718 462 700 b 579 515 556 629 579 579 b 550 425 579 482 569 452 b 469 362 530 398 503 377 b 559 299 509 348 539 327 b 591 197 580 271 591 237 b 515 43 591 132 565 80 b 319 -12 464 6 399 -12 b 133 43 247 -12 185 6 b 59 202 81 80 57 133 l 60 206 l 189 206 b 225 120 189 172 201 143 b 323 85 250 96 282 85 b 420 117 365 85 397 96 b 455 200 443 139 455 167 b 422 285 455 238 444 267 b 326 313 400 303 368 313 l 218 313 l 218 408 l 326 408 "},"и":{"ha":667,"x_min":0,"x_max":0,"o":"m 592 705 l 592 0 l 456 0 l 456 479 l 452 479 l 210 0 l 75 0 l 75 705 l 210 705 l 210 226 l 214 225 l 456 705 "},"й":{"ha":667,"x_min":0,"x_max":0,"o":"m 592 705 l 592 0 l 456 0 l 456 479 l 452 479 l 210 0 l 75 0 l 75 705 l 210 705 l 210 226 l 214 225 l 456 705 m 522 994 b 473 869 524 943 508 901 b 334 821 439 837 393 821 b 194 869 276 821 229 837 b 146 994 160 901 144 943 l 147 998 l 249 998 b 270 928 249 969 256 946 b 334 901 283 910 305 901 b 398 928 363 901 384 910 b 419 998 412 946 419 970 l 521 998 "},"к":{"ha":656,"x_min":0,"x_max":0,"o":"m 218 297 l 218 0 l 83 0 l 83 705 l 218 705 l 218 411 l 271 411 l 454 705 l 623 705 l 387 375 l 639 0 l 465 0 l 280 297 "},"л":{"ha":651,"x_min":0,"x_max":0,"o":"m 592 0 l 456 0 l 456 603 l 298 603 l 298 399 b 243 97 298 262 280 161 b 62 0 206 32 146 0 l 33 0 l 33 106 l 54 107 b 139 172 94 107 123 129 b 163 399 155 216 163 291 l 163 705 l 592 705 "},"м":{"ha":886,"x_min":0,"x_max":0,"o":"m 441 163 l 627 705 l 795 705 l 795 0 l 661 0 l 661 465 l 656 466 l 486 0 l 394 0 l 223 469 l 219 469 l 219 0 l 84 0 l 84 705 l 254 705 l 437 163 "},"н":{"ha":667,"x_min":0,"x_max":0,"o":"m 456 0 l 456 301 l 210 301 l 210 0 l 75 0 l 75 705 l 210 705 l 210 401 l 456 401 l 456 705 l 591 705 l 591 0 "},"о":{"ha":667,"x_min":0,"x_max":0,"o":"m 48 361 b 124 618 48 466 73 552 b 332 719 175 685 244 719 b 541 618 420 719 490 685 b 616 361 591 552 616 466 l 616 343 b 541 86 616 238 591 153 b 333 -14 490 20 421 -14 b 124 86 244 -14 175 20 b 48 343 73 153 48 238 l 48 361 m 184 343 b 221 159 184 268 196 207 b 333 87 245 111 283 87 b 444 159 382 87 419 111 b 481 343 469 207 481 269 l 481 361 b 444 544 481 434 469 496 b 332 616 419 592 381 616 b 221 544 282 616 245 592 b 184 361 196 495 184 434 l 184 343 "},"п":{"ha":667,"x_min":0,"x_max":0,"o":"m 456 0 l 456 603 l 210 603 l 210 0 l 75 0 l 75 705 l 592 705 l 592 0 "},"р":{"ha":667,"x_min":0,"x_max":0,"o":"m 616 331 b 552 80 616 227 595 143 b 376 -14 510 18 451 -14 b 281 7 340 -14 308 -7 b 211 69 254 21 230 42 l 211 -271 l 76 -271 l 76 705 l 191 705 l 203 621 b 275 693 222 652 246 676 b 374 719 303 710 336 719 b 552 616 450 719 510 685 b 616 345 595 548 616 458 l 616 331 m 480 345 b 445 539 480 424 468 489 b 338 614 421 589 385 614 b 261 590 307 614 282 606 b 211 523 240 574 223 551 l 211 172 b 261 110 223 145 240 124 b 339 87 282 95 308 87 b 445 154 387 87 422 110 b 480 331 469 198 480 257 l 480 345 "},"с":{"ha":623,"x_min":0,"x_max":0,"o":"m 328 87 b 412 125 361 87 389 100 b 446 227 435 150 446 184 l 568 227 l 570 222 b 500 55 571 157 548 101 b 328 -14 452 9 394 -14 b 122 86 240 -14 171 20 b 49 340 73 153 49 238 l 49 365 b 122 618 49 467 73 551 b 327 719 171 685 240 719 b 504 647 399 719 458 695 b 570 463 550 599 572 538 l 568 458 l 446 458 b 413 572 446 505 435 543 b 327 616 391 602 362 616 b 219 544 278 616 242 592 b 184 365 196 496 184 436 l 184 340 b 219 159 184 267 196 207 b 328 87 242 111 278 87 "},"т":{"ha":610,"x_min":0,"x_max":0,"o":"m 372 604 l 372 0 l 237 0 l 237 604 l 37 604 l 37 705 l 576 705 l 576 604 "},"у":{"ha":597,"x_min":0,"x_max":0,"o":"m 291 195 l 295 195 l 437 705 l 585 705 l 328 -109 b 259 -233 312 -158 288 -199 b 133 -285 230 -268 188 -285 b 96 -281 121 -285 109 -284 b 59 -273 84 -279 71 -276 l 74 -175 b 96 -178 81 -176 88 -177 b 115 -179 104 -179 110 -179 b 178 -146 141 -179 162 -168 b 214 -68 193 -124 205 -98 l 239 4 l 12 705 l 159 705 l 281 243 "},"ф":{"ha":1053,"x_min":0,"x_max":0,"o":"m 71 345 b 135 616 71 458 92 548 b 313 719 177 685 236 719 b 401 700 346 719 375 712 b 469 644 427 687 449 668 l 469 1017 l 605 1017 l 605 638 b 675 698 624 664 648 684 b 768 719 702 712 733 719 b 946 616 844 719 903 685 b 1009 345 988 548 1009 458 l 1009 331 b 946 80 1009 227 988 143 b 769 -14 903 18 845 -14 b 675 6 734 -14 702 -7 b 605 62 648 19 624 38 l 605 -271 l 469 -271 l 469 58 b 401 4 450 34 427 16 b 311 -14 375 -8 345 -14 b 134 80 235 -14 176 18 b 71 331 92 143 71 227 l 71 345 m 873 345 b 838 541 873 425 862 490 b 730 616 814 591 778 616 b 655 592 701 616 676 608 b 605 525 634 575 618 553 l 605 170 b 655 109 617 144 634 124 b 732 87 676 95 701 87 b 839 154 780 87 815 110 b 873 331 862 198 873 257 l 873 345 m 206 331 b 240 154 206 257 217 198 b 345 87 262 110 297 87 b 419 109 374 87 398 94 b 469 168 439 123 456 142 l 469 531 b 419 593 456 557 439 578 b 347 616 399 609 375 616 b 240 541 299 616 263 591 b 206 345 218 490 206 425 l 206 331 "},"х":{"ha":597,"x_min":0,"x_max":0,"o":"m 299 449 l 415 705 l 570 705 l 375 357 l 576 0 l 422 0 l 300 265 l 296 265 l 176 0 l 21 0 l 222 357 l 27 705 l 181 705 l 295 449 "},"ц":{"ha":707,"x_min":0,"x_max":0,"o":"m 210 705 l 210 101 l 456 101 l 456 705 l 592 705 l 592 101 l 671 101 l 671 -132 l 536 -132 l 536 0 l 75 0 l 75 705 "},"ч":{"ha":656,"x_min":0,"x_max":0,"o":"m 446 0 l 446 272 l 345 272 b 135 331 251 272 182 291 b 66 534 89 370 66 438 l 66 705 l 201 705 l 201 534 b 234 406 201 470 212 427 b 345 374 255 384 292 374 l 446 374 l 446 705 l 582 705 l 582 0 "},"ш":{"ha":958,"x_min":0,"x_max":0,"o":"m 210 101 l 410 101 l 410 705 l 545 705 l 545 101 l 743 101 l 743 705 l 879 705 l 879 0 l 75 0 l 75 705 l 210 705 "}}}
